<svg xmlns="http://www.w3.org/2000/svg" width="174.901" height="184.669" viewBox="0 0 174.901 184.669">
  <g id="ad-img" transform="translate(-0.25 -0.418)">
    <rect id="BG" width="174.901" height="184.669" rx="10" transform="translate(0.25 0.418)" fill="#e0ecff"/>
    <g id="Icon" transform="translate(59.25 73.418)">
      <path id="Path_276" data-name="Path 276" d="M96.1,111H53.638a6.755,6.755,0,0,0-6.748,6.748v24.664a6.755,6.755,0,0,0,6.748,6.748H96.106a6.755,6.755,0,0,0,6.748-6.748V117.748A6.756,6.756,0,0,0,96.1,111Zm3.856,17.339c-5.378-3.97-10.918-7.558-13.38-7.558-5.511,0-20.76,17.565-20.76,17.565s-4.313-7.646-7.959-7.646c-1.712,0-5.037,2.773-8.081,5.714V117.748a3.866,3.866,0,0,1,3.855-3.855H96.1a3.866,3.866,0,0,1,3.855,3.855v10.591Z" transform="translate(-46.89 -111)" fill="#a9bddc"/>
      <circle id="Ellipse_28" data-name="Ellipse 28" cx="3.306" cy="3.306" r="3.306" transform="translate(11.725 7.852)" fill="#a9bddc"/>
    </g>
  </g>
</svg>
