<svg xmlns="http://www.w3.org/2000/svg" width="50.697" height="50.695" viewBox="0 0 50.697 50.695">
  <g id="animals" transform="translate(0 0)">
    <g id="_034---Dog-Walking" data-name="034---Dog-Walking" transform="translate(0 0)">
      <path id="Shape" d="M50.117,20.321,45.567,18.8c-.253-1.419-1.382-3.358-4.431-3.576L39.88,12.082a1.69,1.69,0,0,0-3.254.524,15.271,15.271,0,0,1-2.669,8.027A11.7,11.7,0,0,1,32,22.739a4.219,4.219,0,0,0-3.887-3.282A9.283,9.283,0,0,0,25.134,2.833c-.014-.015-.019-.035-.034-.051A9.561,9.561,0,0,0,18.385,0H11.677A11.687,11.687,0,0,0,6.849,1.048,11.551,11.551,0,0,0,2.887,3.989,11.67,11.67,0,0,0,0,11.677V16.9a3.38,3.38,0,0,0,3.38,3.38,8.769,8.769,0,0,0,3.075-.821c2.04-.8,4.149-1.633,6.629-.144a15.071,15.071,0,0,0,7.662,1.949,15.083,15.083,0,0,0,2.133-.139h5a2.535,2.535,0,0,1,2.535,2.535v.237c-4.35,2.7-10.405,3.143-16.053,3.143a.845.845,0,0,0-.205.025.954.954,0,0,1-.443-.183c-.4-.281-1.367-1.327-1.736-4.973a1.69,1.69,0,0,0-3.337-.169,17.713,17.713,0,0,0,.577,8.545,10.5,10.5,0,0,0-.861,8.425l-1.6,2.129a4.252,4.252,0,0,0-.845,2.535V48.16a2.535,2.535,0,0,0,2.535,2.535h3.38A1.69,1.69,0,0,0,13.519,49v-.472a2.535,2.535,0,0,0-1.734-2.4l-.455-.151.221-.444c1.362-.294,5.745-1.542,7.548-5.647a42.235,42.235,0,0,0,13.206.727l2.04,8.162a2.535,2.535,0,0,0,2.46,1.915h3.75A1.69,1.69,0,0,0,42.245,49v-.472a2.535,2.535,0,0,0-1.734-2.4l-.8-.271V39.186c.9-1.065,3.887-5.205,3.448-12.954,1.5.014,4.371-.183,6.1-1.744a4.347,4.347,0,0,0,1.436-3.365.845.845,0,0,0-.578-.8Zm-19.7-8.492a7.6,7.6,0,1,1-7.6-7.6,8.079,8.079,0,0,1,1.5.144A7.63,7.63,0,0,1,30.417,11.829ZM5.835,17.884a7.738,7.738,0,0,1-2.455.7A1.69,1.69,0,0,1,1.69,16.9V11.677A9.978,9.978,0,0,1,4.16,5.1,9.86,9.86,0,0,1,7.55,2.585a9.976,9.976,0,0,1,4.127-.9h6.709a7.837,7.837,0,0,1,3.6.887,9.281,9.281,0,0,0-4.9,16.553,11.471,11.471,0,0,1-3.126-1.267c-3.2-1.915-6.043-.8-8.12.022ZM33.73,23.438,41.5,27.921a21.8,21.8,0,0,1-.185,2.7l-9.509-5.492a.828.828,0,0,0,.237-.317,14.01,14.01,0,0,0,1.684-1.378Zm4.539,14.831a.845.845,0,0,0-.248.6v7a1.69,1.69,0,0,0,1.156,1.605l.8.267a.845.845,0,0,1,.578.8V49h-3.75a.845.845,0,0,1-.82-.64l-2.215-8.859a.845.845,0,0,0-.82-.64h-.076c-8.972.818-13.972-.788-14.025-.805a.845.845,0,0,0-1.067.535c-1.286,3.859-5.37,5.019-6.59,5.282a1.682,1.682,0,0,0-1.152.9l-.222.445a1.69,1.69,0,0,0,.978,2.358l.455.152a.845.845,0,0,1,.578.8V49H8.449A.845.845,0,0,1,7.6,48.16V43.372a2.55,2.55,0,0,1,.507-1.521L9.97,39.373A.845.845,0,0,0,10.1,38.6a8.658,8.658,0,0,1,.719-7.675.845.845,0,0,0,.133-.749,16.385,16.385,0,0,1-.651-8.1c.324,3.191,1.147,5.273,2.446,6.186a2.383,2.383,0,0,0,1.69.464c5.08,0,10.937-.4,15.558-2.687L41,32.4a13.148,13.148,0,0,1-2.732,5.87Zm9.859-15.033c-1.819,1.648-5.757,1.277-5.8,1.267a.845.845,0,0,0-.929.921c.016.176.019.338.03.507l-6.536-3.773c.145-.182.3-.352.435-.544a16.9,16.9,0,0,0,2.979-8.905l1.463,3.659a.845.845,0,0,0,.783.531c3.239,0,3.375,2.281,3.38,2.535a.845.845,0,0,0,.578.8l4.444,1.481a2.558,2.558,0,0,1-.83,1.519Z" transform="translate(0 0)" fill="#0055a6"/>
      <path id="Shape-2" data-name="Shape" d="M12.449,12.449a10.984,10.984,0,0,1,2.576-7.06A.845.845,0,0,0,14.379,4H12.3A8.3,8.3,0,0,0,4,12.3V16.41a.845.845,0,0,0,1.141.792c.236-.084.481-.184.7-.269a13.458,13.458,0,0,1,5.035-1.2,8.521,8.521,0,0,1,.907.048.845.845,0,0,0,.916-1.014,11.015,11.015,0,0,1-.245-2.316Zm-1.69,0a12.821,12.821,0,0,0,.1,1.592A13.965,13.965,0,0,0,5.69,15.176V12.3A6.615,6.615,0,0,1,12.3,5.69h.422A12.674,12.674,0,0,0,10.759,12.449Z" transform="translate(-0.62 -0.62)" fill="#0055a6"/>
      <path id="Shape-3" data-name="Shape" d="M24.019,7.025A5.786,5.786,0,0,0,20,12.914a.845.845,0,0,0,1.69,0c0-3.472,2.619-4.218,2.745-4.251a.845.845,0,0,0-.416-1.638Z" transform="translate(-3.102 -1.086)" fill="#0055a6"/>
    </g>
  </g>
</svg>
