<svg xmlns="http://www.w3.org/2000/svg" width="60.229" height="53.938" viewBox="0 0 60.229 53.938">
  <g id="bedrooms" transform="translate(-9.845 -35.842)">
    <path id="Path_530" data-name="Path 530" d="M148.928,190.049h-4.8v-9.928a3.17,3.17,0,0,0-3.167-3.167H114.69a3.17,3.17,0,0,0-3.167,3.167v9.928h-4.805a3.133,3.133,0,0,0-3.158,3.1v17.608a2.667,2.667,0,1,0,5.334,0v-5.863h37.824v5.845a2.685,2.685,0,1,0,5.37,0V193.148a3.133,3.133,0,0,0-3.158-3.1Zm-43.907,13.383v-2.173h45.6v2.173Zm7.963-23.312a1.707,1.707,0,0,1,1.705-1.705h26.267a1.707,1.707,0,0,1,1.705,1.705v9.928h-1.74v-2.81a3.133,3.133,0,0,0-3.158-3.1h-5.91a3.133,3.133,0,0,0-3.158,3.1v2.81h-1.744v-2.81a3.133,3.133,0,0,0-3.158-3.1h-5.91a3.133,3.133,0,0,0-3.158,3.1v2.81h-1.74Zm17.172,9.928v-2.81a1.67,1.67,0,0,1,1.7-1.638h5.911a1.67,1.67,0,0,1,1.7,1.638v2.81Zm-13.969,0v-2.81a1.67,1.67,0,0,1,1.7-1.638h5.91a1.67,1.67,0,0,1,1.7,1.638v2.81Zm-9.468,1.462h42.209a1.67,1.67,0,0,1,1.7,1.638V199.8h-45.6v-6.649a1.67,1.67,0,0,1,1.7-1.638Zm.714,19.246a1.206,1.206,0,0,1-2.41,0v-5.863h2.41Zm41.97,1.158a1.2,1.2,0,0,1-1.223-1.176v-5.845h2.446v5.845a1.2,1.2,0,0,1-1.223,1.176Z" transform="translate(-82.162 -123.794)" fill="#0055a6" stroke="#0055a6" stroke-width="0.3"/>
    <path id="Path_531" data-name="Path 531" d="M18.728,195.537h-1.69V167.05h4.741a.83.83,0,0,0,.757-1.174l-2.954-6.46a.834.834,0,0,0-.757-.486H13.79a.834.834,0,0,0-.757.486l-2.954,6.459a.83.83,0,0,0,.757,1.174h1.737v2.173a1.338,1.338,0,0,0-.627,1.129,1.358,1.358,0,1,0,2.715,0,1.338,1.338,0,0,0-.627-1.129v-2.173h1.542v28.488h-1.69a.731.731,0,0,0,0,1.462h4.842a.731.731,0,0,0,0-1.462ZM13.3,170.471a.112.112,0,0,1-.1-.119.132.132,0,0,1,.007-.04.741.741,0,0,0,.1.007.725.725,0,0,0,.1-.007.129.129,0,0,1,.007.04.112.112,0,0,1-.1.119Zm.889-10.08h4.229l2.377,5.2H11.817Z" transform="translate(0 -107.965)" fill="#0055a6" stroke="#0055a6" stroke-width="0.3"/>
    <path id="Path_532" data-name="Path 532" d="M179.247,35.992a.731.731,0,0,0-.731.731V49.109a.731.731,0,0,0,.731.731h28.807a.731.731,0,0,0,.731-.731V36.723a.731.731,0,0,0-.731-.731ZM196.2,48.378l-.1-.111,3.412-2.874,3.188,2.986Zm-11.107,0,4.718-4.666,4.385,4.665Zm22.228,0h-2.486l-4.8-4.5a.731.731,0,0,0-.97-.026L195.1,47.2l-4.732-5.034a.73.73,0,0,0-.519-.23.714.714,0,0,0-.527.211l-6.3,6.232h-3.039V37.453h27.346Z" transform="translate(-147.989)" fill="#0055a6" stroke="#0055a6" stroke-width="0.3"/>
    <path id="Path_533" data-name="Path 533" d="M296.936,65.552a2.657,2.657,0,1,0-2.483-2.651A2.574,2.574,0,0,0,296.936,65.552Zm0-3.841a1.2,1.2,0,1,1-1.021,1.19A1.116,1.116,0,0,1,296.936,61.711Z" transform="translate(-249.807 -21.304)" fill="#0055a6" stroke="#0055a6" stroke-width="0.3"/>
  </g>
</svg>
