<svg id="electronics-1" xmlns="http://www.w3.org/2000/svg" width="49.014" height="49.014" viewBox="0 0 49.014 49.014">
  <path id="Path_510" data-name="Path 510" d="M373.915,376.957a.957.957,0,1,1-.957-.957A.957.957,0,0,1,373.915,376.957Zm0,0" transform="translate(-336.388 -340.006)" fill="#0055a6"/>
  <path id="Path_511" data-name="Path 511" d="M173.915,226.957a.957.957,0,1,1-.957-.957A.957.957,0,0,1,173.915,226.957Zm0,0" transform="translate(-155.535 -204.365)" fill="#0055a6"/>
  <path id="Path_512" data-name="Path 512" d="M.957,49.014H21.252a.957.957,0,0,0,.957-.957V2.872A2.875,2.875,0,0,0,19.337,0H2.872A2.875,2.875,0,0,0,0,2.872V48.056A.957.957,0,0,0,.957,49.014ZM1.915,47.1V19.72h18.38V47.1ZM2.872,1.915H19.337a.958.958,0,0,1,.957.957V17.806H1.915V2.872A.958.958,0,0,1,2.872,1.915Zm0,0" transform="translate(0 0)" fill="#0055a6"/>
  <path id="Path_513" data-name="Path 513" d="M172.957,70.147a.957.957,0,0,0,.957-.957V60.957a.957.957,0,1,0-1.915,0V69.19A.957.957,0,0,0,172.957,70.147Zm0,0" transform="translate(-155.535 -54.256)" fill="#0055a6"/>
  <path id="Path_514" data-name="Path 514" d="M172.957,266a.957.957,0,0,0-.957.957v7.658a.957.957,0,0,0,1.915,0v-7.658A.957.957,0,0,0,172.957,266Zm0,0" transform="translate(-155.535 -240.536)" fill="#0055a6"/>
  <path id="Path_515" data-name="Path 515" d="M275.932,0H252.957A.957.957,0,0,0,252,.957V14.934a.957.957,0,0,0,.957.957h22.975a.957.957,0,0,0,.957-.957V.957A.957.957,0,0,0,275.932,0ZM253.915,1.915h3.829V13.977h-3.829Zm21.061,12.062H259.658V1.915h15.317Zm0,0" transform="translate(-227.876 0)" fill="#0055a6"/>
  <path id="Path_516" data-name="Path 516" d="M352.957,48.233h9.573a.957.957,0,0,0,.957-.957V40.957A.957.957,0,0,0,362.53,40h-9.573a.957.957,0,0,0-.957.957v6.318A.957.957,0,0,0,352.957,48.233Zm.957-6.318h7.658v4.4h-7.658Zm0,0" transform="translate(-318.303 -36.171)" fill="#0055a6"/>
  <path id="Path_517" data-name="Path 517" d="M274.018,186H254.872A2.875,2.875,0,0,0,252,188.872v27.379a.957.957,0,0,0,.957.957h22.975a.957.957,0,0,0,.957-.957V188.872A2.875,2.875,0,0,0,274.018,186Zm-19.146,1.915h19.146a.958.958,0,0,1,.957.957v2.872h-13.4v-.957a.957.957,0,0,0-1.915,0v.957h-1.915v-.957a.957.957,0,1,0-1.915,0v.957h-1.915v-2.872A.958.958,0,0,1,254.872,187.915Zm-.957,27.379V193.658h21.061v21.635Zm0,0" transform="translate(-227.876 -168.194)" fill="#0055a6"/>
  <path id="Path_518" data-name="Path 518" d="M309.658,306a7.658,7.658,0,1,0,7.658,7.658A7.667,7.667,0,0,0,309.658,306Zm0,13.4a5.744,5.744,0,1,1,5.663-6.7h-1.833a.957.957,0,1,0,0,1.913h1.833A5.753,5.753,0,0,1,309.658,319.4Zm0,0" transform="translate(-273.09 -276.707)" fill="#0055a6"/>
</svg>
