<svg xmlns="http://www.w3.org/2000/svg" width="82" height="81" viewBox="0 0 82 81">
  <g id="electronics" transform="translate(-0.422 0.067)">
    <g id="BG" transform="translate(0.422 -0.067)" fill="#fff" stroke="#0055a6" stroke-width="2">
      <ellipse cx="41" cy="40.5" rx="41" ry="40.5" stroke="none"/>
      <ellipse cx="41" cy="40.5" rx="40" ry="39.5" fill="none"/>
    </g>
    <g id="_007" data-name="007" transform="translate(16.678 15.916)">
      <g id="Group_363" data-name="Group 363">
        <path id="Path_315" data-name="Path 315" d="M225.869,107.8a7.236,7.236,0,0,0-10.221,0l-8.289,8.289a.962.962,0,1,0,1.361,1.361l8.289-8.289a5.3,5.3,0,0,1,7.5,7.5l-8.234,8.234a2.632,2.632,0,0,0-3.669.047l-2.282,2.282-3.53,1.149a9.569,9.569,0,0,0-3.787,2.322l-4.981,4.981a.962.962,0,0,0,0,1.361l7.469,7.469a.962.962,0,0,0,1.361,0l4.981-4.981a9.568,9.568,0,0,0,2.322-3.787l1.149-3.53,2.282-2.282a2.652,2.652,0,0,0,.046-3.67l8.234-8.234A7.236,7.236,0,0,0,225.869,107.8Zm-15.392,30.362-4.3,4.3-2.37-2.37,4.7-4.7a.962.962,0,0,0-1.361-1.361l-4.7,4.7-2.378-2.378,4.3-4.3a7.634,7.634,0,0,1,3.021-1.853l3.188-1.038,2.789,2.789-1.038,3.188A7.632,7.632,0,0,1,210.477,138.164Zm5.752-9.6-1.764,1.764-2.263-2.263,1.764-1.764a.705.705,0,0,1,1,0l1.266,1.266A.711.711,0,0,1,216.229,128.566Z" transform="translate(-178.72 -95.518)" fill="#0055a6"/>
        <path id="Path_316" data-name="Path 316" d="M23.861,26.743a.963.963,0,0,0-1.361,0L11.669,37.574a5.691,5.691,0,0,1-8.048-8.048l10.31-10.31a2.631,2.631,0,0,0,3.664-.052L19.757,17h1.43a.962.962,0,0,0,.68-.282l2.852-2.852h2.458a.962.962,0,0,0,.68-.282l1.954-1.954a.962.962,0,0,0,0-1.361L28.136,8.594l3.358-3.358a.962.962,0,0,0-1.361-1.361L26.775,7.233,24.541,5,27.9,1.641A.962.962,0,1,0,26.538.28L23.18,3.638,21.5,1.961a.963.963,0,0,0-1.361,0L18.188,3.916a.962.962,0,0,0-.282.68V7.054L15.054,9.906a.962.962,0,0,0-.282.68v1.43L12.609,14.18a2.632,2.632,0,0,0-.041,3.676L2.26,28.165a7.615,7.615,0,0,0,10.77,10.77L23.861,28.1a.962.962,0,0,0,0-1.361ZM16.7,10.986,19.55,8.133a.963.963,0,0,0,.282-.68V4.995L20.824,4l6.948,6.948-.992.992H24.321a.963.963,0,0,0-.68.282l-2.852,2.852H19.757l-3.06-3.06Zm-2.727,4.555,1.764-1.764L18,16.039,16.233,17.8a.705.705,0,0,1-1,0l-1.266-1.266a.705.705,0,0,1,0-1Z" transform="translate(-0.033 0.002)" fill="#0055a6"/>
        <path id="Path_317" data-name="Path 317" d="M263.841,243.787a.962.962,0,1,0-.267,1.335A.973.973,0,0,0,263.841,243.787Z" transform="translate(-236.866 -219.945)" fill="#0055a6"/>
      </g>
    </g>
  </g>
</svg>
