<svg xmlns="http://www.w3.org/2000/svg" width="83" height="82" viewBox="0 0 83 82">
  <g id="furniture-move" transform="translate(0.401 0.355)">
    <g id="BG" transform="translate(-0.401 -0.355)" fill="#fff" stroke="#0055a6" stroke-width="2">
      <ellipse cx="41.5" cy="41" rx="41.5" ry="41" stroke="none"/>
      <ellipse cx="41.5" cy="41" rx="40.5" ry="40" fill="none"/>
    </g>
    <g id="_002" data-name="002" transform="translate(9.83 22.37)">
      <g id="Group_350" data-name="Group 350" transform="translate(0 0)">
        <g id="Group_349" data-name="Group 349">
          <path id="Path_295" data-name="Path 295" d="M55.342,110.02,53.8,103.856a.932.932,0,0,0,.737-.911v-.994a3.918,3.918,0,0,0-3.913-3.913H43.606v-2.05a1.928,1.928,0,0,0-1.926-1.926H5.9a1.928,1.928,0,0,0-1.926,1.926v16.9a.932.932,0,1,0,1.864,0v-16.9a.062.062,0,0,1,.062-.062H41.68a.062.062,0,0,1,.062.062v16.9a.932.932,0,0,0,1.864,0v-1.056h11a3.049,3.049,0,0,1,2.9,2.112H54.6a.932.932,0,0,0-.932.932v1.988a2.923,2.923,0,0,0,2.919,2.919h1.056v4.1H55.207a5.9,5.9,0,0,0-11.153,0h-.449v-7.019a.932.932,0,0,0-1.864,0v7.019H22.41a5.9,5.9,0,0,0-11.153,0H5.9a.062.062,0,0,1-.062-.062v-2.05H9.876a.932.932,0,1,0,0-1.864H.932a.932.932,0,0,0,0,1.864H3.975v2.05A1.928,1.928,0,0,0,5.9,125.741h5.033c0,.021,0,.041,0,.062a5.9,5.9,0,0,0,11.8,0c0-.021,0-.041,0-.062h21c0,.021,0,.041,0,.062a5.9,5.9,0,0,0,11.8,0c0-.021,0-.041,0-.062h3.045a.932.932,0,0,0,.932-.932v-9.939A4.915,4.915,0,0,0,55.342,110.02ZM43.606,99.9h7.019a2.052,2.052,0,0,1,2.05,2.05v.062H43.606Zm0,10.063v-6.087h8.279l1.522,6.087ZM16.833,129.841a4.038,4.038,0,1,1,4.038-4.038A4.042,4.042,0,0,1,16.833,129.841Zm32.8,0a4.038,4.038,0,1,1,4.038-4.038A4.042,4.042,0,0,1,49.631,129.841Zm8.013-11.926H56.588a1.057,1.057,0,0,1-1.056-1.056V115.8h2.112v2.112Z" transform="translate(0 -94.062)" fill="#0055a6"/>
        </g>
      </g>
      <g id="Group_352" data-name="Group 352" transform="translate(14.908 29.816)">
        <g id="Group_351" data-name="Group 351" transform="translate(0 0)">
          <path id="Path_296" data-name="Path 296" d="M130.193,350.6a1.926,1.926,0,1,0,1.926,1.926A1.928,1.928,0,0,0,130.193,350.6Z" transform="translate(-128.267 -350.597)" fill="#0055a6"/>
        </g>
      </g>
      <g id="Group_354" data-name="Group 354" transform="translate(47.705 29.816)">
        <g id="Group_353" data-name="Group 353" transform="translate(0 0)">
          <path id="Path_297" data-name="Path 297" d="M412.381,350.6a1.926,1.926,0,1,0,1.926,1.926A1.928,1.928,0,0,0,412.381,350.6Z" transform="translate(-410.455 -350.597)" fill="#0055a6"/>
        </g>
      </g>
      <g id="Group_356" data-name="Group 356" transform="translate(23.853 25.84)">
        <g id="Group_355" data-name="Group 355" transform="translate(0 0)">
          <path id="Path_298" data-name="Path 298" d="M220.073,316.393H206.159a.932.932,0,0,0,0,1.864h13.914a.932.932,0,0,0,0-1.864Z" transform="translate(-205.227 -316.393)" fill="#0055a6"/>
        </g>
      </g>
      <g id="Group_358" data-name="Group 358" transform="translate(1.988 21.865)">
        <g id="Group_357" data-name="Group 357">
          <path id="Path_299" data-name="Path 299" d="M29.96,282.188H18.034a.932.932,0,0,0,0,1.864H29.96a.932.932,0,0,0,0-1.864Z" transform="translate(-17.102 -282.188)" fill="#0055a6"/>
        </g>
      </g>
      <g id="Group_360" data-name="Group 360" transform="translate(16.896 8.945)">
        <g id="Group_359" data-name="Group 359">
          <path id="Path_300" data-name="Path 300" d="M160.874,171.3a.932.932,0,0,0-1.318,0l-8.286,8.286-4.31-4.31a.932.932,0,0,0-1.318,1.318l4.969,4.969a.932.932,0,0,0,1.318,0l8.945-8.945A.932.932,0,0,0,160.874,171.3Z" transform="translate(-145.37 -171.023)" fill="#0055a6"/>
        </g>
      </g>
    </g>
  </g>
</svg>
