<svg xmlns="http://www.w3.org/2000/svg" width="83" height="81" viewBox="0 0 83 81">
  <g id="furniture" transform="translate(0.402 0.211)">
    <g id="BG" transform="translate(-0.402 -0.211)" fill="#fff" stroke="#0055a6" stroke-width="2">
      <ellipse cx="41.5" cy="40.5" rx="41.5" ry="40.5" stroke="none"/>
      <ellipse cx="41.5" cy="40.5" rx="40.5" ry="39.5" fill="none"/>
    </g>
    <g id="_006" data-name="006" transform="translate(6.817 34.54) rotate(-25)">
      <g id="Group_362" data-name="Group 362" transform="translate(0 0)">
        <g id="Group_361" data-name="Group 361">
          <path id="Path_309" data-name="Path 309" d="M56.44,5.718a.839.839,0,0,0,0-1.678H54.021V1.678H56.44A.839.839,0,0,0,56.44,0H15.065a.839.839,0,1,0,0,1.678H52.343v34.68H4.936V1.678H11.59A.839.839,0,1,0,11.59,0H.839a.839.839,0,1,0,0,1.678H3.258V4.04H.839a.839.839,0,1,0,0,1.678H3.258V8.08H.839a.839.839,0,1,0,0,1.678H3.258V12.12H.839a.839.839,0,1,0,0,1.678H3.258V16.16H.839a.839.839,0,1,0,0,1.678H3.258V20.2H.839a.839.839,0,1,0,0,1.678H3.258v2.362H.839a.839.839,0,0,0,0,1.678H3.258v2.362H.839a.839.839,0,1,0,0,1.678H3.258v2.362H.839A.839.839,0,1,0,.839,34H3.258v2.362H.839a.839.839,0,1,0,0,1.678h55.6a.839.839,0,0,0,0-1.678H54.021V34H56.44a.839.839,0,0,0,0-1.678H54.021V29.957H56.44a.839.839,0,0,0,0-1.678H54.021V25.917H56.44a.839.839,0,0,0,0-1.678H54.021V21.877H56.44a.839.839,0,1,0,0-1.678H54.021V17.837H56.44a.839.839,0,0,0,0-1.678H54.021V13.8H56.44a.839.839,0,0,0,0-1.678H54.021V9.758H56.44a.839.839,0,0,0,0-1.678H54.021V5.718Z" fill="#0055a6"/>
          <path id="Path_310" data-name="Path 310" d="M19.053,8.325A4.615,4.615,0,0,0,14.52,3.744a5.2,5.2,0,0,0-9.987,0,4.581,4.581,0,0,0,0,9.161,5.2,5.2,0,0,0,9.987,0A4.615,4.615,0,0,0,19.053,8.325Zm-4.64,2.9a3.049,3.049,0,0,1-.449-.033.839.839,0,0,0-.957.733,3.512,3.512,0,0,1-6.962,0,.839.839,0,0,0-.957-.733,3.048,3.048,0,0,1-.449.033,2.9,2.9,0,1,1,0-5.808,3.052,3.052,0,0,1,.449.033.839.839,0,0,0,.957-.733,3.512,3.512,0,0,1,6.962,0,.839.839,0,0,0,.957.733,3.051,3.051,0,0,1,.449-.033,2.9,2.9,0,1,1,0,5.808Z" transform="translate(19.113 10.694)" fill="#0055a6"/>
          <path id="Path_311" data-name="Path 311" d="M0,2.978a3.011,3.011,0,0,0,6.022,0A3.011,3.011,0,0,0,0,2.978Zm4.344,0a1.333,1.333,0,0,1-2.666,0,1.333,1.333,0,0,1,2.666,0Z" transform="translate(10.968 16.041)" fill="#0055a6"/>
          <path id="Path_312" data-name="Path 312" d="M27.952,29.482H41.236a.839.839,0,0,0,.839-.839V.839A.839.839,0,0,0,41.236,0H.839A.839.839,0,0,0,0,.839v27.8a.839.839,0,0,0,.839.839H24.621a.839.839,0,1,0,0-1.678H9.343a6.6,6.6,0,0,0,.045-.765,6.774,6.774,0,0,0-6.812-6.721,6.935,6.935,0,0,0-.9.06V9.1a6.917,6.917,0,0,0,.9.06A6.774,6.774,0,0,0,9.388,2.443a6.624,6.624,0,0,0-.045-.765H32.732a6.6,6.6,0,0,0-.045.765A6.774,6.774,0,0,0,39.5,9.164a6.935,6.935,0,0,0,.9-.06V20.377a6.917,6.917,0,0,0-.9-.06,6.774,6.774,0,0,0-6.812,6.721,6.624,6.624,0,0,0,.045.765H27.952a.839.839,0,1,0,0,1.678ZM2.577,22A5.1,5.1,0,0,1,7.71,27.039a4.942,4.942,0,0,1-.062.765H1.678V22.074A5.231,5.231,0,0,1,2.577,22Zm0-14.511a5.243,5.243,0,0,1-.9-.078V1.678h5.97a4.928,4.928,0,0,1,.062.765A5.1,5.1,0,0,1,2.577,7.486ZM40.4,7.408a5.229,5.229,0,0,1-.9.078,5.1,5.1,0,0,1-5.134-5.043,4.942,4.942,0,0,1,.062-.765H40.4ZM39.5,22a5.243,5.243,0,0,1,.9.078V27.8h-5.97a4.942,4.942,0,0,1-.062-.765A5.1,5.1,0,0,1,39.5,22Z" transform="translate(7.602 4.277)" fill="#0055a6"/>
          <path id="Path_313" data-name="Path 313" d="M6.022,2.978A3.011,3.011,0,0,0,0,2.978a3.011,3.011,0,0,0,6.022,0Zm-4.344,0a1.333,1.333,0,0,1,2.666,0,1.333,1.333,0,0,1-2.666,0Z" transform="translate(40.289 16.041)" fill="#0055a6"/>
          <path id="Path_314" data-name="Path 314" d="M3.554,0A3.537,3.537,0,0,0,0,3.512a3.554,3.554,0,0,0,7.108,0A3.537,3.537,0,0,0,3.554,0Zm0,5.347A1.858,1.858,0,0,1,1.678,3.512,1.857,1.857,0,0,1,3.554,1.678,1.857,1.857,0,0,1,5.43,3.512,1.858,1.858,0,0,1,3.554,5.347Z" transform="translate(25.085 15.506)" fill="#0055a6"/>
        </g>
      </g>
    </g>
  </g>
</svg>
