<svg xmlns="http://www.w3.org/2000/svg" width="83" height="82" viewBox="0 0 83 82">
  <g id="gardens" transform="translate(0.402 0.067)">
    <g id="BG" transform="translate(-0.402 -0.067)" fill="#fff" stroke="#0055a6" stroke-width="2">
      <ellipse cx="41.5" cy="41" rx="41.5" ry="41" stroke="none"/>
      <ellipse cx="41.5" cy="41" rx="40.5" ry="40" fill="none"/>
    </g>
    <g id="_010" data-name="010" transform="translate(12.959 11.803)">
      <path id="Path_336" data-name="Path 336" d="M72.01,37.232h-3.4a6.486,6.486,0,0,0-5.856,3.729L61.274,44.14,61,43.46l1.745-3.839a7.369,7.369,0,0,1,3.814-3.732l2.282-.978a2.367,2.367,0,1,0-1.894-4.339L63.94,31.91a11.988,11.988,0,0,0-5.316,4.63V34.463a.919.919,0,0,0-.225-.6,16.634,16.634,0,0,0,2.995-9.5,2.792,2.792,0,0,0-2.638-2.818,2.747,2.747,0,0,0-1.294.251,19.214,19.214,0,0,0,.24-3.024,2.768,2.768,0,0,0-4.616-2.063,2.768,2.768,0,0,0-4.616,2.063q0,.078,0,.157a2.771,2.771,0,0,0-.926.55,2.744,2.744,0,0,0-1.979-.7A2.792,2.792,0,0,0,42.93,21.59v.1a2.773,2.773,0,0,0-3.693,2.664,16.634,16.634,0,0,0,2.995,9.5.919.919,0,0,0-.225.6v2.769a.923.923,0,0,0,.923.923v1.16l-2.774.517A5.538,5.538,0,1,0,29.083,40a.923.923,0,0,0-.887.673l-2.263-.566-2.573-3.43a.923.923,0,0,0-1.391-.1l-.177.177a8.453,8.453,0,0,0-1.873,9.127.923.923,0,0,0,1.27.483l2.9-1.448L29.2,54.291a.923.923,0,0,0,1.078.441l1.6-.484,1.815,1.815-1.9,1.071A7.378,7.378,0,0,0,21.7,64c0,.173.008.346.02.518L21,64.785a2.368,2.368,0,0,0-1.3,1.155l-.012.022-.012.023a2.375,2.375,0,0,0,2.907,3.3l1.011-.352A7.381,7.381,0,0,0,36.454,64.45l7.96-2.776,5.861,7.813A4.754,4.754,0,0,0,58.823,66.9l.63-11.341a16.928,16.928,0,0,0,5.509-7.222l1.9-4.747a2.757,2.757,0,0,1,2.572-1.741H72.01a2.308,2.308,0,1,0,0-4.616Zm-11.89,9.382c-.063.136-.13.27-.2.4l-.136-1.228.837-.254ZM43.854,36.309v-.923H56.778v.923ZM64.69,33.6,67.7,32.26a.521.521,0,1,1,.417.955l-2.282.978a9.212,9.212,0,0,0-4.767,4.665l-1.011,2.224-.738-1.854.251-.552A10.146,10.146,0,0,1,64.69,33.6Zm-6.7-9.958a.916.916,0,0,1,.683-.254.961.961,0,0,1,.878.974,14.772,14.772,0,0,1-3.213,9.18h-.339A9.766,9.766,0,0,0,57.7,28H55.854a7.935,7.935,0,0,1-2.234,5.539h-.294l.657-2.806a.923.923,0,0,0-.437-1.01.947.947,0,0,1-.276-.245q-.088-.29-.185-.577,0-.04.005-.082a.9.9,0,0,1,.349-.609.931.931,0,0,1,.685-.2l.036,0a.923.923,0,0,0,.9-1.389.909.909,0,0,1-.125-.537.933.933,0,0,1,.852-.852.91.91,0,0,1,.537.126.923.923,0,0,0,1.386-.919.968.968,0,0,1-.009-.132A.915.915,0,0,1,57.987,23.64Zm-8.594-3.024a.954.954,0,0,1,.131.009.923.923,0,0,0,.92-1.386.907.907,0,0,1-.128-.469.923.923,0,1,1,1.846,0,.923.923,0,1,0,1.846,0,.923.923,0,1,1,1.846,0,17.347,17.347,0,0,1-.647,4.693,2.777,2.777,0,0,0-2.116,2.5,2.832,2.832,0,0,0,0,.363,2.842,2.842,0,0,0-.286.124,2.767,2.767,0,0,0-1.684-3.864,2.778,2.778,0,0,0-2.064-1.9.917.917,0,0,1,.337-.065Zm-3.738,0a.923.923,0,0,1,.969.922.968.968,0,0,1-.009.132A.923.923,0,0,0,48,22.59a.906.906,0,0,1,.469-.128.924.924,0,0,1,.923.923.923.923,0,0,0,.923.923.924.924,0,0,1,.45,1.73.922.922,0,0,0-.473.805h0a.918.918,0,0,0,.089.4l.282.592a15.406,15.406,0,0,1,.6,1.442,2.782,2.782,0,0,0,.307.957c.127.445.232.9.319,1.351l-.458,1.956H49.2l-.622-2.655a2.751,2.751,0,0,0-.244-4.123,2.824,2.824,0,0,0-.793-.44,2.824,2.824,0,0,0,0-.363,2.775,2.775,0,0,0-2.567-2.567c-.066,0-.131-.006-.2-.006V21.59a.961.961,0,0,1,.878-.974Zm-3.693,2.769a.923.923,0,0,1,.969.922.968.968,0,0,1-.009.132.923.923,0,0,0,1.386.919.905.905,0,0,1,.538-.125.933.933,0,0,1,.852.852.91.91,0,0,1-.125.538.923.923,0,0,0,.925,1.385.936.936,0,0,1,.694.2.9.9,0,0,1,.349.609.919.919,0,0,1-.456.9.923.923,0,0,0-.437,1.01l.658,2.806h-.294A7.935,7.935,0,0,1,44.777,28H42.93a9.766,9.766,0,0,0,1.706,5.539H44.3a14.772,14.772,0,0,1-3.213-9.18.961.961,0,0,1,.878-.974ZM55.854,38.155v3.926L44.777,45.364V38.155ZM42.93,45.911l-5.539,1.641v-.595l.3-.2a5.528,5.528,0,0,0,2.466-4.609v-.438l2.769-.516ZM26,42.028l2.164.541v1.608L25.619,43.16Zm4.01-.18h5.539V48.1l-3.269.969-2.27-3.783Zm8.308.206v.094a3.684,3.684,0,0,1-.923,2.442V42.225Zm-3.693-5.744A3.7,3.7,0,0,1,38.315,40v.174l-1.1.205A.921.921,0,0,0,36.468,40H30.93A3.7,3.7,0,0,1,34.622,36.309Zm-12.07,2.369,1.81,2.413-.649,1.948-2.384,1.192A6.608,6.608,0,0,1,22.552,38.678ZM26.506,45.5l1.945.778,2.609,4.349a.922.922,0,0,0,1.054.41L57.04,43.656a.923.923,0,0,0,.661-.885V40.155l1.54,3.87L30.457,52.747Zm31.482.83.342,3.078a12.362,12.362,0,0,1-5.2,3.619L38.584,58.351l-4.71-4.71ZM35.04,57.418l1.632,1.632-1.627.6a7.388,7.388,0,0,0-1.4-1.443Zm-5.957,1.046a5.555,5.555,0,0,1,4.13,1.851l-.947.346a4.615,4.615,0,0,0-7.772,2.843l-.947.346A5.544,5.544,0,0,1,29.083,58.464Zm1.054,2.977-3.51,1.284a2.772,2.772,0,0,1,3.51-1.284Zm-1.054,8.1a5.487,5.487,0,0,1-3.55-1.283l1.06-.37A4.614,4.614,0,0,0,33.45,65.5l1.057-.369A5.548,5.548,0,0,1,29.083,69.542ZM72.336,39.867A.459.459,0,0,1,72.01,40H69.433a4.6,4.6,0,0,0-4.287,2.9l-1.9,4.747a15.087,15.087,0,0,1-5.23,6.672.923.923,0,0,0-.384.7L56.98,66.8a2.907,2.907,0,0,1-5.229,1.582l-6.266-8.353a.923.923,0,0,0-1.043-.318L21.973,67.545a.529.529,0,0,1-.651-.727l.01-.018.012-.024a.526.526,0,0,1,.289-.259L53.762,54.764a14.183,14.183,0,0,0,8.03-7.369l2.638-5.653a4.633,4.633,0,0,1,4.183-2.664h3.4a.462.462,0,0,1,.327.788Z" transform="translate(-19.311 -16)" fill="#0055a6"/>
      <path id="Path_337" data-name="Path 337" d="M268.032,363.63a.922.922,0,0,0-.857-.1c-.141.055-.288.107-.4.146l-6.537,2.28a.923.923,0,0,0-.452,1.4l4.759,6.8a2.137,2.137,0,0,0,3.888-1.226v-8.54a.923.923,0,0,0-.4-.762Zm-1.444,9.3a.291.291,0,0,1-.529.166L262,367.3l4.588-1.6Z" transform="translate(-231.89 -323.373)" fill="#0055a6"/>
    </g>
  </g>
</svg>
