<svg xmlns="http://www.w3.org/2000/svg" width="82" height="82" viewBox="0 0 82 82">
  <g id="home-furniture" transform="translate(0.227 0.355)">
    <g id="BG" transform="translate(-0.227 -0.355)" fill="#fff" stroke="#0055a6" stroke-width="2">
      <circle cx="41" cy="41" r="41" stroke="none"/>
      <circle cx="41" cy="41" r="40" fill="none"/>
    </g>
    <g id="_003" data-name="003" transform="translate(10.274 11.45)">
      <path id="Path_301" data-name="Path 301" d="M205.512,208.343a6.583,6.583,0,0,0-1.714,1.782.747.747,0,0,0,1.252.817,5.093,5.093,0,0,1,1.327-1.38.747.747,0,1,0-.864-1.219Z" transform="translate(-179.554 -193.905)" fill="#0055a6" stroke="#0055a6" stroke-width="0.5"/>
      <path id="Path_302" data-name="Path 302" d="M22.424,139.876H16.946V105.643c0-.012,0-.024,0-.036,0-5.91,4.559-10.719,10.164-10.719a10.422,10.422,0,0,1,10.141,10.039,6.594,6.594,0,0,0-5.816,6.539v1.168a.747.747,0,0,0,.747.747H35.51a2.728,2.728,0,0,0,5.3,0h3.053a.747.747,0,0,0,.747-.747v-1.168a6.594,6.594,0,0,0-5.857-6.544A11.923,11.923,0,0,0,27.112,93.393c-6.407,0-11.623,5.443-11.658,12.146,0,.017,0,.035,0,.052v34.285h-4.7a.747.747,0,0,0,0,1.495H22.424a.747.747,0,1,0,0-1.495Zm15.735-25.911a1.238,1.238,0,0,1-1.032-.584h2.063A1.238,1.238,0,0,1,38.159,113.965Zm4.954-2.5v.42H32.932v-.42a5.091,5.091,0,1,1,10.182,0Z" transform="translate(-10 -93.393)" fill="#0055a6" stroke="#0055a6" stroke-width="0.5"/>
      <path id="Path_303" data-name="Path 303" d="M179.1,317.205v-4.945a3.149,3.149,0,0,0-3.17-3.121H162.256a3.141,3.141,0,0,0-2.242.925c-.062.062-.119.126-.175.192a3.184,3.184,0,0,0-2.428-1.117H143.659a3.15,3.15,0,0,0-3.17,3.121v4.959a3.613,3.613,0,0,0-3.295,3.569V329.5a.747.747,0,0,0,.747.747h5.794a.747.747,0,0,0,.747-.747v-1l30.859.009v.986a.747.747,0,0,0,.747.747h5.794a.747.747,0,0,0,.747-.747v-8.711a3.617,3.617,0,0,0-3.529-3.583Zm-18.028-6.086a1.657,1.657,0,0,1,1.183-.486h13.675a1.653,1.653,0,0,1,1.675,1.627v5.21a3.592,3.592,0,0,0-2.264,3.318v.293l-14.757,0,0-8.742a1.7,1.7,0,0,1,.486-1.216Zm-17.414-.486h13.752a1.653,1.653,0,0,1,1.675,1.627l0,8.816-14.607,0v-.284a3.6,3.6,0,0,0-2.5-3.4v-5.124a1.654,1.654,0,0,1,1.675-1.627Zm-.671,18.118h-4.3v-7.963a2.15,2.15,0,0,1,4.3,0Zm1.495-1.743v-4.441l15.354,0h0l15.5,0v4.443Zm36.653,1.743h-4.3v-7.963a2.15,2.15,0,0,1,4.3,0Z" transform="translate(-121.352 -282.268)" fill="#0055a6" stroke="#0055a6" stroke-width="0.5"/>
    </g>
  </g>
</svg>
