<svg xmlns="http://www.w3.org/2000/svg" width="59.009" height="49.808" viewBox="0 0 59.009 49.808">
  <g id="house" transform="translate(0 -39.916)">
    <path id="Path_527" data-name="Path 527" d="M49.321,49.076h3.81a.864.864,0,0,0,0-1.729h-3.81a2.654,2.654,0,0,1-2.659-2.492c0-.043,0-.086,0-.129a3.081,3.081,0,0,1,5.48-1.934.864.864,0,0,0,1.037.241,2.482,2.482,0,0,1,1.055-.233A2.514,2.514,0,0,1,56.4,44.047a.864.864,0,0,0,1.187.309,1.854,1.854,0,0,1,2.767,1.267.865.865,0,0,0,.851.712H64a.54.54,0,0,1,.551.5.506.506,0,0,1-.506.516H56.589a.864.864,0,1,0,0,1.729h7.455A2.235,2.235,0,0,0,66.279,46.8,2.269,2.269,0,0,0,64,44.607H61.848a3.584,3.584,0,0,0-4.412-2.067,4.234,4.234,0,0,0-4.382-1.3,4.81,4.81,0,0,0-8.123,3.488q0,.1,0,.2A4.346,4.346,0,0,0,49.321,49.076Z" transform="translate(-39.753)" fill="#0055a6"/>
    <path id="Path_528" data-name="Path 528" d="M58.144,199.635h-.563c.894-1.055,1.316-2.7,1.316-5.067a32.213,32.213,0,0,0-1.676-9.7c-.9-2.629-2.453-5.763-4.751-5.763-1.155,0-2.227.785-3.194,2.336-.839-1.34-1.9-2.336-3.193-2.336-1.393,0-2.661,1.136-3.773,3.379a2.145,2.145,0,0,0-.725-.128H32.971a.864.864,0,0,0,0,1.729h8.615a.432.432,0,0,1,.432.432v.977a.432.432,0,0,1-.432.432H17.423a.432.432,0,0,1-.432-.432v-.977a.432.432,0,0,1,.432-.432h12.09a.864.864,0,0,0,0-1.729H22.346a11.537,11.537,0,1,0-11.511,6.773v4.923a4.143,4.143,0,0,0-1.518.076,5.12,5.12,0,0,0-8.6,5.521.864.864,0,0,0,.148,1.715h57.28a.864.864,0,1,0,0-1.729Zm-40.681-1.261a3.6,3.6,0,0,0-.133-.745h2.76v2.005H17.333A3.681,3.681,0,0,0,17.464,198.375Zm18.761-7.151V192.5H23.164v-1.274Zm3.663,0c-.055.432-.1.857-.136,1.274h-1.8v-1.274Zm3.618,3a.2.2,0,0,1,.2.2V195.7a.2.2,0,0,1-.2.2h-28a.2.2,0,0,1-.2-.2v-1.277a.2.2,0,0,1,.2-.2Zm-21.686,3.4H37.569v2.005H21.82Zm17.478,0h.692a5.021,5.021,0,0,0,.987,2.005H39.3V197.63Zm10.958-14.4c.749-1.5,1.577-2.4,2.215-2.4.712,0,1.955,1.2,3.115,4.594a30.825,30.825,0,0,1,1.583,9.141c0,4.873-1.768,4.873-4.7,4.873-.36,0-.739,0-1.113-.015a8.116,8.116,0,0,0,1.153-4.858,32.213,32.213,0,0,0-1.676-9.7c-.177-.517-.38-1.054-.608-1.583.01-.017.021-.034.03-.053Zm-4.173-2.4c.712,0,1.955,1.2,3.115,4.594a30.825,30.825,0,0,1,1.583,9.141c0,4.873-1.768,4.873-4.7,4.873-2.324,0-3.651-.088-4.286-1.811h1.707a1.93,1.93,0,0,0,1.928-1.928v-1.277a1.93,1.93,0,0,0-1.928-1.928H41.487c.038-.417.086-.843.144-1.276a2.162,2.162,0,0,0,2.115-2.158v-.977a2.147,2.147,0,0,0-.436-1.3,2.146,2.146,0,0,0,.436-1.3v-.977a2.147,2.147,0,0,0-.138-.754.866.866,0,0,0,.06-.108C44.476,181.888,45.379,180.834,46.084,180.834Zm-4.5,6.821a.432.432,0,0,1,.432.432v.977a.432.432,0,0,1-.432.432H17.423a.432.432,0,0,1-.432-.432v-.977a.432.432,0,0,1,.432-.432ZM2.012,177.635a9.807,9.807,0,1,1,18.445,4.65c-.013.024-.024.047-.034.071h-3a2.163,2.163,0,0,0-2.16,2.16v.977a2.147,2.147,0,0,0,.36,1.191.87.87,0,0,0-.1.032,9.717,9.717,0,0,1-2.962.694V180.6l2.986-2.987a.864.864,0,0,0-1.222-1.222l-1.764,1.764V175.9a.864.864,0,0,0-1.729,0v5.2l-1.663-1.662a.864.864,0,0,0-1.222,1.222l2.885,2.885v3.85a9.821,9.821,0,0,1-8.823-9.758Zm10.552,11.512a11.45,11.45,0,0,0,2.7-.5v.416a2.163,2.163,0,0,0,2.16,2.16h4.012V192.5H15.5a1.93,1.93,0,0,0-1.928,1.928v.557a3.6,3.6,0,0,0-.547.076,4.146,4.146,0,0,0-.464-.357v-5.554Zm-9.7,10.489A3.364,3.364,0,0,1,1.8,197.02a3.413,3.413,0,0,1,3.23-3.246,3.372,3.372,0,0,1,3.159,1.795.864.864,0,0,0,1.114.382,2.407,2.407,0,0,1,2.816.644.864.864,0,0,0,.98.244,1.912,1.912,0,0,1,.759-.136,1.925,1.925,0,0,0,1.6.925,1.922,1.922,0,0,1,0,2.008Z" transform="translate(0 -111.64)" fill="#0055a6"/>
    <path id="Path_529" data-name="Path 529" d="M257.736,128.208h8.645a.864.864,0,1,0,0-1.729h-8.645a1.03,1.03,0,0,1-1.044-1s0-.013,0-.015a2.216,2.216,0,0,1,2.16-2.2.865.865,0,0,0,.835-.724,4.409,4.409,0,0,1,8.7.021.865.865,0,0,0,.963.721,2.241,2.241,0,0,1,.284-.021,2.216,2.216,0,0,1,1.9,1.094.864.864,0,0,0,.746.428h2.37a.852.852,0,0,1,0,1.7h-4.817a.864.864,0,0,0,0,1.729h4.817a2.58,2.58,0,0,0,0-5.161h-1.914a3.957,3.957,0,0,0-2.813-1.51,6.14,6.14,0,0,0-11.806.069,3.96,3.96,0,0,0-3.16,3.855v.027a2.764,2.764,0,0,0,2.773,2.72Z" transform="translate(-225.578 -68.306)" fill="#0055a6"/>
  </g>
</svg>
