<svg xmlns="http://www.w3.org/2000/svg" width="82" height="81" viewBox="0 0 82 81">
  <g id="kitchen" transform="translate(0.226 0.067)">
    <g id="BG" transform="translate(-0.226 -0.067)" fill="#fff" stroke="#0055a6" stroke-width="2">
      <ellipse cx="41" cy="40.5" rx="41" ry="40.5" stroke="none"/>
      <ellipse cx="41" cy="40.5" rx="40" ry="39.5" fill="none"/>
    </g>
    <g id="_008" data-name="008" transform="translate(15.799 15.083)">
      <path id="Path_318" data-name="Path 318" d="M50.085,96H34.8a.849.849,0,0,0-.849.849v19.525H15.28v-2.547a.849.849,0,0,0-.849-.849H11.885v1.7h1.7v1.7h-3.4v-3.4h-1.7v3.4h-3.4v-1.7h1.7v-1.7H4.245a.849.849,0,0,0-.849.849v2.547H.849a.849.849,0,0,0-.849.849V135.9a.849.849,0,0,0,.849.849H50.085a.849.849,0,0,0,.849-.849V96.849A.849.849,0,0,0,50.085,96ZM35.654,97.7H49.236v10.187H35.654Zm-1.7,23.769H18.676v-3.4h15.28ZM1.7,118.071h15.28v3.4H1.7Zm0,5.093h15.28v11.885H1.7Zm16.978,0h6.791v11.885H18.676Zm8.489,0h6.791v11.885H27.165Zm8.489,11.885V109.582H49.236v25.467Zm0,0" transform="translate(0 -85.813)" fill="#0055a6"/>
      <path id="Path_319" data-name="Path 319" d="M352,144h1.7v3.4H352Zm0,0" transform="translate(-314.648 -128.72)" fill="#0055a6"/>
      <path id="Path_320" data-name="Path 320" d="M352,256h1.7v3.4H352Zm0,0" transform="translate(-314.648 -228.835)" fill="#0055a6"/>
      <path id="Path_321" data-name="Path 321" d="M33.7,312.849a.849.849,0,1,1-.849-.849A.849.849,0,0,1,33.7,312.849Zm0,0" transform="translate(-28.604 -278.893)" fill="#0055a6"/>
      <path id="Path_322" data-name="Path 322" d="M65.7,312.849a.849.849,0,1,1-.849-.849A.849.849,0,0,1,65.7,312.849Zm0,0" transform="translate(-57.209 -278.893)" fill="#0055a6"/>
      <path id="Path_323" data-name="Path 323" d="M97.7,312.849a.849.849,0,1,1-.849-.849A.849.849,0,0,1,97.7,312.849Zm0,0" transform="translate(-85.813 -278.893)" fill="#0055a6"/>
      <path id="Path_324" data-name="Path 324" d="M129.7,312.849a.849.849,0,1,1-.849-.849A.849.849,0,0,1,129.7,312.849Zm0,0" transform="translate(-114.418 -278.893)" fill="#0055a6"/>
      <path id="Path_325" data-name="Path 325" d="M.849,16.129H17.827a.849.849,0,0,0,.849-.849V12.734a.849.849,0,0,0-.249-.6l-3.4-3.4a.849.849,0,0,0-.6-.249h-.849V.849A.849.849,0,0,0,12.734,0H5.942a.849.849,0,0,0-.849.849v7.64H4.245a.849.849,0,0,0-.6.249l-3.4,3.4a.849.849,0,0,0-.249.6V15.28A.849.849,0,0,0,.849,16.129ZM6.791,1.7h5.093V8.489H6.791ZM1.7,13.085l2.9-2.9H14.08l2.9,2.9v1.346H1.7Zm0,0" transform="translate(0 0)" fill="#0055a6"/>
      <path id="Path_326" data-name="Path 326" d="M43.036,368H32.849a.849.849,0,0,0-.849.849v6.791a.849.849,0,0,0,.849.849H43.036a.849.849,0,0,0,.849-.849v-6.791A.849.849,0,0,0,43.036,368Zm-.849,6.791H33.7V369.7h8.489Zm0,0" transform="translate(-28.604 -328.951)" fill="#0055a6"/>
      <path id="Path_327" data-name="Path 327" d="M232,312h3.4v1.7H232Zm0,0" transform="translate(-207.382 -278.893)" fill="#0055a6"/>
      <path id="Path_328" data-name="Path 328" d="M208,392h1.7v3.4H208Zm0,0" transform="translate(-185.929 -350.404)" fill="#0055a6"/>
      <path id="Path_329" data-name="Path 329" d="M272,392h1.7v3.4H272Zm0,0" transform="translate(-243.137 -350.404)" fill="#0055a6"/>
      <path id="Path_330" data-name="Path 330" d="M184.849,21.222h5.093a.849.849,0,0,0,.849-.849v-.849a3.4,3.4,0,0,0-2.547-3.275V0h-1.7v16.25A3.4,3.4,0,0,0,184,19.524v.849A.849.849,0,0,0,184.849,21.222Zm2.547-3.4a1.7,1.7,0,0,1,1.7,1.7h-3.4A1.7,1.7,0,0,1,187.4,17.827Zm0,0" transform="translate(-164.475 0)" fill="#0055a6"/>
      <path id="Path_331" data-name="Path 331" d="M240.849,14.431h5.093a.849.849,0,0,0,.849-.849v-.849a3.4,3.4,0,0,0-2.547-3.275V0h-1.7V9.459A3.4,3.4,0,0,0,240,12.734v.849A.849.849,0,0,0,240.849,14.431Zm2.547-3.4a1.7,1.7,0,0,1,1.7,1.7h-3.4A1.7,1.7,0,0,1,243.4,11.036Zm0,0" transform="translate(-214.533 0)" fill="#0055a6"/>
    </g>
  </g>
</svg>
