<svg xmlns="http://www.w3.org/2000/svg" width="53.638" height="53.639" viewBox="0 0 53.638 53.639">
  <g id="kitchen-1" transform="translate(0 0)">
    <path id="Path_534" data-name="Path 534" d="M52.745,96H36.653a.894.894,0,0,0-.894.894v20.561H16.092v-2.682a.894.894,0,0,0-.894-.894H12.516v1.788H14.3v1.788H10.728V113.88H8.94v3.576H5.364v-1.788H7.152V113.88H4.47a.894.894,0,0,0-.894.894v2.682H.894a.894.894,0,0,0-.894.894v19.667a.894.894,0,0,0,.894.894H52.745a.894.894,0,0,0,.894-.894V96.894A.894.894,0,0,0,52.745,96Zm-15.2,1.788h14.3v10.728h-14.3Zm-1.788,25.031H19.667v-3.576H35.759ZM1.788,119.243H17.879v3.576H1.788Zm0,5.364H17.879v12.516H1.788Zm17.879,0h7.152v12.516H19.667Zm8.94,0h7.152v12.516H28.607Zm8.94,12.516V110.3h14.3v26.819Zm0,0" transform="translate(0 -85.273)" fill="#0055a6"/>
    <path id="Path_535" data-name="Path 535" d="M352,144h1.788v3.576H352Zm0,0" transform="translate(-312.665 -127.909)" fill="#0055a6"/>
    <path id="Path_536" data-name="Path 536" d="M352,256h1.788v3.576H352Zm0,0" transform="translate(-312.665 -227.393)" fill="#0055a6"/>
    <path id="Path_537" data-name="Path 537" d="M33.788,312.894a.894.894,0,1,1-.894-.894A.894.894,0,0,1,33.788,312.894Zm0,0" transform="translate(-28.424 -277.135)" fill="#0055a6"/>
    <path id="Path_538" data-name="Path 538" d="M65.788,312.894a.894.894,0,1,1-.894-.894A.894.894,0,0,1,65.788,312.894Zm0,0" transform="translate(-56.848 -277.135)" fill="#0055a6"/>
    <path id="Path_539" data-name="Path 539" d="M97.788,312.894a.894.894,0,1,1-.894-.894A.894.894,0,0,1,97.788,312.894Zm0,0" transform="translate(-85.272 -277.135)" fill="#0055a6"/>
    <path id="Path_540" data-name="Path 540" d="M129.788,312.894a.894.894,0,1,1-.894-.894A.894.894,0,0,1,129.788,312.894Zm0,0" transform="translate(-113.696 -277.135)" fill="#0055a6"/>
    <path id="Path_541" data-name="Path 541" d="M.894,16.986H18.773a.894.894,0,0,0,.894-.894V13.41a.894.894,0,0,0-.262-.632L15.83,9.2A.894.894,0,0,0,15.2,8.94H14.3V.894A.894.894,0,0,0,13.41,0H6.258a.894.894,0,0,0-.894.894V8.94H4.47a.894.894,0,0,0-.632.262L.262,12.778A.894.894,0,0,0,0,13.41v2.682A.894.894,0,0,0,.894,16.986Zm6.258-15.2h5.364V8.94H7.152ZM1.788,13.78,4.84,10.728h9.987l3.052,3.052V15.2H1.788Zm0,0" transform="translate(0 0)" fill="#0055a6"/>
    <path id="Path_542" data-name="Path 542" d="M43.622,368H32.894a.894.894,0,0,0-.894.894v7.152a.894.894,0,0,0,.894.894H43.622a.894.894,0,0,0,.894-.894v-7.152A.894.894,0,0,0,43.622,368Zm-.894,7.152h-8.94v-5.364h8.94Zm0,0" transform="translate(-28.424 -326.877)" fill="#0055a6"/>
    <path id="Path_543" data-name="Path 543" d="M232,312h3.576v1.788H232Zm0,0" transform="translate(-206.075 -277.135)" fill="#0055a6"/>
    <path id="Path_544" data-name="Path 544" d="M208,392h1.788v3.576H208Zm0,0" transform="translate(-184.757 -348.195)" fill="#0055a6"/>
    <path id="Path_545" data-name="Path 545" d="M272,392h1.788v3.576H272Zm0,0" transform="translate(-241.605 -348.195)" fill="#0055a6"/>
    <path id="Path_546" data-name="Path 546" d="M184.894,22.349h5.364a.894.894,0,0,0,.894-.894v-.894a3.576,3.576,0,0,0-2.682-3.449V0h-1.788V17.112A3.576,3.576,0,0,0,184,20.561v.894A.894.894,0,0,0,184.894,22.349Zm2.682-3.576a1.788,1.788,0,0,1,1.788,1.788h-3.576A1.788,1.788,0,0,1,187.576,18.773Zm0,0" transform="translate(-163.439)" fill="#0055a6"/>
    <path id="Path_547" data-name="Path 547" d="M240.894,15.2h5.364a.894.894,0,0,0,.894-.894V13.41a3.576,3.576,0,0,0-2.682-3.449V0h-1.788V9.961A3.576,3.576,0,0,0,240,13.41V14.3A.894.894,0,0,0,240.894,15.2Zm2.682-3.576a1.788,1.788,0,0,1,1.788,1.788h-3.576A1.788,1.788,0,0,1,243.576,11.622Zm0,0" transform="translate(-213.181 0)" fill="#0055a6"/>
  </g>
</svg>
