<svg xmlns="http://www.w3.org/2000/svg" xmlns:xlink="http://www.w3.org/1999/xlink" width="70" height="70" viewBox="0 0 70 70">
  <defs>
    <clipPath id="clip-path">
      <circle id="Ellipse_1" data-name="Ellipse 1" cx="35" cy="35" r="35" fill="#fff" stroke="#707070" stroke-width="1"/>
    </clipPath>
  </defs>
  <g id="Mask_Group_1" data-name="Mask Group 1" clip-path="url(#clip-path)">
    <path id="wave2" d="M69.63,43.976H.146S-.182,7.068.146,6.74C.3,6.585,2.424,8.834,5.874,11.084c3.857,2.515,9.37,5.03,15.644,4.185C33.4,13.67,35.646,2.475,47.691.342c11.854-2.1,21.69,6.13,22,6.391h0l0,0,.006.005h0C70,7.06,79.31,16.843,91,15.27,102.889,13.67,105.13,2.475,117.175.342s22.006,6.4,22.006,6.4V43.976Z" transform="translate(0.677 28.17)" fill="#003e7a"/>
    <path id="wave1" d="M69.63,0H.146s-.328,36.908,0,37.236c.155.155,2.278-2.095,5.728-4.344,3.857-2.515,9.37-5.03,15.644-4.185C33.4,30.306,35.646,41.5,47.691,43.634c11.854,2.1,21.69-6.13,22-6.391h0l0,0,.006-.005h0c.3-.319,9.613-10.1,21.305-8.529,11.886,1.6,14.128,12.795,26.173,14.927s22.006-6.4,22.006-6.4V0Z" transform="translate(69.49 72.146) rotate(180)" fill="#0055a6"/>
  </g>
</svg>
