<svg xmlns="http://www.w3.org/2000/svg" width="416" height="416" viewBox="0 0 416 416">
  <g id="no-ads" transform="translate(-17 -17)">
    <path id="Path_939" data-name="Path 939" d="M188.79,369.82a27.926,27.926,0,0,1-25.19-15.97l-30.93-65.49a8,8,0,0,1,14.47-6.83l30.93,65.48a11.841,11.841,0,1,0,21.41-10.12l-29.67-62.82a8,8,0,0,1,14.47-6.83l29.67,62.82a27.892,27.892,0,0,1-25.16,39.76Z" fill="#0055a6"/>
    <path id="Path_940" data-name="Path 940" d="M139.02,292.99a42.812,42.812,0,0,1-14.42-2.52,42.664,42.664,0,0,1-3.82-78.74l41.95-19.81a8.01,8.01,0,0,1,10.66,3.81L203,258.42a8,8,0,0,1-3.82,10.65l-41.95,19.81a42.672,42.672,0,0,1-18.21,4.11Zm23.3-83.2-34.71,16.4a26.665,26.665,0,0,0,22.78,48.22l34.71-16.4Z" fill="#0055a6"/>
    <path id="Path_941" data-name="Path 941" d="M195.75,269.83a8.007,8.007,0,0,1-7.23-4.58l-29.61-62.69a8,8,0,0,1,1.59-9.09l79.48-79.11a7.995,7.995,0,0,1,12.87,2.25l61.71,130.66a8,8,0,0,1-6.44,11.38L196.54,269.8C196.28,269.82,196.01,269.83,195.75,269.83Zm-19.97-69,24.79,52.48,94.69-9.45L243.23,133.7Z" fill="#0055a6"/>
    <path id="Path_942" data-name="Path 942" d="M315.69,276.38a8,8,0,0,1-7.24-4.58L230.03,105.78a8.01,8.01,0,0,1,3.81-10.66l29.99-14.17a7.995,7.995,0,0,1,10.65,3.81L352.9,250.78a7.995,7.995,0,0,1-3.81,10.65L319.1,275.6A7.857,7.857,0,0,1,315.69,276.38ZM247.92,106.17,319.5,257.72l15.53-7.33L263.45,98.84Z" fill="#0055a6"/>
    <g id="Group_1237" data-name="Group 1237">
      <path id="Path_943" data-name="Path 943" d="M225,433C110.31,433,17,339.69,17,225S110.31,17,225,17s208,93.31,208,208S339.69,433,225,433Zm0-400C119.13,33,33,119.13,33,225s86.13,192,192,192,192-86.13,192-192S330.87,33,225,33Z" fill="#0055a6"/>
      <path id="Path_944" data-name="Path 944" d="M366.42,374.42a7.98,7.98,0,0,1-5.66-2.34L77.92,89.24A8,8,0,0,1,89.23,77.93L372.07,360.77a7.995,7.995,0,0,1-5.65,13.65Z" fill="#0055a6"/>
    </g>
  </g>
</svg>
