<svg xmlns="http://www.w3.org/2000/svg" width="416" height="416" viewBox="0 0 416 416">
  <g id="no-comments" transform="translate(-17 -17)">
    <g id="Group_1237" data-name="Group 1237">
      <path id="Path_943" data-name="Path 943" d="M225,433C110.31,433,17,339.69,17,225S110.31,17,225,17s208,93.31,208,208S339.69,433,225,433Zm0-400C119.13,33,33,119.13,33,225s86.13,192,192,192,192-86.13,192-192S330.87,33,225,33Z" fill="#0055a6"/>
      <path id="Path_944" data-name="Path 944" d="M366.42,374.42a7.98,7.98,0,0,1-5.66-2.34L77.92,89.24A8,8,0,0,1,89.23,77.93L372.07,360.77a8,8,0,0,1-5.65,13.65Z" fill="#0055a6"/>
    </g>
    <g id="no-comments-2" data-name="no-comments" transform="translate(43.716 26.156)">
      <g id="Path_939" data-name="Path 939" fill="#0055a6">
        <path d="M 55.90377044677734 282.8998413085938 L 55.90342712402344 282.8998413085938 L 55.90311431884766 282.8998413085938 C 54.81392669677734 282.8993835449219 53.7460823059082 282.52392578125 52.89627075195312 281.8426513671875 C 52.04645919799805 281.1613464355469 51.44767761230469 280.2007751464844 51.21030044555664 279.1377868652344 C 50.97292709350586 278.0747985839844 51.10611343383789 276.9507446289062 51.58533477783203 275.9726257324219 C 52.06455230712891 274.9945373535156 52.87123870849609 274.2004699707031 53.85673904418945 273.7366638183594 C 67.99801635742188 267.0858459472656 79.57170104980469 249.4381713867188 85.63284301757812 238.5946044921875 C 78.06854248046875 234.8985290527344 71.13877868652344 230.6055755615234 65.01648712158203 225.8211669921875 C 58.57120895385742 220.7843627929688 53.01033401489258 215.1957244873047 48.48836517333984 209.2105712890625 C 43.94849014282227 203.2016296386719 40.45402145385742 196.7909851074219 38.10211563110352 190.1566619873047 C 35.7119255065918 183.4143218994141 34.4999885559082 176.4341735839844 34.4999885559082 169.4101104736328 C 34.4999885559082 146.620849609375 47.08239364624023 125.3160705566406 69.92939758300781 109.4202651977539 C 92.24486541748047 93.89444732666016 121.8267364501953 85.34400939941406 153.2257080078125 85.34400939941406 C 184.6279296875 85.34400939941406 214.2112121582031 93.89444732666016 236.5259857177734 109.420295715332 C 259.3704223632812 125.314826965332 271.951416015625 146.6195983886719 271.951416015625 169.4101104736328 C 271.951416015625 192.2042236328125 259.3701782226562 213.5102233886719 236.5252990722656 229.4032897949219 C 214.2140197753906 244.926513671875 184.6309509277344 253.4755401611328 153.2257080078125 253.4755401611328 C 144.2310485839844 253.4755401611328 135.286865234375 252.7668914794922 126.6266708374023 251.3685607910156 C 119.4495544433594 258.2369384765625 111.4311752319336 264.1469116210938 102.7840194702148 268.9405212402344 C 95.64564514160156 272.8977355957031 88.05545806884766 276.1123046875 80.22420501708984 278.4949951171875 C 66.82158660888672 282.57275390625 57.19981384277344 282.8758239746094 56.01197814941406 282.8977966308594 C 55.96497344970703 282.8998413085938 55.92705535888672 282.8998413085938 55.90377044677734 282.8998413085938 Z M 153.2257080078125 94.96578979492188 C 124.0296173095703 94.96578979492188 96.56895446777344 102.7807312011719 75.90226745605469 116.9710464477539 C 55.40789413452148 131.0430145263672 44.12111282348633 149.6662292480469 44.12111282348633 169.4101104736328 C 44.12111282348633 194.7405700683594 62.85292816162109 218.1314544677734 94.22870635986328 231.9806976318359 C 95.43889617919922 232.5147552490234 96.38492584228516 233.5367889404297 96.82411193847656 234.78466796875 C 97.26329803466797 236.0324859619141 97.16592407226562 237.4217376708984 96.55693054199219 238.5961608886719 C 93.10148620605469 245.2602233886719 89.41452026367188 251.3949737548828 85.59842681884766 256.8299560546875 C 82.10676574707031 261.8028564453125 78.50019836425781 266.1947937011719 74.83242797851562 269.9443969726562 C 88.3094482421875 266.1990356445312 105.8835601806641 258.5252685546875 121.6165237426758 242.8126068115234 C 122.5239562988281 241.9054107666016 123.73095703125 241.4055480957031 125.0146789550781 241.4055480957031 C 125.2966156005859 241.4055480957031 125.5804595947266 241.4306335449219 125.858268737793 241.4801635742188 C 134.7281494140625 243.0555419921875 143.9364013671875 243.8544158935547 153.2263641357422 243.8544158935547 C 182.4226837158203 243.8544158935547 209.8834228515625 236.0394744873047 230.550048828125 221.8491668701172 C 251.0442657470703 207.7772369384766 262.3309631347656 189.1540069580078 262.3309631347656 169.4101104736328 C 262.3309631347656 149.6662292480469 251.0441741943359 131.0430145263672 230.5497131347656 116.9710464477539 C 209.8829650878906 102.7807312011719 182.4220886230469 94.96578979492188 153.2257080078125 94.96578979492188 Z" stroke="none"/>
        <path d="M 55.90377044677734 281.3998413085938 C 55.92233276367188 281.3998413085938 55.94086456298828 281.3998413085938 55.95939636230469 281.3984985351562 C 57.53852081298828 281.3720092773438 94.53276824951172 280.3993835449219 126.1274566650391 249.7667236328125 C 134.9394836425781 251.2326354980469 144.0468292236328 251.9755401611328 153.2257080078125 251.9755401611328 C 184.3264923095703 251.9755401611328 213.6057739257812 243.5223541259766 235.6686706542969 228.1719512939453 C 258.0990600585938 212.5672607421875 270.451416015625 191.6987915039062 270.451416015625 169.4101104736328 C 270.451416015625 147.1253509521484 258.0990600585938 126.2575759887695 235.6692962646484 110.6515731811523 C 213.6037750244141 95.29917144775391 184.3251495361328 86.84400939941406 153.2257080078125 86.84400939941406 C 122.130241394043 86.84400939941406 92.85230255126953 95.29917144775391 70.78607940673828 110.6515731811523 C 48.35370635986328 126.2588882446289 35.9999885559082 147.1260375976562 35.9999885559082 169.4101104736328 C 35.9999885559082 197.1453552246094 55.25620651245117 222.5578918457031 87.71298980712891 237.9308166503906 C 81.14151763916016 249.9746704101562 69.27183532714844 268.1443481445312 54.49545669555664 275.0938720703125 C 53.09317779541016 275.7538146972656 52.33645629882812 277.2982788085938 52.67424011230469 278.8108520507812 C 53.01202011108398 280.3233642578125 54.35395812988281 281.399169921875 55.90377044677734 281.3998413085938 M 153.2257080078125 93.46578979492188 C 214.2135467529297 93.46578979492188 263.8309631347656 127.5341339111328 263.8309631347656 169.4101104736328 C 263.8309631347656 211.2860412597656 214.2142028808594 245.3544158935547 153.2263641357422 245.3544158935547 C 143.8462066650391 245.3544158935547 134.5494842529297 244.5472869873047 125.595085144043 242.9568939208984 C 124.5307846069336 242.7671203613281 123.4410095214844 243.1096343994141 122.6764907836914 243.8739471435547 C 104.1777420043945 262.3488464355469 83.12255096435547 269.7896728515625 69.67173767089844 272.7804565429688 C 80.67539215087891 263.1116027832031 89.34774017333984 249.2410125732422 95.22530364990234 237.9056701660156 C 95.64608001708984 237.0941925048828 95.712646484375 236.1448516845703 95.4091796875 235.2826385498047 C 95.10570526123047 234.4203796386719 94.45927429199219 233.7220153808594 93.62298583984375 233.3529510498047 C 61.68733215332031 219.2565765380859 42.62111282348633 195.3523254394531 42.62111282348633 169.4101104736328 C 42.62111282348633 127.5341339111328 92.23851776123047 93.46578979492188 153.2257080078125 93.46578979492188 M 55.90377044677734 284.3998413085938 L 55.90242767333984 284.3998413085938 C 54.4736442565918 284.3992309570312 53.07283401489258 283.9067077636719 51.9580192565918 283.0129699707031 C 50.84323883056641 282.1192932128906 50.05776977539062 280.8591613769531 49.74636459350586 279.4647216796875 C 49.43495941162109 278.0702514648438 49.60967636108398 276.595703125 50.23833465576172 275.3126525878906 C 50.86698913574219 274.0295715332031 51.92520904541016 272.9878845214844 53.21799087524414 272.3794555664062 C 66.41168975830078 266.1742858886719 77.40113067626953 249.9735717773438 83.54769897460938 239.2345123291016 C 76.44300842285156 235.6555480957031 69.91016387939453 231.5491638183594 64.09286499023438 227.0030670166016 C 57.54486465454102 221.8860168457031 51.89208221435547 216.2039489746094 47.29155349731445 210.1147918701172 C 42.65901947021484 203.9832611083984 39.09158325195312 197.43701171875 36.68833160400391 190.6578521728516 C 34.24092864990234 183.7541656494141 32.9999885559082 176.6053924560547 32.9999885559082 169.4101104736328 C 32.9999885559082 163.6107940673828 33.80545806884766 157.8225708007812 35.39402008056641 152.2062683105469 C 36.96614456176758 146.6479797363281 39.32311248779297 141.1950073242188 42.39936447143555 135.9987640380859 C 45.46061325073242 130.827880859375 49.26989364624023 125.8512954711914 53.72136306762695 121.2072906494141 C 58.1849250793457 116.5506362915039 63.34989547729492 112.1706390380859 69.07273864746094 108.1889801025391 C 91.63723754882812 92.48988342285156 121.5233306884766 83.84400939941406 153.2257080078125 83.84400939941406 C 184.9313354492188 83.84400939941406 214.8188629150391 92.48988342285156 237.3826751708984 108.1889801025391 C 243.1048889160156 112.1703567504883 248.2692718505859 116.5501327514648 252.7323913574219 121.2067337036133 C 257.183349609375 125.8506393432617 260.9922180175781 130.8271636962891 264.0531005859375 135.9981384277344 C 267.1290588378906 141.1944122314453 269.4857177734375 146.6474761962891 271.0576782226562 152.2058868408203 C 272.6460571289062 157.8223266601562 273.451416015625 163.6106414794922 273.451416015625 169.4101104736328 C 273.451416015625 175.2105102539062 272.6460571289062 180.9996032714844 271.0577087402344 186.6166076660156 C 269.4857177734375 192.1755981445312 267.1290283203125 197.6291351318359 264.0530700683594 202.8256683349609 C 260.9921264648438 207.9968872070312 257.1831665039062 212.9735412597656 252.7320861816406 217.6174163818359 C 248.2688598632812 222.2739562988281 243.1043395996094 226.6535797119141 237.3819274902344 230.6345977783203 C 214.8216400146484 246.3310699462891 184.9343566894531 254.9755401611328 153.2257080078125 254.9755401611328 C 144.4058074951172 254.9755401611328 135.6323547363281 254.2998962402344 127.1231079101562 252.9664001464844 C 119.9917373657227 259.7048950195312 112.0544738769531 265.5164489746094 103.5112686157227 270.2524108886719 C 96.28079986572266 274.2607116699219 88.59280395507812 277.5166931152344 80.66083526611328 279.9300537109375 C 67.13284301757812 284.0459289550781 57.34878540039062 284.3719787597656 56.05671310424805 284.397216796875 C 55.98673248291016 284.3998413085938 55.93252182006836 284.3998413085938 55.90377044677734 284.3998413085938 Z M 153.2257080078125 96.46578979492188 C 124.3297424316406 96.46578979492188 97.17061614990234 104.1871643066406 76.75133514404297 118.2076034545898 C 56.67670822143555 131.9913482666016 45.62111282348633 150.1754455566406 45.62111282348633 169.4101104736328 C 45.62111282348633 194.1284790039062 64.01861572265625 217.00634765625 94.83442687988281 230.6084136962891 C 96.42189788818359 231.3089752197266 97.66289520263672 232.6497039794922 98.23902130126953 234.2866668701172 C 98.81517791748047 235.9235992431641 98.68742370605469 237.7460479736328 97.8885498046875 239.2866668701172 C 94.40242767333984 246.0099182128906 90.68045806884766 252.2023620605469 86.82601928710938 257.69189453125 C 84.48770141601562 261.0221862792969 82.09635162353516 264.0976257324219 79.66822052001953 266.8995666503906 C 92.08438110351562 262.7606811523438 107.0127563476562 255.2775726318359 120.5565490722656 241.7512664794922 C 121.7467422485352 240.5614166259766 123.3303985595703 239.9055480957031 125.0146789550781 239.9055480957031 C 125.3847045898438 239.9055480957031 125.7571105957031 239.9384765625 126.1215209960938 240.0034484863281 C 134.9041137695312 241.5633239746094 144.0241088867188 242.3544158935547 153.2263641357422 242.3544158935547 C 182.1225891113281 242.3544158935547 209.2817687988281 234.6330413818359 229.7009887695312 220.6126098632812 C 249.7754516601562 206.8288879394531 260.8309631347656 188.6448211669922 260.8309631347656 169.4101104736328 C 260.8309631347656 150.1754150390625 249.7753295898438 131.9913482666016 229.7006530761719 118.2076034545898 C 209.2812957763672 104.1871643066406 182.1219635009766 96.46578979492188 153.2257080078125 96.46578979492188 Z" stroke="none" fill="#0055a6"/>
      </g>
      <g id="Path_940" data-name="Path 940" transform="translate(-28.401 -25.336)" fill="#0055a6">
        <path d="M 339.3715515136719 337.6804809570312 L 339.36279296875 337.6804809570312 L 339.3540954589844 337.6803894042969 L 339.2977600097656 337.6797180175781 L 339.2941589355469 337.6796569824219 L 339.29052734375 337.6795959472656 C 338.4521789550781 337.6658020019531 330.7909851074219 337.4509887695312 320.0819396972656 334.2105102539062 C 313.8811950683594 332.3341979980469 307.8687133789062 329.8027038574219 302.2115173339844 326.6863098144531 C 295.4026489257812 322.9354858398438 289.0819091796875 318.3170166015625 283.4140625 312.9523620605469 C 276.7031555175781 314.0110473632812 269.7831726074219 314.5475463867188 262.8326416015625 314.5475463867188 C 244.8500518798828 314.5475463867188 227.3722381591797 310.9615783691406 212.2887420654297 304.1773071289062 C 197.3819580078125 297.4726257324219 185.4582366943359 287.9725036621094 177.8066558837891 276.7039489746094 C 177.084716796875 275.6412963867188 176.8198699951172 274.3607788085938 177.0611114501953 273.0985717773438 C 177.3023071289062 271.8364868164062 178.0206146240234 270.7438659667969 179.0836791992188 270.0220031738281 C 179.8844299316406 269.4783020019531 180.81787109375 269.1908874511719 181.7830810546875 269.1908874511719 C 183.3804626464844 269.1908874511719 184.8693389892578 269.9790954589844 185.765869140625 271.2994079589844 C 199.6377105712891 291.7269897460938 229.8882446289062 304.9263916015625 262.8326416015625 304.9263916015625 C 270.0805053710938 304.9263916015625 277.26171875 304.3015747070312 284.1768493652344 303.0692749023438 C 284.4549865722656 303.0198974609375 284.7381286621094 302.9949340820312 285.0193786621094 302.9949340820312 C 286.3031005859375 302.9949340820312 287.5105895996094 303.4943542480469 288.41943359375 304.4011535644531 C 299.3895874023438 315.357666015625 311.5490417480469 321.2346496582031 321.150146484375 324.3802795410156 C 318.8504028320312 321.7627868652344 316.5890502929688 318.8294067382812 314.3929138183594 315.6125183105469 C 311.6456909179688 311.5884094238281 308.9869384765625 307.1040649414062 306.4905700683594 302.2841491699219 C 305.8819580078125 301.1103515625 305.7847290039062 299.72119140625 306.2242126464844 298.4734497070312 C 306.6635437011719 297.2257690429688 307.60986328125 296.2040710449219 308.8204345703125 295.67041015625 C 333.10888671875 284.949951171875 347.60986328125 266.9062194824219 347.60986328125 247.4037628173828 C 347.60986328125 236.0336303710938 342.5460815429688 224.9390411376953 332.9659423828125 215.3193206787109 C 323.2853393554688 205.5987548828125 309.8171997070312 198.2006378173828 294.0176086425781 193.9247589111328 C 292.7775573730469 193.589599609375 291.7420043945312 192.7912292480469 291.1020812988281 191.6768493652344 C 290.4622497558594 190.5625457763672 290.2946472167969 189.2657623291016 290.6301879882812 188.0253601074219 C 291.1964416503906 185.9320983886719 293.1051635742188 184.4701385498047 295.2718505859375 184.4701385498047 C 295.6952819824219 184.4701385498047 296.1185913085938 184.5265808105469 296.530029296875 184.6378479003906 C 313.9834289550781 189.3611602783203 328.9405212402344 197.5813903808594 339.7845458984375 208.4098815917969 C 351.1981201171875 219.8071746826172 357.2309875488281 233.2910461425781 357.2309875488281 247.4037628173828 C 357.2309875488281 252.9843597412109 356.279296875 258.5300903320312 354.40234375 263.8869323730469 C 352.5562438964844 269.1556396484375 349.8130493164062 274.2486572265625 346.2489624023438 279.0244750976562 C 342.7022094726562 283.7770385742188 338.3396301269531 288.21923828125 333.2823486328125 292.2276611328125 C 328.5652160644531 295.9664916992188 323.2349243164062 299.3343200683594 317.419677734375 302.2515869140625 C 322.9005737304688 311.8941955566406 331.3020324707031 323.763916015625 341.4163513183594 328.5155029296875 C 342.4024963378906 328.9785766601562 343.2101440429688 329.7724304199219 343.6902160644531 330.750732421875 C 344.1702880859375 331.7290649414062 344.303955078125 332.8536376953125 344.0666809082031 333.9172973632812 C 343.8294372558594 334.9808959960938 343.2304992675781 335.9420166015625 342.3801574707031 336.6235656738281 C 341.5298156738281 337.3051452636719 340.4613342285156 337.6804809570312 339.3715515136719 337.6804809570312 Z M 239.8904266357422 199.5565185546875 L 123.3665542602539 199.5564727783203 C 122.0816192626953 199.5565185546875 120.8735885620117 199.0561370849609 119.9649658203125 198.1475372314453 C 119.0563659667969 197.2389526367188 118.5559921264648 196.0308837890625 118.5559921264648 194.7459564208984 C 118.5559921264648 192.0933837890625 120.713996887207 189.9353790283203 123.3665542602539 189.9353790283203 L 239.8904266357422 189.9353485107422 C 242.5429992675781 189.9353790283203 244.7009887695312 192.0934143066406 244.7009887695312 194.7459564208984 C 244.7009887695312 197.3985137939453 242.5429992675781 199.5565185546875 239.8904266357422 199.5565185546875 Z M 239.8904266357422 169.9501342773438 L 123.3665542602539 169.9501342773438 C 120.713996887207 169.9501342773438 118.5559921264648 167.7921295166016 118.5559921264648 165.1395721435547 C 118.5559921264648 162.4870147705078 120.713996887207 160.3290100097656 123.3665542602539 160.3290100097656 L 239.8904266357422 160.3290100097656 C 242.5429992675781 160.3290100097656 244.7009887695312 162.4870147705078 244.7009887695312 165.1395721435547 C 244.7009887695312 167.7921295166016 242.5429992675781 169.9501342773438 239.8904266357422 169.9501342773438 Z" stroke="none"/>
        <path d="M 339.3715515136719 336.1805114746094 C 340.9222412109375 336.1805114746094 342.2651062011719 335.1041259765625 342.6026916503906 333.5906982421875 C 342.9403381347656 332.0772399902344 342.1821899414062 330.5322265625 340.7785339355469 329.8731689453125 C 329.5881652832031 324.6160278320312 320.5205383300781 310.985107421875 315.3374938964844 301.6043090820312 C 340.704345703125 289.3657836914062 355.7309875488281 269.304443359375 355.7309875488281 247.4037628173828 C 355.7309875488281 233.6973266601562 349.8501281738281 220.5809020996094 338.7246704101562 209.4712982177734 C 328.0653076171875 198.8271942138672 313.3392333984375 190.7407989501953 296.1383361816406 186.0858306884766 C 294.373291015625 185.6083831787109 292.5555725097656 186.6520843505859 292.0781555175781 188.4170227050781 C 291.6007080078125 190.1819610595703 292.6444396972656 191.9998016357422 294.4094543457031 192.4768676757812 C 327.1271057128906 201.331298828125 349.10986328125 223.4041290283203 349.10986328125 247.4037628173828 C 349.10986328125 267.5187377929688 334.2745666503906 286.0750732421875 309.4255065917969 297.04296875 C 308.5892028808594 297.41162109375 307.9425964355469 298.1097106933594 307.6390075683594 298.9717407226562 C 307.3354187011719 299.833740234375 307.4018249511719 300.782958984375 307.8225402832031 301.5942993164062 C 312.1083984375 309.869384765625 318.2792663574219 319.8514099121094 326.068359375 327.3776245117188 C 315.5990295410156 324.692138671875 300.6346740722656 318.72119140625 287.3599243164062 305.4630432128906 C 286.5945434570312 304.6992797851562 285.504638671875 304.3569641113281 284.4400024414062 304.5460205078125 C 277.4361877441406 305.7940979003906 270.1661987304688 306.4263916015625 262.8326416015625 306.4263916015625 C 229.4058990478516 306.4263916015625 198.6679534912109 292.9689636230469 184.5248870849609 272.1420288085938 C 183.497802734375 270.6294250488281 181.4389495849609 270.2358093261719 179.9263305664062 271.262939453125 C 178.4137268066406 272.2900695800781 178.0201568603516 274.3489379882812 179.0475921630859 275.861328125 C 186.5440216064453 286.9013671875 198.2521667480469 296.2192993164062 212.904052734375 302.8092956542969 C 227.7956237792969 309.5072631835938 245.0608673095703 313.0475769042969 262.8326416015625 313.0475769042969 C 269.9668884277344 313.0475769042969 277.0494995117188 312.4774780273438 283.9109802246094 311.3532104492188 C 308.9017639160156 335.3958740234375 338.0664978027344 336.1592407226562 339.3152465820312 336.1798400878906 L 339.3715515136719 336.1805114746094 M 239.8904266357422 198.0565032958984 C 241.7188262939453 198.0565032958984 243.2009887695312 196.5742950439453 243.2009887695312 194.7459259033203 C 243.2009887695312 192.9175567626953 241.7188262939453 191.4353942871094 239.8904266357422 191.4353637695312 L 123.3665618896484 191.4353942871094 C 121.5381927490234 191.4353942871094 120.0559921264648 192.9175567626953 120.0559921264648 194.7459259033203 C 120.0559921264648 196.5742950439453 121.5381927490234 198.0565032958984 123.3665618896484 198.0565032958984 L 239.8904266357422 198.0565032958984 M 239.8904266357422 168.4501342773438 C 241.7188262939453 168.4501342773438 243.2009887695312 166.9679260253906 243.2009887695312 165.1395568847656 C 243.2009887695312 163.3112030029297 241.7188262939453 161.8289947509766 239.8904266357422 161.8289947509766 L 123.3665618896484 161.8289947509766 C 121.5381927490234 161.8289947509766 120.0559921264648 163.3112030029297 120.0559921264648 165.1395568847656 C 120.0559921264648 166.9679260253906 121.5381927490234 168.4501342773438 123.3665618896484 168.4501342773438 L 239.8904266357422 168.4501342773438 M 339.3715515136719 339.1805114746094 L 339.2658081054688 339.179443359375 C 338.4060363769531 339.1652221679688 330.5512390136719 338.9455871582031 319.6474914550781 335.6462097167969 C 313.3464965820312 333.7395629882812 307.2366943359375 331.1670532226562 301.4877624511719 328.0001220703125 C 294.7818298339844 324.3059997558594 288.5420837402344 319.7841491699219 282.9205932617188 314.546630859375 C 276.3602905273438 315.5429077148438 269.6102905273438 316.0475769042969 262.8326416015625 316.0475769042969 C 244.6394958496094 316.0475769042969 226.9489593505859 312.4159240722656 211.6734619140625 305.5452880859375 C 196.5133972167969 298.7267150878906 184.3733215332031 289.044921875 176.5656890869141 277.5466003417969 C 175.6187591552734 276.1527099609375 175.2713317871094 274.4728393554688 175.5877990722656 272.8169860839844 C 175.9041900634766 271.161376953125 176.8464660644531 269.72802734375 178.2409973144531 268.7810668945312 C 179.2913665771484 268.0678405761719 180.5161590576172 267.6908569335938 181.7830657958984 267.6908569335938 C 183.8780212402344 267.6908569335938 185.8308258056641 268.724853515625 187.0068206787109 270.456787109375 C 200.6074981689453 290.4849853515625 230.3709259033203 303.4263916015625 262.8326416015625 303.4263916015625 C 269.9924011230469 303.4263916015625 277.0850830078125 302.8093872070312 283.9136962890625 301.5925598144531 C 284.279052734375 301.5277099609375 284.6504211425781 301.4949645996094 285.0193786621094 301.4949645996094 C 286.7031555175781 301.4949645996094 288.2869262695312 302.1499938964844 289.4789123535156 303.3393859863281 C 298.3851013183594 312.2344665527344 308.0901794433594 317.71923828125 316.5147705078125 321.0980529785156 C 315.3799743652344 319.6241455078125 314.258544921875 318.0761108398438 313.154052734375 316.458251953125 C 310.372802734375 312.3843078613281 307.6827392578125 307.8475341796875 305.1586303710938 302.9739990234375 C 304.3603820800781 301.4346313476562 304.2328491210938 299.6121520996094 304.809326171875 297.9752197265625 C 305.3858642578125 296.3382568359375 306.6272888183594 294.9979248046875 308.2153625488281 294.2978515625 C 331.9432373046875 283.8248291015625 346.10986328125 266.2941284179688 346.10986328125 247.4037628173828 C 346.10986328125 236.4389343261719 341.1972351074219 225.7103271484375 331.9031066894531 216.3777923583984 C 322.4078674316406 206.8433990478516 309.1717834472656 199.5799255371094 293.6257629394531 195.3726959228516 C 291.9992980957031 194.9330596923828 290.6407165527344 193.8856964111328 289.80126953125 192.4237670898438 C 288.9618835449219 190.9619903564453 288.7420654296875 189.2608032226562 289.1822509765625 187.6335906982422 C 289.9249267578125 184.8878631591797 292.4291076660156 182.9701232910156 295.2718200683594 182.9701232910156 C 295.8274841308594 182.9701232910156 296.3825988769531 183.0440673828125 296.9217224121094 183.1899261474609 C 314.62744140625 187.9814910888672 329.8155517578125 196.3353576660156 340.8444519042969 207.3484649658203 C 352.5459289550781 219.0332336425781 358.7309875488281 232.8841247558594 358.7309875488281 247.4037628173828 C 358.7309875488281 253.1537017822266 357.7508850097656 258.8663024902344 355.8179626464844 264.3829345703125 C 353.9214172363281 269.7955932617188 351.1064147949219 275.0235595703125 347.4510803222656 279.9216003417969 C 343.8267211914062 284.7782287597656 339.3731384277344 289.3140869140625 334.2140808105469 293.4031982421875 C 329.8030090332031 296.8994445800781 324.8678588867188 300.0751037597656 319.5099792480469 302.8673706054688 C 324.2578735351562 310.948486328125 332.4237060546875 322.6335754394531 342.0541687011719 327.1578674316406 C 343.3475952148438 327.7651977539062 344.4071044921875 328.8066101074219 345.0368347167969 330.0899658203125 C 345.6665954589844 331.3733520507812 345.8419799804688 332.8486022949219 345.5307312011719 334.243896484375 C 345.219482421875 335.6391296386719 344.4337463378906 336.8999328613281 343.3182983398438 337.7940063476562 C 342.2027893066406 338.6881103515625 340.8011474609375 339.1805114746094 339.3715515136719 339.1805114746094 Z M 239.8904266357422 201.0565032958984 L 123.3665618896484 201.0565032958984 C 119.8868942260742 201.0565032958984 117.0559921264648 198.2256011962891 117.0559921264648 194.7459259033203 C 117.0559921264648 191.2662963867188 119.8868942260742 188.4353942871094 123.3665618896484 188.4353942871094 L 239.8904266357422 188.4353637695312 C 243.3700866699219 188.4354248046875 246.2009887695312 191.2663269042969 246.2009887695312 194.7459259033203 C 246.2009887695312 198.2256011962891 243.3700866699219 201.0565032958984 239.8904266357422 201.0565032958984 Z M 239.8904266357422 171.4501342773438 L 123.3665618896484 171.4501342773438 C 119.8868942260742 171.4501342773438 117.0559921264648 168.6192321777344 117.0559921264648 165.1395568847656 C 117.0559921264648 161.6598968505859 119.8868942260742 158.8289947509766 123.3665618896484 158.8289947509766 L 239.8904266357422 158.8289947509766 C 243.3700866699219 158.8289947509766 246.2009887695312 161.6598968505859 246.2009887695312 165.1395568847656 C 246.2009887695312 168.6192321777344 243.3700866699219 171.4501342773438 239.8904266357422 171.4501342773438 Z" stroke="none" fill="#0055a6"/>
      </g>
      <g id="Path_941" data-name="Path 941" transform="translate(-28.4 -55.554)" fill="#0055a6">
        <path d="M 239.8890838623047 259.3821105957031 L 123.3625717163086 259.3821105957031 C 120.7100219726562 259.3821105957031 118.5520095825195 257.2240905761719 118.5520095825195 254.5715484619141 C 118.5520095825195 251.9189910888672 120.7100219726562 249.760986328125 123.3625717163086 249.760986328125 L 239.8890838623047 249.760986328125 C 242.5416412353516 249.760986328125 244.6996459960938 251.9189910888672 244.6996459960938 254.5715484619141 C 244.6996459960938 257.2240905761719 242.5416412353516 259.3821105957031 239.8890838623047 259.3821105957031 Z" stroke="none"/>
        <path d="M 239.8890838623047 257.8821105957031 C 241.7174530029297 257.8821105957031 243.1996459960938 256.39990234375 243.1996459960938 254.5715484619141 C 243.1996459960938 252.7431640625 241.7174530029297 251.260986328125 239.8890838623047 251.260986328125 L 123.3625717163086 251.260986328125 C 121.5342025756836 251.260986328125 120.0520095825195 252.7431640625 120.0520095825195 254.5715484619141 C 120.0520095825195 256.39990234375 121.5342025756836 257.8821105957031 123.3625717163086 257.8821105957031 L 239.8890838623047 257.8821105957031 M 239.8890838623047 260.8821105957031 L 123.3625717163086 260.8821105957031 C 119.8829116821289 260.8821105957031 117.0520095825195 258.0512084960938 117.0520095825195 254.5715484619141 C 117.0520095825195 251.0918884277344 119.8829116821289 248.260986328125 123.3625717163086 248.260986328125 L 239.8890838623047 248.260986328125 C 243.3687286376953 248.260986328125 246.1996459960938 251.0918884277344 246.1996459960938 254.5715484619141 C 246.1996459960938 258.0512084960938 243.3687286376953 260.8821105957031 239.8890838623047 260.8821105957031 Z" stroke="none" fill="#0055a6"/>
      </g>
    </g>
  </g>
</svg>
