<svg xmlns="http://www.w3.org/2000/svg" width="416" height="416" viewBox="0 0 416 416">
  <g id="no-favourites" transform="translate(-17 -17)">
    <g id="Intersection_5" data-name="Intersection 5" transform="translate(-16652.719 -6059)" fill="#0055a6">
      <path d="M 16878.12109375 6394.998046875 C 16876.490234375 6394.998046875 16874.96484375 6394.30517578125 16873.931640625 6393.0966796875 C 16852.544921875 6370.34716796875 16831.033203125 6354.1865234375 16812.05078125 6339.92724609375 L 16811.740234375 6339.69384765625 L 16811.646484375 6339.623046875 C 16802.74609375 6332.93408203125 16794.33984375 6326.61669921875 16786.697265625 6320.15869140625 C 16778.11328125 6312.904296875 16771.66015625 6306.45703125 16766.388671875 6299.86865234375 C 16760.2421875 6292.18603515625 16755.76953125 6284.3388671875 16752.712890625 6275.87841796875 C 16751.078125 6271.35302734375 16749.83203125 6266.56005859375 16749.0078125 6261.63427734375 C 16748.154296875 6256.5283203125 16747.720703125 6251.0830078125 16747.720703125 6245.44921875 C 16747.720703125 6205.5 16778.30078125 6172.9990234375 16815.88671875 6172.9990234375 C 16819.83203125 6172.9990234375 16823.63671875 6173.25830078125 16827.197265625 6173.76904296875 C 16830.69921875 6174.27197265625 16834.083984375 6175.03564453125 16837.25390625 6176.0400390625 C 16843.44921875 6178.00146484375 16848.974609375 6180.87353515625 16854.146484375 6184.8203125 C 16858.970703125 6188.5009765625 16863.390625 6193.048828125 16867.658203125 6198.72314453125 C 16871.1875 6203.41455078125 16874.619140625 6208.896484375 16878.119140625 6215.4384765625 C 16881.595703125 6208.92529296875 16885.015625 6203.45751953125 16888.54296875 6198.76708984375 C 16892.80859375 6193.09619140625 16897.23046875 6188.546875 16902.0625 6184.85888671875 C 16907.244140625 6180.90380859375 16912.77734375 6178.02392578125 16918.978515625 6176.0546875 C 16922.154296875 6175.04638671875 16925.541015625 6174.27880859375 16929.046875 6173.7734375 C 16932.609375 6173.259765625 16936.416015625 6172.9990234375 16940.361328125 6172.9990234375 C 16977.9453125 6172.9990234375 17008.521484375 6205.5 17008.521484375 6245.44921875 C 17008.521484375 6251.08349609375 17008.087890625 6256.529296875 17007.234375 6261.6357421875 C 17006.41015625 6266.56201171875 17005.1640625 6271.35498046875 17003.529296875 6275.88134765625 C 17000.47265625 6284.341796875 16996 6292.189453125 16989.853515625 6299.87255859375 C 16984.58203125 6306.46142578125 16978.126953125 6312.90966796875 16969.54296875 6320.16455078125 C 16961.900390625 6326.62255859375 16953.4921875 6332.94140625 16944.591796875 6339.630859375 L 16944.5078125 6339.69384765625 C 16925.53515625 6353.9462890625 16904.033203125 6370.09912109375 16882.314453125 6393.09912109375 C 16881.2578125 6394.32373046875 16879.76953125 6394.998046875 16878.12109375 6394.998046875 Z M 16815.88671875 6185.4765625 C 16784.833984375 6185.4765625 16759.572265625 6212.38037109375 16759.572265625 6245.44921875 C 16759.572265625 6285.27734375 16784.353515625 6303.8291015625 16818.65234375 6329.505859375 L 16818.884765625 6329.68017578125 C 16836.962890625 6343.255859375 16857.42578125 6358.6201171875 16878.12109375 6379.89013671875 C 16898.830078125 6358.6083984375 16919.3046875 6343.23828125 16937.39453125 6329.65771484375 L 16937.595703125 6329.5068359375 L 16937.779296875 6329.36767578125 C 16971.96875 6303.67041015625 16996.671875 6285.103515625 16996.671875 6245.44921875 C 16996.671875 6212.38037109375 16971.41015625 6185.4765625 16940.361328125 6185.4765625 C 16914.318359375 6185.4765625 16899.427734375 6197.5517578125 16883.462890625 6231.61474609375 C 16883.001953125 6232.6572265625 16882.251953125 6233.54052734375 16881.294921875 6234.169921875 C 16880.337890625 6234.79931640625 16879.240234375 6235.1318359375 16878.12109375 6235.1318359375 C 16875.90625 6235.1318359375 16873.865234375 6233.7958984375 16872.796875 6231.64599609375 L 16872.79296875 6231.63671875 L 16872.7890625 6231.62744140625 C 16856.7265625 6197.5537109375 16841.8359375 6185.4765625 16815.88671875 6185.4765625 Z" stroke="none"/>
      <path d="M 16878.12109375 6393.998046875 C 16879.302734375 6393.998046875 16880.5859375 6393.5830078125 16881.5703125 6392.4296875 C 16903.236328125 6369.484375 16924.802734375 6353.24609375 16943.90625 6338.89453125 C 16979.455078125 6312.1796875 17007.521484375 6291.1240234375 17007.521484375 6245.44921875 C 17007.521484375 6206.0556640625 16977.388671875 6173.9990234375 16940.361328125 6173.9990234375 C 16908.751953125 6173.9990234375 16892.205078125 6190.5517578125 16878.12109375 6217.580078125 C 16863.94140625 6190.4482421875 16847.49609375 6173.9990234375 16815.88671875 6173.9990234375 C 16778.853515625 6173.9990234375 16748.720703125 6206.0556640625 16748.720703125 6245.44921875 C 16748.720703125 6291.1240234375 16776.79296875 6312.1796875 16812.341796875 6338.89453125 C 16831.4453125 6353.24609375 16853.109375 6369.484375 16874.677734375 6392.4296875 C 16875.5625 6393.4755859375 16876.841796875 6393.998046875 16878.12109375 6393.998046875 M 16815.88671875 6184.4765625 C 16842.27734375 6184.4765625 16857.4453125 6196.7333984375 16873.693359375 6231.201171875 C 16874.578125 6232.982421875 16876.25 6234.1318359375 16878.12109375 6234.1318359375 C 16879.994140625 6234.1318359375 16881.767578125 6232.982421875 16882.552734375 6231.201171875 C 16898.705078125 6196.7333984375 16913.869140625 6184.4765625 16940.361328125 6184.4765625 C 16971.970703125 6184.4765625 16997.671875 6211.818359375 16997.671875 6245.44921875 C 16997.671875 6285.6748046875 16972.763671875 6304.32421875 16938.1953125 6330.306640625 C 16919.77734375 6344.1337890625 16899.095703125 6359.638671875 16878.12109375 6381.326171875 C 16857.1484375 6359.638671875 16836.466796875 6344.1337890625 16818.052734375 6330.306640625 C 16783.484375 6304.427734375 16758.572265625 6285.6748046875 16758.572265625 6245.44921875 C 16758.572265625 6211.818359375 16784.271484375 6184.4765625 16815.88671875 6184.4765625 M 16878.12109375 6395.998046875 C 16876.205078125 6395.998046875 16874.412109375 6395.18505859375 16873.1875 6393.76513671875 C 16851.865234375 6371.0869140625 16830.39453125 6354.95849609375 16811.451171875 6340.7265625 L 16811.044921875 6340.42236328125 C 16802.1328125 6333.72509765625 16793.71484375 6327.39892578125 16786.052734375 6320.92236328125 C 16777.41796875 6313.62548828125 16770.919921875 6307.1337890625 16765.607421875 6300.4931640625 C 16759.392578125 6292.7236328125 16754.8671875 6284.783203125 16751.7734375 6276.21826171875 C 16750.1171875 6271.63623046875 16748.85546875 6266.78466796875 16748.021484375 6261.798828125 C 16747.158203125 6256.638671875 16746.720703125 6251.13818359375 16746.720703125 6245.44921875 C 16746.720703125 6204.94873046875 16777.748046875 6171.9990234375 16815.88671875 6171.9990234375 C 16819.87890625 6171.9990234375 16823.732421875 6172.26171875 16827.337890625 6172.779296875 C 16830.896484375 6173.28955078125 16834.333984375 6174.06591796875 16837.556640625 6175.08642578125 C 16843.861328125 6177.08349609375 16849.486328125 6180.00732421875 16854.75390625 6184.02490234375 C 16859.65234375 6187.76220703125 16864.134765625 6192.37353515625 16868.458984375 6198.1220703125 C 16871.720703125 6202.458984375 16874.8984375 6207.4609375 16878.119140625 6213.3369140625 C 16881.318359375 6207.48779296875 16884.484375 6202.50048828125 16887.744140625 6198.166015625 C 16892.064453125 6192.4208984375 16896.55078125 6187.80859375 16901.455078125 6184.06396484375 C 16904.03125 6182.09912109375 16906.7578125 6180.3583984375 16909.5625 6178.8896484375 C 16912.4453125 6177.380859375 16915.51171875 6176.1064453125 16918.67578125 6175.1015625 C 16921.904296875 6174.07666015625 16925.34375 6173.296875 16928.904296875 6172.78369140625 C 16932.513671875 6172.26318359375 16936.369140625 6171.9990234375 16940.361328125 6171.9990234375 C 16978.49609375 6171.9990234375 17009.521484375 6204.94873046875 17009.521484375 6245.44921875 C 17009.521484375 6251.138671875 17009.083984375 6256.6396484375 17008.220703125 6261.80029296875 C 17007.38671875 6266.78662109375 17006.125 6271.63818359375 17004.46875 6276.220703125 C 17001.375 6284.7861328125 16996.849609375 6292.72705078125 16990.6328125 6300.49755859375 C 16985.3203125 6307.13818359375 16978.82421875 6313.63037109375 16970.1875 6320.92822265625 C 16962.5234375 6327.40478515625 16954.10546875 6333.73193359375 16945.19140625 6340.43017578125 L 16945.107421875 6340.4931640625 C 16926.173828125 6354.71826171875 16904.712890625 6370.84033203125 16883.056640625 6393.76953125 C 16881.80859375 6395.20703125 16880.05859375 6395.998046875 16878.12109375 6395.998046875 Z M 16815.88671875 6186.4765625 C 16785.38671875 6186.4765625 16760.572265625 6212.931640625 16760.572265625 6245.44921875 C 16760.572265625 6284.77685546875 16785.185546875 6303.20263671875 16819.251953125 6328.70556640625 L 16819.484375 6328.880859375 C 16837.384765625 6342.3212890625 16857.6171875 6357.51416015625 16878.12109375 6378.45849609375 C 16898.638671875 6357.5029296875 16918.884765625 6342.3037109375 16936.79296875 6328.85791015625 L 16937.1796875 6328.568359375 C 16971.13671875 6303.044921875 16995.671875 6284.60400390625 16995.671875 6245.44921875 C 16995.671875 6212.931640625 16970.859375 6186.4765625 16940.361328125 6186.4765625 C 16914.7890625 6186.4765625 16900.13671875 6198.3974609375 16884.373046875 6232.03076171875 C 16883.83203125 6233.244140625 16882.958984375 6234.2724609375 16881.84375 6235.00537109375 C 16880.72265625 6235.7421875 16879.435546875 6236.1318359375 16878.12109375 6236.1318359375 C 16875.5234375 6236.1318359375 16873.140625 6234.58349609375 16871.90234375 6232.0908203125 L 16871.884765625 6232.05419921875 C 16856.021484375 6198.4033203125 16841.3671875 6186.4765625 16815.88671875 6186.4765625 Z" stroke="none" fill="#0055a6"/>
    </g>
    <g id="Group_1237" data-name="Group 1237">
      <path id="Path_943" data-name="Path 943" d="M225,433C110.31,433,17,339.69,17,225S110.31,17,225,17s208,93.31,208,208S339.69,433,225,433Zm0-400C119.13,33,33,119.13,33,225s86.13,192,192,192,192-86.13,192-192S330.87,33,225,33Z" fill="#0055a6"/>
      <path id="Path_944" data-name="Path 944" d="M366.42,374.42a7.98,7.98,0,0,1-5.66-2.34L77.92,89.24A8,8,0,0,1,89.23,77.93L372.07,360.77a7.995,7.995,0,0,1-5.65,13.65Z" fill="#0055a6"/>
    </g>
  </g>
</svg>
