<svg xmlns="http://www.w3.org/2000/svg" width="56.915" height="39.84" viewBox="0 0 56.915 39.84">
  <g id="office-1" transform="translate(0 -72)">
    <g id="Group_509" data-name="Group 509" transform="translate(0 72)">
      <g id="Group_508" data-name="Group 508" transform="translate(0 0)">
        <path id="Path_526" data-name="Path 526" d="M55.966,72H.949A.949.949,0,0,0,0,72.949v3.794a.949.949,0,0,0,.949.949H1.9v33.2a.949.949,0,0,0,.949.949H6.64a.949.949,0,0,0,.949-.949V89.074h26.56V111.84H55.018V77.691h.949a.949.949,0,0,0,.949-.949V72.949A.949.949,0,0,0,55.966,72ZM5.691,109.943h-1.9V77.691h1.9ZM34.149,87.177H7.589v-1.9h26.56Zm0-3.794H7.589V77.691h26.56Zm18.972,26.56H36.046v-1.9H53.121Zm0-3.794H36.046v-5.691H53.121Zm0-7.589H36.046V89.074H53.121Zm0-11.383H36.046V77.691H53.121Zm1.9-11.383H1.9V73.9H55.018Z" transform="translate(0 -72)" fill="#0055a6"/>
      </g>
    </g>
    <g id="Group_511" data-name="Group 511" transform="translate(42.401 79.049)">
      <g id="Group_510" data-name="Group 510" transform="translate(0 0)">
        <rect id="Rectangle_439" data-name="Rectangle 439" width="4" height="2" transform="translate(0.056 -0.129)" fill="#0055a6"/>
      </g>
    </g>
    <g id="Group_513" data-name="Group 513" transform="translate(18.804 79.049)">
      <g id="Group_512" data-name="Group 512" transform="translate(0 0)">
        <rect id="Rectangle_440" data-name="Rectangle 440" width="5" height="2" transform="translate(-0.347 -0.129)" fill="#0055a6"/>
      </g>
    </g>
    <g id="Group_515" data-name="Group 515" transform="translate(42.401 90.848)">
      <g id="Group_514" data-name="Group 514" transform="translate(0 0)">
        <rect id="Rectangle_441" data-name="Rectangle 441" width="4" height="2" transform="translate(0.056 0.073)" fill="#0055a6"/>
      </g>
    </g>
    <g id="Group_517" data-name="Group 517" transform="translate(42.401 102.646)">
      <g id="Group_516" data-name="Group 516" transform="translate(0 0)">
        <rect id="Rectangle_442" data-name="Rectangle 442" width="4" height="2" transform="translate(0.056 0.274)" fill="#0055a6"/>
      </g>
    </g>
  </g>
</svg>
