<svg xmlns="http://www.w3.org/2000/svg" width="41.612" height="50.508" viewBox="0 0 41.612 50.508">
  <g id="office-supplies" transform="translate(-45.5 0.5)">
    <path id="Path_549" data-name="Path 549" d="M86.065,392H48.45A1.45,1.45,0,0,0,47,393.45v8.7a1.45,1.45,0,0,0,1.45,1.45H86.065a1.45,1.45,0,0,0,1.45-1.45v-8.7A1.45,1.45,0,0,0,86.065,392Zm-1.45,8.7H49.9v-5.8h4.351v2.9a1.45,1.45,0,1,0,2.9,0v-2.9h2.9v1.45a1.45,1.45,0,0,0,2.9,0V394.9h2.8v2.9a1.45,1.45,0,1,0,2.9,0v-2.9h2.9v1.45a1.45,1.45,0,0,0,2.9,0V394.9h2.9v2.9a1.45,1.45,0,1,0,2.9,0v-2.9h4.351Z" transform="translate(-0.903 -354.095)" fill="#0055a6" stroke="#fff" stroke-width="1"/>
    <path id="Path_550" data-name="Path 550" d="M191.561,0H168.45A1.45,1.45,0,0,0,167,1.45V33.457a1.45,1.45,0,0,0,1.45,1.45H191.39a4.527,4.527,0,0,0,4.522-4.522V4.351A4.356,4.356,0,0,0,191.561,0Zm1.45,30.385a1.623,1.623,0,0,1-1.622,1.621H169.9V2.9h21.66a1.452,1.452,0,0,1,1.45,1.45Z" transform="translate(-109.3)" fill="#0055a6" stroke="#fff" stroke-width="1"/>
    <path id="Path_551" data-name="Path 551" d="M47.45,34.907h5.8a1.45,1.45,0,0,0,1.45-1.45V7.252A1.451,1.451,0,0,0,54.55,6.6L51.649.8a1.451,1.451,0,0,0-2.595,0l-2.9,5.8A1.451,1.451,0,0,0,46,7.252v26.2A1.45,1.45,0,0,0,47.45,34.907Zm1.45-2.9V29.014h2.9v2.993Zm1.45-27.313,1.45,2.9V26.113H48.9V7.595Z" fill="#0055a6" stroke="#fff" stroke-width="1"/>
    <path id="Path_552" data-name="Path 552" d="M254.957,91H243.45A1.45,1.45,0,0,0,242,92.45v5.8a1.45,1.45,0,0,0,1.45,1.45h11.507a1.45,1.45,0,0,0,1.45-1.45v-5.8A1.451,1.451,0,0,0,254.957,91Zm-1.45,5.8H244.9V93.9h8.606Z" transform="translate(-177.048 -82.201)" fill="#0055a6" stroke="#fff" stroke-width="1"/>
    <path id="Path_553" data-name="Path 553" d="M254.957,211H243.45a1.45,1.45,0,0,0,0,2.9h11.507a1.45,1.45,0,1,0,0-2.9Z" transform="translate(-177.048 -190.597)" fill="#0055a6" stroke="#fff" stroke-width="1"/>
  </g>
</svg>
