<svg xmlns="http://www.w3.org/2000/svg" width="82" height="82" viewBox="0 0 82 82">
  <g id="office-furniture" transform="translate(0.226 0.211)">
    <g id="BG" transform="translate(-0.226 -0.211)" fill="#fff" stroke="#0055a6" stroke-width="2">
      <circle cx="41" cy="41" r="41" stroke="none"/>
      <circle cx="41" cy="41" r="40" fill="none"/>
    </g>
    <g id="_004" data-name="004" transform="translate(14.212 15.737)">
      <path id="Path_304" data-name="Path 304" d="M60.772,51.032h-2.6V39.786a.865.865,0,0,0-.865-.865H46.93a.865.865,0,0,0-.865.865V51.032H30.3l-.433-1.73h6.245a3.031,3.031,0,0,0,3.028-3.028V35.028A3.031,3.031,0,0,0,36.116,32H14.488a3.031,3.031,0,0,0-3.028,3.028V46.274A3.031,3.031,0,0,0,14.488,49.3h6.245l-.433,1.73H8.865A.865.865,0,0,0,8,51.9V79.581a.865.865,0,0,0,.865.865h2.6a.865.865,0,0,0,.865-.865V63.144H39.144V79.581a.865.865,0,0,0,.865.865h2.6a.865.865,0,0,0,.865-.865v-2.6H57.311v2.6a.865.865,0,0,0,.865.865h2.6a.865.865,0,0,0,.865-.865V51.9A.865.865,0,0,0,60.772,51.032ZM52.986,40.651h3.46V51.032h-3.46Zm-5.191,0h3.46V51.032h-3.46Zm-34.6-5.623a1.3,1.3,0,0,1,1.3-1.3H36.116a1.3,1.3,0,0,1,1.3,1.3v9.949H13.191Zm1.3,12.544a1.3,1.3,0,0,1-1.222-.865H37.338a1.3,1.3,0,0,1-1.222.865Zm14.031,3.46H22.085l.433-1.73h5.569ZM10.6,78.716H9.73V56.223H10.6Zm28.549-17.3H12.326V56.223H39.144Zm2.6,17.3h-.865V56.223h.865Zm15.572-3.46H43.469V70.065H57.311Zm0-6.921H43.469V63.144H57.311Zm0-6.921H43.469V56.223H57.311Zm2.6,17.3h-.865V56.223h.865Zm0-24.223H9.73v-1.73H59.906Z" transform="translate(-8 -32)" fill="#0055a6"/>
      <path id="Path_305" data-name="Path 305" d="M368.865,273.73h5.191a.865.865,0,0,0,0-1.73h-5.191a.865.865,0,1,0,0,1.73Z" transform="translate(-329.07 -246.047)" fill="#0055a6"/>
      <path id="Path_306" data-name="Path 306" d="M374.056,336h-5.191a.865.865,0,0,0,0,1.73h5.191a.865.865,0,0,0,0-1.73Z" transform="translate(-329.07 -303.126)" fill="#0055a6"/>
      <path id="Path_307" data-name="Path 307" d="M374.056,400h-5.191a.865.865,0,1,0,0,1.73h5.191a.865.865,0,0,0,0-1.73Z" transform="translate(-329.07 -360.205)" fill="#0055a6"/>
      <path id="Path_308" data-name="Path 308" d="M142.056,272h-5.191a.865.865,0,1,0,0,1.73h5.191a.865.865,0,1,0,0-1.73Z" transform="translate(-122.158 -246.047)" fill="#0055a6"/>
    </g>
  </g>
</svg>
