<svg xmlns="http://www.w3.org/2000/svg" width="82" height="82" viewBox="0 0 82 82">
  <g id="puy-furniture" transform="translate(-0.423 0.355)">
    <g id="BG" transform="translate(0.423 -0.355)" fill="#fff" stroke="#0055a6" stroke-width="2">
      <circle cx="41" cy="41" r="41" stroke="none"/>
      <circle cx="41" cy="41" r="40" fill="none"/>
    </g>
    <g id="_001" data-name="001" transform="translate(11.948 11.704)">
      <path id="Path_291" data-name="Path 291" d="M125.328,288.7a1.146,1.146,0,1,0-1.62,0A1.148,1.148,0,0,0,125.328,288.7Z" transform="translate(-98.377 -248.915)" fill="#0055a6"/>
      <path id="Path_292" data-name="Path 292" d="M111.18,166.288a12.6,12.6,0,1,0,12.6-12.6A12.613,12.613,0,0,0,111.18,166.288Zm22.9,0a10.307,10.307,0,1,1-10.306-10.306A10.32,10.32,0,0,1,134.084,166.288Z" transform="translate(-89.651 -153.69)" fill="#0055a6"/>
      <path id="Path_293" data-name="Path 293" d="M48.642,273.244a1.147,1.147,0,0,0,1.618.009l5.552-5.47a3.459,3.459,0,0,0,.816-3.554l1.194-1.151a3.421,3.421,0,0,1,2.385-.964H75.433a10.262,10.262,0,0,0,7.19-2.92c.08-.077-.606.728,10.386-12.407a4.581,4.581,0,0,0-6.971-5.945l-6.758,6.946a4.606,4.606,0,0,0-3.56-1.706H62.949a14.791,14.791,0,0,0-5.734-1.146A14.17,14.17,0,0,0,44.3,252.259a3.411,3.411,0,0,0-3.062.95l-5.447,5.464a1.146,1.146,0,0,0,0,1.615Zm8.569-26.02a12.484,12.484,0,0,1,5.041,1.049,1.159,1.159,0,0,0,.458.1h13a2.291,2.291,0,1,1,0,4.583H66.369a1.146,1.146,0,0,0,0,2.292h9.345a4.585,4.585,0,0,0,4.58-4.58,4.689,4.689,0,0,0-.04-.6c6.536-6.721,7.46-7.665,7.5-7.71a2.291,2.291,0,1,1,3.5,2.96L80.979,257.593a7.969,7.969,0,0,1-5.552,2.232H60.2a5.688,5.688,0,0,0-3.975,1.606l-.972.938-8.97-8.973C48.384,249.462,52.319,247.224,57.211,247.224Zm-14.357,7.6a1.143,1.143,0,0,1,1.419-.162c.2.119-.37-.4,9.919,9.88a1.149,1.149,0,0,1,.006,1.615l-4.734,4.663L38.211,259.48Z" transform="translate(-35.455 -214.927)" fill="#0055a6"/>
      <path id="Path_294" data-name="Path 294" d="M144.7,170.963V172.3a3.436,3.436,0,0,0,1.146,6.675,1.146,1.146,0,0,1,0,2.292,2.068,2.068,0,0,1-1.487-.867,1.146,1.146,0,0,0-1.754,1.476,4.755,4.755,0,0,0,2.1,1.493v1.336a1.146,1.146,0,1,0,2.291,0v-1.342a3.436,3.436,0,0,0-1.146-6.675,1.146,1.146,0,0,1,0-2.292,1.842,1.842,0,0,1,1.24.6,1.146,1.146,0,0,0,1.595-1.646,4.411,4.411,0,0,0-1.686-1.055v-1.333a1.147,1.147,0,0,0-2.294,0Z" transform="translate(-111.95 -165.234)" fill="#0055a6"/>
    </g>
  </g>
</svg>
