<svg xmlns="http://www.w3.org/2000/svg" xmlns:xlink="http://www.w3.org/1999/xlink" width="316" height="172" viewBox="0 0 316 172">
  <defs>
    <clipPath id="clip-path">
      <rect width="316" height="172" fill="none"/>
    </clipPath>
  </defs>
  <g id="shopping-card" opacity="0.05" clip-path="url(#clip-path)">
    <g transform="translate(-48 -109)">
      <g id="Group" transform="translate(3 4)">
        <circle id="Ellipse_203" data-name="Ellipse 203" cx="2" cy="2" r="2" transform="translate(45 105)"/>
        <circle id="Ellipse_203-2" data-name="Ellipse 203" cx="2" cy="2" r="2" transform="translate(69 105)"/>
        <circle id="Ellipse_203-3" data-name="Ellipse 203" cx="2" cy="2" r="2" transform="translate(93 105)"/>
        <circle id="Ellipse_203-4" data-name="Ellipse 203" cx="2" cy="2" r="2" transform="translate(117 105)"/>
        <circle id="Ellipse_203-5" data-name="Ellipse 203" cx="2" cy="2" r="2" transform="translate(141 105)"/>
        <circle id="Ellipse_203-6" data-name="Ellipse 203" cx="2" cy="2" r="2" transform="translate(165 105)"/>
        <circle id="Ellipse_203-7" data-name="Ellipse 203" cx="2" cy="2" r="2" transform="translate(189 105)"/>
        <circle id="Ellipse_203-8" data-name="Ellipse 203" cx="2" cy="2" r="2" transform="translate(213 105)"/>
        <circle id="Ellipse_203-9" data-name="Ellipse 203" cx="2" cy="2" r="2" transform="translate(237 105)"/>
        <circle id="Ellipse_203-10" data-name="Ellipse 203" cx="2" cy="2" r="2" transform="translate(261 105)"/>
        <circle id="Ellipse_203-11" data-name="Ellipse 203" cx="2" cy="2" r="2" transform="translate(285 105)"/>
        <circle id="Ellipse_203-12" data-name="Ellipse 203" cx="2" cy="2" r="2" transform="translate(309 105)"/>
        <circle id="Ellipse_203-13" data-name="Ellipse 203" cx="2" cy="2" r="2" transform="translate(333 105)"/>
        <circle id="Ellipse_203-14" data-name="Ellipse 203" cx="2" cy="2" r="2" transform="translate(357 105)"/>
        <circle id="Ellipse_203-15" data-name="Ellipse 203" cx="2" cy="2" r="2" transform="translate(45 129)"/>
        <circle id="Ellipse_203-16" data-name="Ellipse 203" cx="2" cy="2" r="2" transform="translate(69 129)"/>
        <circle id="Ellipse_203-17" data-name="Ellipse 203" cx="2" cy="2" r="2" transform="translate(93 129)"/>
        <circle id="Ellipse_203-18" data-name="Ellipse 203" cx="2" cy="2" r="2" transform="translate(117 129)"/>
        <circle id="Ellipse_203-19" data-name="Ellipse 203" cx="2" cy="2" r="2" transform="translate(141 129)"/>
        <circle id="Ellipse_203-20" data-name="Ellipse 203" cx="2" cy="2" r="2" transform="translate(165 129)"/>
        <circle id="Ellipse_203-21" data-name="Ellipse 203" cx="2" cy="2" r="2" transform="translate(189 129)"/>
        <circle id="Ellipse_203-22" data-name="Ellipse 203" cx="2" cy="2" r="2" transform="translate(213 129)"/>
        <circle id="Ellipse_203-23" data-name="Ellipse 203" cx="2" cy="2" r="2" transform="translate(237 129)"/>
        <circle id="Ellipse_203-24" data-name="Ellipse 203" cx="2" cy="2" r="2" transform="translate(261 129)"/>
        <circle id="Ellipse_203-25" data-name="Ellipse 203" cx="2" cy="2" r="2" transform="translate(285 129)"/>
        <circle id="Ellipse_203-26" data-name="Ellipse 203" cx="2" cy="2" r="2" transform="translate(309 129)"/>
        <circle id="Ellipse_203-27" data-name="Ellipse 203" cx="2" cy="2" r="2" transform="translate(333 129)"/>
        <circle id="Ellipse_203-28" data-name="Ellipse 203" cx="2" cy="2" r="2" transform="translate(357 129)"/>
        <circle id="Ellipse_203-29" data-name="Ellipse 203" cx="2" cy="2" r="2" transform="translate(45 153)"/>
        <circle id="Ellipse_203-30" data-name="Ellipse 203" cx="2" cy="2" r="2" transform="translate(69 153)"/>
        <circle id="Ellipse_203-31" data-name="Ellipse 203" cx="2" cy="2" r="2" transform="translate(93 153)"/>
        <circle id="Ellipse_203-32" data-name="Ellipse 203" cx="2" cy="2" r="2" transform="translate(117 153)"/>
        <circle id="Ellipse_203-33" data-name="Ellipse 203" cx="2" cy="2" r="2" transform="translate(141 153)"/>
        <circle id="Ellipse_203-34" data-name="Ellipse 203" cx="2" cy="2" r="2" transform="translate(165 153)"/>
        <circle id="Ellipse_203-35" data-name="Ellipse 203" cx="2" cy="2" r="2" transform="translate(189 153)"/>
        <circle id="Ellipse_203-36" data-name="Ellipse 203" cx="2" cy="2" r="2" transform="translate(213 153)"/>
        <circle id="Ellipse_203-37" data-name="Ellipse 203" cx="2" cy="2" r="2" transform="translate(237 153)"/>
        <circle id="Ellipse_203-38" data-name="Ellipse 203" cx="2" cy="2" r="2" transform="translate(261 153)"/>
        <circle id="Ellipse_203-39" data-name="Ellipse 203" cx="2" cy="2" r="2" transform="translate(285 153)"/>
        <circle id="Ellipse_203-40" data-name="Ellipse 203" cx="2" cy="2" r="2" transform="translate(309 153)"/>
        <circle id="Ellipse_203-41" data-name="Ellipse 203" cx="2" cy="2" r="2" transform="translate(333 153)"/>
        <circle id="Ellipse_203-42" data-name="Ellipse 203" cx="2" cy="2" r="2" transform="translate(357 153)"/>
        <circle id="Ellipse_203-43" data-name="Ellipse 203" cx="2" cy="2" r="2" transform="translate(45 177)"/>
        <circle id="Ellipse_203-44" data-name="Ellipse 203" cx="2" cy="2" r="2" transform="translate(69 177)"/>
        <circle id="Ellipse_203-45" data-name="Ellipse 203" cx="2" cy="2" r="2" transform="translate(93 177)"/>
        <circle id="Ellipse_203-46" data-name="Ellipse 203" cx="2" cy="2" r="2" transform="translate(117 177)"/>
        <circle id="Ellipse_203-47" data-name="Ellipse 203" cx="2" cy="2" r="2" transform="translate(141 177)"/>
        <circle id="Ellipse_203-48" data-name="Ellipse 203" cx="2" cy="2" r="2" transform="translate(165 177)"/>
        <circle id="Ellipse_203-49" data-name="Ellipse 203" cx="2" cy="2" r="2" transform="translate(189 177)"/>
        <circle id="Ellipse_203-50" data-name="Ellipse 203" cx="2" cy="2" r="2" transform="translate(213 177)"/>
        <circle id="Ellipse_203-51" data-name="Ellipse 203" cx="2" cy="2" r="2" transform="translate(237 177)"/>
        <circle id="Ellipse_203-52" data-name="Ellipse 203" cx="2" cy="2" r="2" transform="translate(261 177)"/>
        <circle id="Ellipse_203-53" data-name="Ellipse 203" cx="2" cy="2" r="2" transform="translate(285 177)"/>
        <circle id="Ellipse_203-54" data-name="Ellipse 203" cx="2" cy="2" r="2" transform="translate(309 177)"/>
        <circle id="Ellipse_203-55" data-name="Ellipse 203" cx="2" cy="2" r="2" transform="translate(333 177)"/>
        <circle id="Ellipse_203-56" data-name="Ellipse 203" cx="2" cy="2" r="2" transform="translate(357 177)"/>
        <circle id="Ellipse_203-57" data-name="Ellipse 203" cx="2" cy="2" r="2" transform="translate(45 201)"/>
        <circle id="Ellipse_203-58" data-name="Ellipse 203" cx="2" cy="2" r="2" transform="translate(69 201)"/>
        <circle id="Ellipse_203-59" data-name="Ellipse 203" cx="2" cy="2" r="2" transform="translate(93 201)"/>
        <circle id="Ellipse_203-60" data-name="Ellipse 203" cx="2" cy="2" r="2" transform="translate(117 201)"/>
        <circle id="Ellipse_203-61" data-name="Ellipse 203" cx="2" cy="2" r="2" transform="translate(141 201)"/>
        <circle id="Ellipse_203-62" data-name="Ellipse 203" cx="2" cy="2" r="2" transform="translate(165 201)"/>
        <circle id="Ellipse_203-63" data-name="Ellipse 203" cx="2" cy="2" r="2" transform="translate(189 201)"/>
        <circle id="Ellipse_203-64" data-name="Ellipse 203" cx="2" cy="2" r="2" transform="translate(213 201)"/>
        <circle id="Ellipse_203-65" data-name="Ellipse 203" cx="2" cy="2" r="2" transform="translate(237 201)"/>
        <circle id="Ellipse_203-66" data-name="Ellipse 203" cx="2" cy="2" r="2" transform="translate(261 201)"/>
        <circle id="Ellipse_203-67" data-name="Ellipse 203" cx="2" cy="2" r="2" transform="translate(285 201)"/>
        <circle id="Ellipse_203-68" data-name="Ellipse 203" cx="2" cy="2" r="2" transform="translate(309 201)"/>
        <circle id="Ellipse_203-69" data-name="Ellipse 203" cx="2" cy="2" r="2" transform="translate(333 201)"/>
        <circle id="Ellipse_203-70" data-name="Ellipse 203" cx="2" cy="2" r="2" transform="translate(357 201)"/>
        <circle id="Ellipse_203-71" data-name="Ellipse 203" cx="2" cy="2" r="2" transform="translate(45 225)"/>
        <circle id="Ellipse_203-72" data-name="Ellipse 203" cx="2" cy="2" r="2" transform="translate(69 225)"/>
        <circle id="Ellipse_203-73" data-name="Ellipse 203" cx="2" cy="2" r="2" transform="translate(93 225)"/>
        <circle id="Ellipse_203-74" data-name="Ellipse 203" cx="2" cy="2" r="2" transform="translate(117 225)"/>
        <circle id="Ellipse_203-75" data-name="Ellipse 203" cx="2" cy="2" r="2" transform="translate(141 225)"/>
        <circle id="Ellipse_203-76" data-name="Ellipse 203" cx="2" cy="2" r="2" transform="translate(165 225)"/>
        <circle id="Ellipse_203-77" data-name="Ellipse 203" cx="2" cy="2" r="2" transform="translate(189 225)"/>
        <circle id="Ellipse_203-78" data-name="Ellipse 203" cx="2" cy="2" r="2" transform="translate(213 225)"/>
        <circle id="Ellipse_203-79" data-name="Ellipse 203" cx="2" cy="2" r="2" transform="translate(237 225)"/>
        <circle id="Ellipse_203-80" data-name="Ellipse 203" cx="2" cy="2" r="2" transform="translate(261 225)"/>
        <circle id="Ellipse_203-81" data-name="Ellipse 203" cx="2" cy="2" r="2" transform="translate(285 225)"/>
        <circle id="Ellipse_203-82" data-name="Ellipse 203" cx="2" cy="2" r="2" transform="translate(309 225)"/>
        <circle id="Ellipse_203-83" data-name="Ellipse 203" cx="2" cy="2" r="2" transform="translate(333 225)"/>
        <circle id="Ellipse_203-84" data-name="Ellipse 203" cx="2" cy="2" r="2" transform="translate(357 225)"/>
        <circle id="Ellipse_203-85" data-name="Ellipse 203" cx="2" cy="2" r="2" transform="translate(45 249)"/>
        <circle id="Ellipse_203-86" data-name="Ellipse 203" cx="2" cy="2" r="2" transform="translate(69 249)"/>
        <circle id="Ellipse_203-87" data-name="Ellipse 203" cx="2" cy="2" r="2" transform="translate(93 249)"/>
        <circle id="Ellipse_203-88" data-name="Ellipse 203" cx="2" cy="2" r="2" transform="translate(117 249)"/>
        <circle id="Ellipse_203-89" data-name="Ellipse 203" cx="2" cy="2" r="2" transform="translate(141 249)"/>
        <circle id="Ellipse_203-90" data-name="Ellipse 203" cx="2" cy="2" r="2" transform="translate(165 249)"/>
        <circle id="Ellipse_203-91" data-name="Ellipse 203" cx="2" cy="2" r="2" transform="translate(189 249)"/>
        <circle id="Ellipse_203-92" data-name="Ellipse 203" cx="2" cy="2" r="2" transform="translate(213 249)"/>
        <circle id="Ellipse_203-93" data-name="Ellipse 203" cx="2" cy="2" r="2" transform="translate(237 249)"/>
        <circle id="Ellipse_203-94" data-name="Ellipse 203" cx="2" cy="2" r="2" transform="translate(261 249)"/>
        <circle id="Ellipse_203-95" data-name="Ellipse 203" cx="2" cy="2" r="2" transform="translate(285 249)"/>
        <circle id="Ellipse_203-96" data-name="Ellipse 203" cx="2" cy="2" r="2" transform="translate(309 249)"/>
        <circle id="Ellipse_203-97" data-name="Ellipse 203" cx="2" cy="2" r="2" transform="translate(333 249)"/>
        <circle id="Ellipse_203-98" data-name="Ellipse 203" cx="2" cy="2" r="2" transform="translate(357 249)"/>
        <circle id="Ellipse_203-99" data-name="Ellipse 203" cx="2" cy="2" r="2" transform="translate(45 273)"/>
        <circle id="Ellipse_203-100" data-name="Ellipse 203" cx="2" cy="2" r="2" transform="translate(69 273)"/>
        <circle id="Ellipse_203-101" data-name="Ellipse 203" cx="2" cy="2" r="2" transform="translate(93 273)"/>
        <circle id="Ellipse_203-102" data-name="Ellipse 203" cx="2" cy="2" r="2" transform="translate(117 273)"/>
        <circle id="Ellipse_203-103" data-name="Ellipse 203" cx="2" cy="2" r="2" transform="translate(141 273)"/>
        <circle id="Ellipse_203-104" data-name="Ellipse 203" cx="2" cy="2" r="2" transform="translate(165 273)"/>
        <circle id="Ellipse_203-105" data-name="Ellipse 203" cx="2" cy="2" r="2" transform="translate(189 273)"/>
        <circle id="Ellipse_203-106" data-name="Ellipse 203" cx="2" cy="2" r="2" transform="translate(213 273)"/>
        <circle id="Ellipse_203-107" data-name="Ellipse 203" cx="2" cy="2" r="2" transform="translate(237 273)"/>
        <circle id="Ellipse_203-108" data-name="Ellipse 203" cx="2" cy="2" r="2" transform="translate(261 273)"/>
        <circle id="Ellipse_203-109" data-name="Ellipse 203" cx="2" cy="2" r="2" transform="translate(285 273)"/>
        <circle id="Ellipse_203-110" data-name="Ellipse 203" cx="2" cy="2" r="2" transform="translate(309 273)"/>
        <circle id="Ellipse_203-111" data-name="Ellipse 203" cx="2" cy="2" r="2" transform="translate(333 273)"/>
        <circle id="Ellipse_203-112" data-name="Ellipse 203" cx="2" cy="2" r="2" transform="translate(357 273)"/>
      </g>
    </g>
  </g>
</svg>
