<svg xmlns="http://www.w3.org/2000/svg" xmlns:xlink="http://www.w3.org/1999/xlink" width="49" height="57" viewBox="0 0 49 57">
  <defs>
    <linearGradient id="linear-gradient" x1="0.2" y1="-0.049" x2="0.841" y2="0.727" gradientUnits="objectBoundingBox">
      <stop offset="0" stop-color="#a7a9b7"/>
      <stop offset="1" stop-color="#656c80"/>
    </linearGradient>
  </defs>
  <g id="silver" transform="translate(-317.461 -231.254)">
    <path id="BG" d="M42.75,0,57,24.5,42.75,49H14.25L0,24.5,14.25,0Z" transform="translate(366.461 231.254) rotate(90)" fill="url(#linear-gradient)"/>
    <g id="Icon" transform="translate(183.904 1.255)">
      <path id="Subtraction_23" data-name="Subtraction 23" d="M20.92,12.86c-2.542,0-6.6-3.094-8.8-4.938-2.44,2.252-5.842,4.937-8.18,4.938a2.343,2.343,0,0,1-.918-.173c-2.086-.886-.609-6.563,1-11.171a9.967,9.967,0,0,0,8.417,4.6,9.969,9.969,0,0,0,8.419-4.6c1.607,4.608,3.083,10.287,1,11.172A2.39,2.39,0,0,1,20.92,12.86Z" transform="translate(145.562 258.256)" fill="#fff"/>
      <circle id="Ellipse_205" data-name="Ellipse 205" cx="9" cy="9" r="9" transform="translate(149 245)" fill="#fff"/>
      <path id="Shape" d="M6.118.191l1.24,2.632a.328.328,0,0,0,.246.187l2.772.422a.346.346,0,0,1,.181.583L8.55,6.063a.352.352,0,0,0-.094.3L8.93,9.258a.33.33,0,0,1-.473.36L5.977,8.253a.313.313,0,0,0-.3,0L3.195,9.619a.33.33,0,0,1-.473-.36l.473-2.893a.352.352,0,0,0-.094-.3L1.1,4.015a.346.346,0,0,1,.181-.583l2.772-.422a.328.328,0,0,0,.246-.187L5.533.191a.32.32,0,0,1,.585,0Z" transform="translate(152.174 249.172)" fill="#8f92a3" fill-rule="evenodd"/>
    </g>
  </g>
</svg>
