<svg id="store-img" xmlns="http://www.w3.org/2000/svg" width="413.999" height="217.244" viewBox="0 0 413.999 217.244">
  <rect id="BG" width="413.999" height="217.244" fill="#a9bddc"/>
  <g id="store" transform="translate(111.938 31.385)">
    <g id="Group_479" data-name="Group 479" transform="translate(0)">
      <g id="Group_478" data-name="Group 478">
        <path id="Path_476" data-name="Path 476" d="M189.054,92.087,159.347,50.5a6.193,6.193,0,0,0-4.872-2.5H35.649a6.193,6.193,0,0,0-4.872,2.5L1.071,92.087,0,95.3a23.81,23.81,0,0,0,23.765,24,23.558,23.558,0,0,0,17.824-8.08,23.7,23.7,0,0,0,35.648,0,23.7,23.7,0,0,0,35.648,0,23.7,23.7,0,0,0,35.648,0,23.558,23.558,0,0,0,17.824,8.08,23.81,23.81,0,0,0,23.765-24Z" transform="translate(0 -48.003)" fill="#7d97be"/>
      </g>
    </g>
    <g id="Group_481" data-name="Group 481" transform="translate(11.884 78.378)">
      <g id="Group_480" data-name="Group 480">
        <path id="Path_477" data-name="Path 477" d="M186.477,263.876a35.554,35.554,0,0,1-17.824-4.8,36.411,36.411,0,0,1-35.648,0,36.411,36.411,0,0,1-35.648,0,36.411,36.411,0,0,1-35.648,0A36.128,36.128,0,0,1,32,261.558v61.73a11.887,11.887,0,0,0,11.883,11.883h95.061V275.758h35.648v59.413h11.883a11.887,11.887,0,0,0,11.883-11.883V261.7A35.435,35.435,0,0,1,186.477,263.876ZM103.3,311.406H55.768V275.758H103.3Z" transform="translate(-32.003 -259.075)" fill="#7d97be"/>
      </g>
    </g>
  </g>
</svg>
