<svg xmlns="http://www.w3.org/2000/svg" xmlns:xlink="http://www.w3.org/1999/xlink" width="352" height="500" viewBox="0 0 352 500">
  <defs>
    <clipPath id="clip-path">
      <rect id="Rectangle_825" data-name="Rectangle 825" width="352" height="500" transform="translate(31 124)" fill="#fff" stroke="#707070" stroke-width="1"/>
    </clipPath>
    <filter id="upgrade-acc-bg" x="-30" y="-30.273" width="412" height="560.273" filterUnits="userSpaceOnUse">
      <feOffset input="SourceAlpha"/>
      <feGaussianBlur stdDeviation="10" result="blur"/>
      <feFlood flood-opacity="0.051"/>
      <feComposite operator="in" in2="blur"/>
      <feComposite in="SourceGraphic"/>
    </filter>
  </defs>
  <g id="upgrade-acc-bg-2" data-name="upgrade-acc-bg" transform="translate(-31 -124)" clip-path="url(#clip-path)">
    <g transform="matrix(1, 0, 0, 1, 31, 124)" filter="url(#upgrade-acc-bg)">
      <path id="upgrade-acc-bg-3" data-name="upgrade-acc-bg" d="M29,0S88.694-.615,88.59,0C112.276-.154,105.017,31.291,128,32c24.645.678,72.551.215,96,0,24.179.215,16.457-32.154,40.077-32C263.577-.154,323,0,323,0a29,29,0,0,1,29,29V471a29,29,0,0,1-29,29H29A29,29,0,0,1,0,471V29A29,29,0,0,1,29,0Z" fill="#0055a6"/>
    </g>
  </g>
</svg>
