<svg xmlns="http://www.w3.org/2000/svg" width="82" height="81" viewBox="0 0 82 81">
  <g id="upholstery" transform="translate(-0.422 0.211)">
    <g id="BG" transform="translate(0.422 -0.211)" fill="#fff" stroke="#0055a6" stroke-width="2">
      <ellipse cx="41" cy="40.5" rx="41" ry="40.5" stroke="none"/>
      <ellipse cx="41" cy="40.5" rx="40" ry="39.5" fill="none"/>
    </g>
    <path id="_005" data-name="005" d="M46.812,3.128V.916A.916.916,0,0,0,45.9,0H36.878a.916.916,0,0,0-.916.916V3.128a3.332,3.332,0,0,0-2.917,3.3V29.686H22.5l.458-5.314h.564a5.5,5.5,0,0,0,.383-10.98l.571-6.617a5.32,5.32,0,0,0,5.093-5.309.916.916,0,1,0-1.832,0,3.486,3.486,0,0,1-3.1,3.461l.028-.32a3.9,3.9,0,1,0-7.779,0l.03.346a5.13,5.13,0,0,0,.195,10.257h.69l.632,7.33h-.5a4.49,4.49,0,1,0,0,8.979H19.2l.655,7.592a.916.916,0,0,0,1.826,0l.655-7.592H33.044v.9a3.332,3.332,0,0,0,2.917,3.3v2.212a.916.916,0,0,0,.916.916H45.9a.916.916,0,0,0,.916-.916V35.721a3.332,3.332,0,0,0,2.917-3.3V6.43a3.332,3.332,0,0,0-2.917-3.3ZM20.771,28.372l-.345-4h.69Zm6.414-9.5A3.667,3.667,0,0,1,23.52,22.54h-.406l.632-7.322a3.669,3.669,0,0,1,3.439,3.657Zm-10.079-5.5a3.3,3.3,0,0,1-.037-6.6l.569,6.6Zm1.8-6.6h.947V8.063a.916.916,0,1,0,1.832,0V4.215a.916.916,0,1,0-1.832,0v.733h-1.1l-.043-.5a2.072,2.072,0,1,1,4.128,0L21.274,22.54H20.268Zm-.978,22.906a2.657,2.657,0,0,1,0-5.314h.656l.458,5.314Zm29.966.024L34.885,32.576a1.514,1.514,0,0,1-.008-.157v-1.5L47.9,28.049Zm0-3.538L34.877,29.04V27.378L47.9,24.511Zm0-3.538L34.877,25.5V23.84L47.9,20.973v1.662Zm0-3.538-13.02,2.867V20.3L47.9,17.435Zm0-3.538-13.02,2.867V16.764L47.9,13.9Zm0-3.538-13.02,2.867V13.226L47.9,10.359V12.02Zm0-3.538L34.877,11.35V9.688L47.9,6.821Zm-2.917-6.65V3.1H37.794V1.832Zm-8.607,3.1H46.4a1.487,1.487,0,0,1,.715.182l-12.239,2.7V6.43A1.5,1.5,0,0,1,36.372,4.934Zm1.422,32.082V35.747h7.185v1.269Zm8.607-3.1H37.328L47.9,31.587v.832A1.5,1.5,0,0,1,46.4,33.914Z" transform="translate(9.949 20.654)" fill="#0055a6"/>
  </g>
</svg>
