<svg xmlns="http://www.w3.org/2000/svg" width="75" height="75" viewBox="0 0 75 75">
  <g id="user-img" transform="translate(-0.722 -0.721)">
    <rect id="Rectangle_478" data-name="Rectangle 478" width="75" height="75" transform="translate(0.722 0.721)" fill="#e0ecff"/>
    <g id="user" transform="translate(19.448 14.291)">
      <path id="Path_265" data-name="Path 265" d="M97.434,20.8a10.065,10.065,0,0,0,7.355-3.048,10.065,10.065,0,0,0,3.047-7.355,10.066,10.066,0,0,0-3.048-7.355,10.4,10.4,0,0,0-14.71,0A10.066,10.066,0,0,0,87.032,10.4a10.065,10.065,0,0,0,3.048,7.355A10.068,10.068,0,0,0,97.434,20.8Zm0,0" transform="translate(-79.69 0)" fill="#a9bddc"/>
      <path id="Path_266" data-name="Path 266" d="M35.945,259.664a25.7,25.7,0,0,0-.35-2.729,21.5,21.5,0,0,0-.671-2.744,13.555,13.555,0,0,0-1.128-2.559,9.656,9.656,0,0,0-1.7-2.217,7.5,7.5,0,0,0-2.443-1.535,8.444,8.444,0,0,0-3.119-.564,3.166,3.166,0,0,0-1.691.717c-.507.33-1.1.713-1.761,1.135a10.091,10.091,0,0,1-2.279,1,8.85,8.85,0,0,1-5.575,0,10.07,10.07,0,0,1-2.277-1c-.655-.419-1.248-.8-1.763-1.136a3.161,3.161,0,0,0-1.69-.717,8.433,8.433,0,0,0-3.119.565,7.492,7.492,0,0,0-2.444,1.535,9.66,9.66,0,0,0-1.7,2.216,13.582,13.582,0,0,0-1.128,2.559,21.552,21.552,0,0,0-.671,2.743,25.6,25.6,0,0,0-.35,2.73c-.057.826-.086,1.684-.086,2.55a7.172,7.172,0,0,0,2.13,5.426,7.667,7.667,0,0,0,5.489,2h20.8a7.666,7.666,0,0,0,5.488-2,7.168,7.168,0,0,0,2.13-5.426c0-.87-.03-1.729-.087-2.551Zm0,0" transform="translate(0 -226.454)" fill="#a9bddc"/>
    </g>
  </g>
</svg>
