<svg xmlns="http://www.w3.org/2000/svg" width="43.385" height="44.89" viewBox="0 0 43.385 44.89">
  <g id="vase" transform="translate(-8.579)">
    <g id="Group_518" data-name="Group 518" transform="translate(8.579)">
      <path id="Path_548" data-name="Path 548" d="M50.311,15.619h0C48.261,11.331,44.4,8.24,39.092,6.634V1.36A1.36,1.36,0,0,0,37.731,0H22.811a1.36,1.36,0,0,0-1.36,1.36V6.634c-5.3,1.606-9.17,4.7-11.218,8.985v0a17.811,17.811,0,0,0-1.652,7.754A26.918,26.918,0,0,0,11.5,35.207v0a27.48,27.48,0,0,0,7.46,9.389,1.36,1.36,0,0,0,.843.292H40.743a1.36,1.36,0,0,0,.843-.292,27.5,27.5,0,0,0,7.459-9.389v0a26.92,26.92,0,0,0,2.919-11.832A17.827,17.827,0,0,0,50.311,15.619ZM23.151,8.982a1.36,1.36,0,0,0,1.02-1.317V2.721h12.2V7.665a1.36,1.36,0,0,0,1.02,1.317,16.063,16.063,0,0,1,9.31,5.863H13.842A16.059,16.059,0,0,1,23.151,8.982ZM40.262,42.169H20.281a24.25,24.25,0,0,1-5.271-6.2H45.532A24.261,24.261,0,0,1,40.262,42.169Zm6.705-8.924H13.576a24.848,24.848,0,0,1-2.148-7.6l4.534,3.413a1.36,1.36,0,0,0,1.643,0l5.92-4.511,5.921,4.511a1.36,1.36,0,0,0,1.649,0l5.921-4.511,5.921,4.511a1.36,1.36,0,0,0,1.642,0l4.536-3.414A24.855,24.855,0,0,1,46.967,33.245Zm-3.2-6.976L37.84,21.754a1.36,1.36,0,0,0-1.649,0l-5.92,4.511L24.35,21.754a1.36,1.36,0,0,0-1.649,0l-5.925,4.514-5.437-4.093a14.96,14.96,0,0,1,1.009-4.611H48.2a14.97,14.97,0,0,1,1.009,4.61Z" transform="translate(-8.579 0)" fill="#0055a6"/>
    </g>
  </g>
</svg>
