<svg xmlns="http://www.w3.org/2000/svg" width="83" height="82" viewBox="0 0 83 82">
  <g id="wilderness" transform="translate(0.479 -0.077)">
    <g id="BG" transform="translate(-0.48 0.077)" fill="#fff" stroke="#0055a6" stroke-width="2">
      <ellipse cx="41.5" cy="41" rx="41.5" ry="41" stroke="none"/>
      <ellipse cx="41.5" cy="41" rx="40.5" ry="40" fill="none"/>
    </g>
    <g id="_009" data-name="009" transform="translate(10.748 11.024)">
      <g id="Group_365" data-name="Group 365">
        <g id="Group_364" data-name="Group 364">
          <path id="Path_332" data-name="Path 332" d="M58.031,38.361a.984.984,0,0,0-.984.984v.963L30.491,4.594V.986a.984.984,0,1,0-1.967,0V4.595L25.258,8.987A7.376,7.376,0,0,0,11.194,7.5a5.4,5.4,0,0,0-9.226,3.815,5.107,5.107,0,0,0,.094.968,3.933,3.933,0,0,0,1.873,7.393H17.312L1.968,40.308v-.963a.984.984,0,0,0-1.967,0v3.934a.983.983,0,0,0,1.773.587L5.9,38.313v3a2.954,2.954,0,0,0,2.951,2.951H23.172a6.593,6.593,0,0,0-.642,1.056,6.387,6.387,0,0,0-.657,2.8,6.615,6.615,0,0,0,2.366,4.994h-2.6a2.951,2.951,0,1,0,0,5.9H37.376a2.951,2.951,0,0,0,0-5.9H35.019c.1-.088.207-.172.3-.266a6.732,6.732,0,0,0,2.041-4.623h0a9.58,9.58,0,0,0-.006-1.095,11.811,11.811,0,0,0-.506-2.869H50.163a2.954,2.954,0,0,0,2.951-2.951v-3l4.129,5.553a.984.984,0,0,0,1.773-.587V39.345A.984.984,0,0,0,58.031,38.361ZM3.935,17.706a1.969,1.969,0,0,1-1.967-1.967,1.946,1.946,0,0,1,1.5-1.9.984.984,0,0,0,.7-1.29,3.617,3.617,0,0,1-.237-1.231,3.431,3.431,0,0,1,6.743-.911.984.984,0,0,0,1.932-.231,5.406,5.406,0,0,1,10.81.158,5.186,5.186,0,0,1-.19,1.385l-4.455,5.992H3.935ZM37.376,55.082a.984.984,0,0,1,0,1.967H21.639a.984.984,0,0,1,0-1.967Zm-7.833-5.5c.051.139.208.562,1.119.828a2.955,2.955,0,0,0,.823.121,3.034,3.034,0,0,0,1.472-.357,2.656,2.656,0,0,1-1.314,2.623,6.577,6.577,0,0,1-2.012.32c-.169,0-.335-.01-.5-.022-.693-.326-2.524-1.315-2.537-2.681a1.931,1.931,0,0,1,.722-1.441,6.912,6.912,0,0,1,.695-.5,8.53,8.53,0,0,0,.91-.66,3.835,3.835,0,0,0,1.288-1.921,2.874,2.874,0,0,1,.153.45,2.248,2.248,0,0,1,.063.394,3.493,3.493,0,0,1-.78,1.957A1,1,0,0,0,29.544,49.579ZM35.4,48.121a5.176,5.176,0,0,1-.476,1.953,4.277,4.277,0,0,0-.088-.516,5.033,5.033,0,0,0-.342-.962,4.091,4.091,0,0,0-.3-.53c-.014-.021-.079-.1-.157-.194l-.072-.084a.984.984,0,0,0-1.716.192c-.006.016-.012.032-.018.047-.029.08-.053.158-.075.236a.622.622,0,0,0-.019.081.291.291,0,0,1-.094.086,3.867,3.867,0,0,0,.342-1.853,4.214,4.214,0,0,0-.115-.709A5.064,5.064,0,0,0,30.175,42.9c-.015-.01-.084-.05-.137-.081a.981.981,0,0,0-.657-.269,1,1,0,0,0-1,.963v0c0,.208,0,.416,0,.624a5.056,5.056,0,0,1-.066,1.209,1.9,1.9,0,0,1-.677.971,6.794,6.794,0,0,1-.712.51,8.737,8.737,0,0,0-.892.645,3.893,3.893,0,0,0-1.409,2.95c0,.077.018.152.024.228a4.454,4.454,0,0,1-.811-2.536,4.407,4.407,0,0,1,.455-1.933,4.228,4.228,0,0,1,.754-1.107A3.092,3.092,0,0,0,26,43.464c.01-.059.009-.117.014-.176l0-.008v0a2.664,2.664,0,0,0-1.473-2.481,3.744,3.744,0,0,1,1.357.077.984.984,0,0,0,1.166-1.2c-.318-1.292-.272-3.628,1.917-4.182a3.517,3.517,0,0,1,1.53,0,3.334,3.334,0,0,0-.241,1.112A5.478,5.478,0,0,0,31.9,40.433a16.792,16.792,0,0,1,2.565,3.186,8.33,8.33,0,0,1,.927,3.631A7.68,7.68,0,0,1,35.4,48.121Zm.556-5.825a20.194,20.194,0,0,0-2.627-3.219A3.61,3.61,0,0,1,32.237,36.7a1.328,1.328,0,0,1,.481-.986l.008-.007a.984.984,0,0,0-.43-1.691c-.1-.034-.321-.114-.513-.184-.239-.087-.45-.159-.484-.168a5.624,5.624,0,0,0-2.8-.073,4.824,4.824,0,0,0-3.536,5.21,4.053,4.053,0,0,0-2.928,1.138,1.343,1.343,0,0,0-.347,1.3,1.362,1.362,0,0,0,.979.953c.126.032.254.069.37.1H14.475L25.209,23.354c.008-.012.015-.025.022-.038l4.277-7.548,4.284,7.559.015.027L44.541,42.3ZM13.771,39.548V36.464a3.909,3.909,0,0,1,1.152-2.782l5.012-5.012ZM39.081,28.67l5.012,5.012a3.909,3.909,0,0,1,1.152,2.782v3.084ZM51.146,41.312a.985.985,0,0,1-.984.984H47.212V36.464a5.862,5.862,0,0,0-1.728-4.173L35.443,22.25l-4.951-8.737V10.821a.984.984,0,0,0-1.967,0v2.691L23.573,22.25,13.532,32.291A5.862,5.862,0,0,0,11.8,36.464V42.3H8.853a.985.985,0,0,1-.984-.984V35.668l17.013-22.88c.007-.009.013-.018.02-.027l4.6-6.193,21.639,29.1v5.644Z" transform="translate(0 -0.002)" fill="#0055a6"/>
          <path id="Path_333" data-name="Path 333" d="M376.071,17.085h0a.924.924,0,0,0-.1.069.694.694,0,0,0-.356.357.913.913,0,0,0-.066.1v.007a.984.984,0,0,0-.073.353c0,.008,0,.015,0,.023s.009.036.01.053a.988.988,0,0,0,.065.322l0,.009a.971.971,0,0,0,.185.28c.019.021.042.036.062.055a.967.967,0,0,0,.228.157c.017.008.028.024.046.031a9.707,9.707,0,0,0,3.828.777A9.836,9.836,0,1,0,379.9,0a9.706,9.706,0,0,0-3.807.769l-.012,0-.01,0a.921.921,0,0,0-.084.058.96.96,0,0,0-.227.156.965.965,0,0,0-.13.191.929.929,0,0,0-.081.119l0,.009a.986.986,0,0,0-.065.322c0,.018-.01.036-.01.053s0,.015,0,.023a.985.985,0,0,0,.073.353v.007a.931.931,0,0,0,.066.1.971.971,0,0,0,.146.213.961.961,0,0,0,.21.143.921.921,0,0,0,.1.068,7.866,7.866,0,0,1,0,14.494Zm6.775-7.247a9.792,9.792,0,0,0-3.887-7.808,7.869,7.869,0,1,1,0,15.615A9.791,9.791,0,0,0,382.846,9.838Z" transform="translate(-332.192 -0.002)" fill="#0055a6"/>
          <path id="Path_334" data-name="Path 334" d="M58.207,403.042a.984.984,0,0,0-.9.386L56.122,405v-2.951a.984.984,0,1,0-1.967,0V405l-1.181-1.574a.983.983,0,0,0-1.573,1.181l2.951,3.934c.012.017.033.023.046.039a2.038,2.038,0,0,0,.328.258.924.924,0,0,0,.825,0,2.039,2.039,0,0,0,.328-.258c.013-.016.034-.022.046-.039l2.951-3.934a.984.984,0,0,0-.669-1.567Z" transform="translate(-45.302 -354.84)" fill="#0055a6"/>
          <path id="Path_335" data-name="Path 335" d="M399.54,403.042a.984.984,0,0,0-.9.386L397.455,405v-2.951a.984.984,0,1,0-1.967,0V405l-1.18-1.574a.983.983,0,0,0-1.573,1.181l2.951,3.934c.012.017.033.023.046.039a2.036,2.036,0,0,0,.328.258.924.924,0,0,0,.825,0,2.036,2.036,0,0,0,.328-.258c.013-.016.034-.022.046-.039l2.951-3.934a.984.984,0,0,0-.669-1.567Z" transform="translate(-347.292 -354.84)" fill="#0055a6"/>
        </g>
      </g>
    </g>
  </g>
</svg>
