<svg xmlns="http://www.w3.org/2000/svg" xmlns:xlink="http://www.w3.org/1999/xlink" width="65" height="65" viewBox="0 0 65 65">
  <defs>
    <clipPath id="clip-path">
      <rect id="Rectangle_817" data-name="Rectangle 817" width="65" height="65" transform="translate(11 10)" fill="#fff" stroke="#707070" stroke-width="1"/>
    </clipPath>
  </defs>
  <g id="become-partner" transform="translate(-11 -10)" clip-path="url(#clip-path)">
    <g id="Icon" transform="translate(15 14)">
      <g id="Group_01" data-name="Group 01">
        <path id="Path_804" data-name="Path 804" d="M32.546,61.546a29,29,0,1,1,29-29A29.033,29.033,0,0,1,32.546,61.546Zm0-56.329A27.329,27.329,0,1,0,59.875,32.546,27.361,27.361,0,0,0,32.546,5.216Z" transform="translate(-3.546 -3.545)" fill="#1656a1" stroke="#0055a6" stroke-width="0.5"/>
        <path id="Path_809" data-name="Path 809" d="M58.264,37.224,50.719,22.33a.927.927,0,0,0-1.328-.359l-4.532,2.9-4.113.328a17,17,0,0,0-3.314-1.791c-2.534-1.054-5.943-.074-6.085-.031a.857.857,0,0,0-.2.084c-.257.147-1.968,1.135-3.294,2.112l-8.2-.662a.919.919,0,0,0-.489-.549l-5.469-2.45a.934.934,0,0,0-.743-.005.919.919,0,0,0-.511.538L6.78,38.283a.928.928,0,0,0,.606,1.2l5.658,1.7a.878.878,0,0,0,.263.037.946.946,0,0,0,.79-.432l.1-.165,2.171,1.255a2.6,2.6,0,0,0,.024.738,2.579,2.579,0,0,0,2.539,2.128c.084,0,.166-.007.248-.015a2.839,2.839,0,0,0,2.766,2.186,2.885,2.885,0,0,0,.621-.071,2.917,2.917,0,0,0,1.107,1.5,2.941,2.941,0,0,0,2.374.444,2.549,2.549,0,0,0,2.41,1.7,2.572,2.572,0,0,0,1.686-.632,6.712,6.712,0,0,0,3.44,1.1,4.225,4.225,0,0,0,2.774-1,3.637,3.637,0,0,0,1.8.527,2.791,2.791,0,0,0,2.07-.932,2.515,2.515,0,0,0,.62-1.091,3.272,3.272,0,0,0,1.487.391,2.789,2.789,0,0,0,1.981-.875,2.739,2.739,0,0,0,.852-1.978,3.3,3.3,0,0,0,.476.039,2.543,2.543,0,0,0,1.876-.774,2.655,2.655,0,0,0,.436-3.226l2.575-1.874q.246.346.5.691a.934.934,0,0,0,.743.369.866.866,0,0,0,.39-.095l5.658-2.64a.936.936,0,0,0,.485-.538A.9.9,0,0,0,58.264,37.224Zm-49.413.764,4.995-13.983,3.936,1.765c-.764,5.817-3.84,11.58-4.9,13.424Zm9.673,4.768a.721.721,0,0,1-.3-.469.731.731,0,0,1,.121-.542L19,40.8a.72.72,0,0,1,.6-.311.746.746,0,0,1,.416.132.727.727,0,0,1,.262.852l-.667.961c-.049.071-.094.145-.136.219A.747.747,0,0,1,18.524,42.756Zm2.856,2.129a1,1,0,0,1-.307-1.29l.633-.912a2.485,2.485,0,0,0,.136-.216l.3-.427a1,1,0,0,1,1.8.792l-.988,1.421a2.932,2.932,0,0,0-.287.515A1.033,1.033,0,0,1,21.379,44.885Zm3.361,1.939a1.086,1.086,0,0,1-.424-1.166l.983-1.415a2.877,2.877,0,0,0,.3-.544l.215-.309a1.086,1.086,0,0,1,.89-.463,1.085,1.085,0,0,1,.89,1.707l-1.338,1.923A1.12,1.12,0,0,1,24.741,46.824Zm3.314,1.686a.71.71,0,0,1-.174-.99L29,45.907a.716.716,0,0,1,.585-.306.681.681,0,0,1,.4.127.712.712,0,0,1,.179.991l-.55.79a.912.912,0,0,0-.678.364.935.935,0,0,0-.177.687A.728.728,0,0,1,28.054,48.509Zm3.222-.139.413-.593a2.576,2.576,0,0,0,.451-1.254l2.716,2.257C34.315,49.1,33.157,49.438,31.276,48.37ZM46.22,43.947c-.6.6-1.812-.174-1.986-.29l-8.262-7.091a.927.927,0,0,0-1.207,1.407l8.212,7.049a1.233,1.233,0,0,1,.033,1.644c-.269.269-.717.717-1.97-.284-1.275-1.022-8.546-7.339-8.619-7.4a.926.926,0,1,0-1.217,1.4c.245.215,5,4.342,7.448,6.422.128.165.715.956.224,1.476-.738.78-1.718.027-1.918-.148l-3.967-3.3a.919.919,0,0,0-1.259.079,2.523,2.523,0,0,0-.68-.7,2.551,2.551,0,0,0-1.426-.456c-.008-.087-.018-.174-.033-.261A2.918,2.918,0,0,0,28.382,41.6a2.916,2.916,0,0,0-2.874-.268,2.841,2.841,0,0,0-3.649-1.346,2.566,2.566,0,0,0-2.265-1.352,2.587,2.587,0,0,0-2.118,1.107l-.316.456-2.044-1.182a41.214,41.214,0,0,0,4.4-12.253l6.656.537a8.208,8.208,0,0,0-.727,2.611,4.6,4.6,0,0,0-1.354,2.529,2.445,2.445,0,0,0,.769,2.234,3.592,3.592,0,0,0,3.4.485c2.023-.553,3.34-2.782,3.814-3.714a2.606,2.606,0,0,1,1.844.016c.774.511,7.856,7.033,12.134,11.022l0,0C46.225,42.674,46.78,43.392,46.22,43.947Zm.537-3.34c-2.434-2.266-10.769-10-11.817-10.695-1.491-.985-3.63-.184-3.867-.09a.94.94,0,0,0-.506.49c-.3.68-1.449,2.687-2.792,3.056a1.929,1.929,0,0,1-1.691-.09.612.612,0,0,1-.163-.585,2.945,2.945,0,0,1,.975-1.612.916.916,0,0,0,.353-.653,5.746,5.746,0,0,1,.717-2.534,22.78,22.78,0,0,1,4-2.766c.521-.132,3.024-.722,4.752-.005a13.948,13.948,0,0,1,3.156,1.744.946.946,0,0,0,.669.211l3.908-.315A41.607,41.607,0,0,0,49.5,38.614Zm5.316-1.481A39.755,39.755,0,0,1,46.225,26.2l3.3-2.112,6.644,13.129Z" transform="translate(-3.546 -3.545)" fill="#1656a1"/>
      </g>
      <g id="Group_02" data-name="Group  02" transform="translate(16.57 6.211)">
        <path id="Path_805" data-name="Path 805" d="M23.107,20.254a.922.922,0,0,0,.764.406.885.885,0,0,0,.521-.163.923.923,0,0,0,.242-1.286l-2.829-4.147a.925.925,0,1,0-1.528,1.043Z" transform="translate(-20.117 -9.756)" fill="#fea621"/>
        <path id="Path_806" data-name="Path 806" d="M28.992,18.943a.921.921,0,0,0,.911.774.788.788,0,0,0,.152-.01.929.929,0,0,0,.764-1.064L29.5,10.535a.927.927,0,1,0-1.829.3Z" transform="translate(-20.117 -9.756)" fill="#fea621"/>
        <path id="Path_807" data-name="Path 807" d="M35.809,19.706a.528.528,0,0,0,.127.01.921.921,0,0,0,.917-.8l1.132-8.114a.925.925,0,1,0-1.833-.253l-1.132,8.108A.926.926,0,0,0,35.809,19.706Z" transform="translate(-20.117 -9.756)" fill="#fea621"/>
        <path id="Path_808" data-name="Path 808" d="M41.094,20.513a.929.929,0,0,0,1.281-.274l3.2-5a.926.926,0,1,0-1.559-1l-3.2,4.994A.923.923,0,0,0,41.094,20.513Z" transform="translate(-20.117 -9.756)" fill="#fea621"/>
      </g>
    </g>
  </g>
</svg>
