<svg xmlns="http://www.w3.org/2000/svg" xmlns:xlink="http://www.w3.org/1999/xlink" width="65" height="65" viewBox="0 0 65 65">
  <defs>
    <clipPath id="clip-path">
      <rect id="Rectangle_812" data-name="Rectangle 812" width="65" height="65" transform="translate(10.026 14)" fill="#fff" stroke="#707070" stroke-width="1"/>
    </clipPath>
  </defs>
  <g id="buy-points" transform="translate(-10.026 -14)" clip-path="url(#clip-path)">
    <g id="Icon" transform="translate(14.026 20)">
      <g id="Group_01" data-name="Group 01" transform="translate(0 0)">
        <path id="Path_777" data-name="Path 777" d="M45.3,15.664a15.76,15.76,0,0,0-13.242,7.228,15.945,15.945,0,0,0-2.087-2.577H26.4a13.58,13.58,0,0,1,4.384,4.958,15.752,15.752,0,0,0,0,12.307,13.462,13.462,0,1,1-14.1-19.451,2.851,2.851,0,0,1-.034-1.214l.212-1.126a15.759,15.759,0,1,0,15.19,24.173,15.892,15.892,0,0,0,2.327,2.814h3.681a13.461,13.461,0,1,1,8.217,2.076,2.869,2.869,0,0,1,.065,1.325l-.186.986a15.761,15.761,0,0,0-.865-31.5Z" transform="translate(-3.06 -5.205)" fill="#1656a1"/>
        <path id="Path_778" data-name="Path 778" d="M40.56,17.177l.02-.007a17.693,17.693,0,0,1,2.94-.593c-.047-3.912-1.383-7.5-5.693-9.546-7.912-3.76-13.846,2.385-13.846,2.385l-2.2-4.211L19.476,17.446H31.367s-1.452-2.088-3.1-3.957C32.754,10.439,37.37,12.637,40.56,17.177Z" transform="translate(-3.06 -5.205)" fill="none" stroke="#1656a1" stroke-linejoin="round" stroke-miterlimit="10" stroke-width="2.295"/>
        <path id="Path_779" data-name="Path 779" d="M31.639,45.646s1.452,2.088,3.1,3.957c-4.557,3.1-9.245.781-12.439-3.9-.1.014-.207.018-.313.023a3.276,3.276,0,0,1-2.5.493h0c-.017,4.028,1.281,7.742,5.7,9.843,7.912,3.76,13.845-2.384,13.845-2.384l2.2,4.211,2.307-12.241H31.639Z" transform="translate(-3.06 -5.205)" fill="none" stroke="#1656a1" stroke-linejoin="round" stroke-miterlimit="10" stroke-width="2.295"/>
      </g>
      <g id="Group_02" data-name="Group 02">
        <path id="Path_780" data-name="Path 780" d="M23.832,39.494a.977.977,0,0,1-.455-.112L18.9,37.029l-4.476,2.353a.976.976,0,0,1-1.417-1.029l.855-4.985-3.622-3.53a.977.977,0,0,1,.542-1.666l5-.727,2.238-4.535a.977.977,0,0,1,1.751,0l2.238,4.535,5,.727a.977.977,0,0,1,.542,1.666l-3.621,3.53.855,4.985a.977.977,0,0,1-.963,1.142ZM18.9,34.949a.973.973,0,0,1,.455.112l3.18,1.672-.608-3.541a.977.977,0,0,1,.281-.864l2.572-2.507L21.227,29.3a.976.976,0,0,1-.736-.534L18.9,25.55l-1.589,3.221a.975.975,0,0,1-.736.534l-3.554.516,2.572,2.507a.979.979,0,0,1,.281.864l-.607,3.54,3.179-1.672A.981.981,0,0,1,18.9,34.949Z" transform="translate(-3.061 -5.205)" fill="#fea621"/>
        <path id="Path_781" data-name="Path 781" d="M50.446,26.684a5.811,5.811,0,0,0-4.357-3.726V22.15a1.147,1.147,0,0,0-2.295,0v.863a5.539,5.539,0,0,0-3.879,4.535c-.11.9-.122,3.82,3.879,5.123v4.844c-1.894-.222-2.134-1-2.137-1a1.352,1.352,0,0,0-1.363-.87,1.022,1.022,0,0,0-.906,1.192c.032.286.418,2.619,4.407,2.985v.755a1.147,1.147,0,1,0,2.295,0v-.842a4.305,4.305,0,0,0,3.395-3.7,4.864,4.864,0,0,0-3.395-5.045V25.317A3.472,3.472,0,0,1,48.267,27.4a1.147,1.147,0,0,0,2.18-.716Zm-8.254,1.143a3.327,3.327,0,0,1,1.6-2.334v4.714A2.336,2.336,0,0,1,42.192,27.828Zm5.013,7.924A2.018,2.018,0,0,1,46.089,37.3V33.567A2.344,2.344,0,0,1,47.205,35.752Z" transform="translate(-3.061 -5.205)" fill="#fea621"/>
      </g>
    </g>
  </g>
</svg>
