<svg xmlns="http://www.w3.org/2000/svg" width="14.869" height="12.887" viewBox="0 0 14.869 12.887">
  <g id="camera" transform="translate(0 0)">
    <path id="Path_278" data-name="Path 278" d="M76.013,120.345l.151-.4c.074-.2.151-.394.222-.593a1.427,1.427,0,0,1,.505-.671,1.449,1.449,0,0,1,.723-.307,1.708,1.708,0,0,1,.177-.009c1.279,0,2.557,0,3.835,0a1.529,1.529,0,0,1,1.044.4,1.4,1.4,0,0,1,.4.59c.115.319.238.635.356.953a.054.054,0,0,0,.062.042c.57,0,1.14,0,1.71,0a1.979,1.979,0,0,1,1.922,1.576,2.375,2.375,0,0,1,.039.409c0,2.311,0,4.622,0,6.934a1.99,1.99,0,0,1-1.255,1.852,1.943,1.943,0,0,1-.711.132H76.438q-1.091,0-2.182,0a1.832,1.832,0,0,1-1.022-.294,1.947,1.947,0,0,1-.9-1.287,2.175,2.175,0,0,1-.038-.412q0-3.455,0-6.911a1.98,1.98,0,0,1,1.185-1.837,1.9,1.9,0,0,1,.766-.16c.572,0,1.145,0,1.718,0Zm.249,5.451a3.469,3.469,0,1,0,3.469-3.468A3.467,3.467,0,0,0,76.262,125.8Z" transform="translate(-72.298 -118.36)" fill="#fff"/>
    <path id="Path_279" data-name="Path 279" d="M195.716,239.623a2.233,2.233,0,1,1-2.249-2.235A2.25,2.25,0,0,1,195.716,239.623Z" transform="translate(-186.052 -232.188)" fill="#fff"/>
  </g>
</svg>
