<svg id="clock" xmlns="http://www.w3.org/2000/svg" width="50.658" height="50.658" viewBox="0 0 50.658 50.658">
  <g id="Group_389" data-name="Group 389" transform="translate(0 0)">
    <g id="Group_388" data-name="Group 388">
      <path id="Path_350" data-name="Path 350" d="M43.239,7.419A25.329,25.329,0,0,0,7.419,43.239,25.329,25.329,0,0,0,43.239,7.419ZM25.329,45.686A20.38,20.38,0,0,1,4.972,25.329c0-.018,0-.037,0-.055s0-.009,0-.014,0-.015,0-.023A20.379,20.379,0,0,1,25.052,4.975c.023,0,.046,0,.07,0l.042,0,.166,0a20.357,20.357,0,1,1,0,40.714Z" transform="translate(0 0)" fill="#fff"/>
    </g>
  </g>
  <g id="Group_391" data-name="Group 391" transform="translate(8.028 8.017)">
    <g id="Group_390" data-name="Group 390">
      <path id="Path_351" data-name="Path 351" d="M113.906,99.564a1.5,1.5,0,0,1,0-3h1.807A17.389,17.389,0,0,0,99.734,81.029V82.6a1.5,1.5,0,1,1-3,0V81.065A17.389,17.389,0,0,0,81.154,96.773h1.618a1.5,1.5,0,1,1,0,3h-1.63a17.388,17.388,0,0,0,15.8,15.864v-1.9a1.5,1.5,0,0,1,3,0v1.9a17.387,17.387,0,0,0,15.817-16.071Zm-9.4-5.17L99.5,99.4a1.5,1.5,0,0,1-2.12,0l-8.716-8.716a1.5,1.5,0,0,1,2.12-2.12l7.656,7.656,3.948-3.948a1.5,1.5,0,1,1,2.119,2.12Z" transform="translate(-81.142 -81.029)" fill="#fff"/>
    </g>
  </g>
</svg>
