<svg xmlns="http://www.w3.org/2000/svg" width="15.464" height="15.403" viewBox="0 0 15.464 15.403">
  <g id="comment" transform="translate(220.869 -4)">
    <path id="Path_500" data-name="Path 500" d="M-213.454,4h.521a.676.676,0,0,0,.077.012,7.2,7.2,0,0,1,1.258.16,7.508,7.508,0,0,1,4.325,2.636,7.525,7.525,0,0,1,1.7,5.781,7.227,7.227,0,0,1-.608,2.208.447.447,0,0,0-.041.322c.026.093.039.19.057.286q.327,1.71.655,3.42c.034.177.073.353.11.53V19.4c-.013,0-.025-.008-.038-.01l-1.048-.18q-1.658-.287-3.315-.576a.349.349,0,0,0-.219.028,7.432,7.432,0,0,1-2.486.656,7.574,7.574,0,0,1-2.68-.234,7.515,7.515,0,0,1-3.943-2.558,7.523,7.523,0,0,1-1.692-5.677,7.278,7.278,0,0,1,.735-2.545,7.638,7.638,0,0,1,3.345-3.432,7.478,7.478,0,0,1,2.924-.846Zm6.879,14.255a.258.258,0,0,0,0-.03q-.316-1.648-.634-3.3a.293.293,0,0,1,.03-.2,6.641,6.641,0,0,0,.69-2.345,6.735,6.735,0,0,0-.268-2.711,6.74,6.74,0,0,0-7.666-4.625,6.53,6.53,0,0,0-4.093,2.5,6.541,6.541,0,0,0-1.3,5.438,6.559,6.559,0,0,0,2.469,4.014,6.575,6.575,0,0,0,2.892,1.312,6.751,6.751,0,0,0,2.517,0,6.75,6.75,0,0,0,1.813-.62.2.2,0,0,1,.118-.021q1.5.257,3.006.518Z" fill="#0055a6"/>
  </g>
</svg>
