<svg xmlns="http://www.w3.org/2000/svg" width="33.979" height="33.954" viewBox="0 0 33.979 33.954">
  <g id="contact" transform="translate(0.522 0.61)">
    <g id="Group_394" data-name="Group 394" transform="translate(0 0)">
      <g id="Group_393" data-name="Group 393" transform="translate(0)">
        <path id="Path_367" data-name="Path 367" d="M32.985,26.356l-6.648-4.434a1.94,1.94,0,0,0-2.6.422L21.8,24.834a.828.828,0,0,1-1.061.223l-.368-.2a22.262,22.262,0,0,1-5.8-4.557,22.353,22.353,0,0,1-4.557-5.8l-.2-.368a.829.829,0,0,1,.219-1.065l2.488-1.936a1.941,1.941,0,0,0,.423-2.6L8.507,1.88a1.93,1.93,0,0,0-2.6-.586l-2.78,1.67A3.922,3.922,0,0,0,1.337,5.285c-1,3.648-.248,9.943,9.025,19.217,7.377,7.376,12.868,9.36,16.643,9.36a9.7,9.7,0,0,0,2.573-.336A3.918,3.918,0,0,0,31.9,31.738l1.672-2.778A1.931,1.931,0,0,0,32.985,26.356ZM32.627,28.4l-1.668,2.78a2.829,2.829,0,0,1-1.669,1.294c-3.367.924-9.25.159-18.153-8.744S1.468,8.942,2.392,5.574A2.833,2.833,0,0,1,3.688,3.9l2.78-1.668A.837.837,0,0,1,7.6,2.489L10.006,6.1l2.021,3.032a.842.842,0,0,1-.183,1.128L9.355,12.2a1.916,1.916,0,0,0-.507,2.459l.2.359a23.22,23.22,0,0,0,4.745,6.054,23.245,23.245,0,0,0,6.053,4.744l.36.2a1.916,1.916,0,0,0,2.459-.507L24.6,23.018a.843.843,0,0,1,1.128-.183l6.648,4.434A.837.837,0,0,1,32.627,28.4Z" transform="translate(-1 -1.018)" fill="#0055a6" stroke="#0055a6" stroke-width="1"/>
        <path id="Path_368" data-name="Path 368" d="M283.175,70.419a9.315,9.315,0,0,1,9.305,9.305.547.547,0,0,0,1.095,0,10.411,10.411,0,0,0-10.4-10.4.547.547,0,1,0,0,1.095Z" transform="translate(-264.563 -64.943)" fill="#0055a6" stroke="#0055a6" stroke-width="1"/>
        <path id="Path_369" data-name="Path 369" d="M283.175,121.619a6.028,6.028,0,0,1,6.021,6.021.547.547,0,0,0,1.095,0,7.124,7.124,0,0,0-7.116-7.116.547.547,0,0,0,0,1.095Z" transform="translate(-264.563 -112.858)" fill="#0055a6" stroke="#0055a6" stroke-width="1"/>
        <path id="Path_370" data-name="Path 370" d="M283.175,172.819a2.74,2.74,0,0,1,2.737,2.737.547.547,0,1,0,1.095,0,3.836,3.836,0,0,0-3.832-3.831.547.547,0,0,0,0,1.095Z" transform="translate(-264.563 -160.774)" fill="#0055a6" stroke="#0055a6" stroke-width="1"/>
      </g>
    </g>
  </g>
</svg>
