<svg xmlns="http://www.w3.org/2000/svg" xmlns:xlink="http://www.w3.org/1999/xlink" width="65" height="65" viewBox="0 0 65 65">
  <defs>
    <clipPath id="clip-path">
      <rect id="Rectangle_815" data-name="Rectangle 815" width="65" height="65" transform="translate(9.961 11)" fill="#fff" stroke="#707070" stroke-width="1"/>
    </clipPath>
  </defs>
  <g id="donate" transform="translate(-9.961 -11)" clip-path="url(#clip-path)">
    <g id="Icon" transform="translate(13.96 16)">
      <g id="Group_01" data-name="Group  01">
        <path id="Path_817" data-name="Path 817" d="M14.106,59.176c-1.382,0-4.074-2.264-5.6-3.655-1.6-1.462-5.306-5.109-5.136-7.394.152-2.042,2.8-3.655,5.129-5.079a12.03,12.03,0,0,0,2.4-1.677c.086-.123.176-.256.271-.4a10.866,10.866,0,0,1,7.641-5.136c4.728-.937,11.173,1.571,12.309,2.037l8.705.093a4.566,4.566,0,0,1,3.223,1.5c3.488-3.216,12.878-11.291,16.351-8.425a2.566,2.566,0,0,1,.968,1.945c.084,2.738-3.894,6.451-7.74,10.041-1.592,1.487-3.1,2.89-4.064,4.014a19.271,19.271,0,0,1-8.589,6.015c-.659.119-13.425.035-16.548-.028h-.071c-1.848,0-3.217,1.467-4.667,3.019-1.3,1.387-2.635,2.821-4.4,3.115A1.112,1.112,0,0,1,14.106,59.176ZM14.1,57.423ZM21.109,37.39a10.059,10.059,0,0,0-1.958.176,9.183,9.183,0,0,0-6.527,4.4c-.1.15-.2.292-.291.423a10.684,10.684,0,0,1-2.916,2.163c-1.675,1.021-4.206,2.566-4.291,3.708-.158,2.113,7.254,8.823,8.934,9.157,1.152-.227,2.215-1.366,3.34-2.57,1.567-1.678,3.341-3.577,5.95-3.577h.11c4.094.084,15.291.119,16.213.053a18.153,18.153,0,0,0,7.556-5.429c1.03-1.2,2.568-2.631,4.2-4.151,3.056-2.853,7.242-6.76,7.182-8.7a.8.8,0,0,0-.329-.643C56.54,30.963,49.372,35.89,43.6,41.356a3.415,3.415,0,0,1-.97,2.586,3.2,3.2,0,0,1-2.393.795H27.229a.879.879,0,0,1,0-1.759l13.155.006h0a1.476,1.476,0,0,0,1.045-.33,2.124,2.124,0,0,0,.4-1.605.024.024,0,0,1,0-.006c-.074-1.114-1.859-1.3-2.053-1.316l-9.022-.1-.161-.068C30.534,39.539,25.433,37.39,21.109,37.39Z" transform="translate(-3.366 -4.557)" fill="#1656a1" stroke="#0055a6" stroke-width="0.8"/>
      </g>
      <g id="Group_02" data-name="Group 02">
        <path id="Path_816" data-name="Path 816" d="M44.141,11.529c-.5-3.62-3.442-6.674-6.694-6.953-1.324-.113-4.342.171-6.461,4.487-2.119-4.317-5.138-4.6-6.461-4.487-3.252.28-6.193,3.334-6.694,6.953C16.683,19.821,28.119,29.151,30.2,30.772a.668.668,0,0,0,.038.062.877.877,0,0,0,.7.351c.016,0,.031-.006.047-.008s.031.008.047.008a.877.877,0,0,0,.7-.351c.015-.02.025-.041.038-.062C33.854,29.151,45.289,19.821,44.141,11.529ZM30.986,29.15C28.472,27.127,18.613,18.7,19.573,11.769c.387-2.793,2.676-5.234,5.1-5.443,2.283-.194,4.186,1.622,5.392,5.12a.866.866,0,0,0,.887.986h.009c.019,0,.04,0,.059,0a.864.864,0,0,0,.882-.985c1.205-3.5,3.1-5.313,5.392-5.12,2.427.208,4.716,2.65,5.1,5.443C43.359,18.7,33.5,27.128,30.986,29.15Z" transform="translate(-3.366 -4.557)" fill="#fea621" stroke="#fea621" stroke-width="1"/>
      </g>
    </g>
  </g>
</svg>
