<svg xmlns="http://www.w3.org/2000/svg" width="35.937" height="35.878" viewBox="0 0 35.937 35.878">
  <g id="earth" transform="translate(0.452 0.4)">
    <g id="Group_392" data-name="Group 392" transform="translate(0 0)">
      <path id="Path_361" data-name="Path 361" d="M17.549.05A17.539,17.539,0,0,0,1.423,10.686l-.219.072.085.254A17.538,17.538,0,1,0,17.549.05ZM31.306,26.432l-.9-.9v-2.1a.584.584,0,0,0-.058-.261l-2.28-4.554v-2.2a.585.585,0,0,0-.26-.486l-1.754-1.169a.585.585,0,0,0-.468-.081l-2.148.537L19.83,13.672l-.5-3.477,1.376-1.375h2.953l.994,1.494a.585.585,0,0,0,.391.252l3.508.585a.58.58,0,0,0,.281-.022l3.231-1.077A16.311,16.311,0,0,1,31.306,26.432ZM28.895,5.811l-.951.634-2.65-.53-1.719-.572a.574.574,0,0,0-.326-.013l-2.174.543-.953-.317.706-1.412h1.977a.584.584,0,0,0,.261-.061L25.09,3.07A16.43,16.43,0,0,1,28.895,5.811ZM11.14,2.525l1.4.935a.584.584,0,0,0,.229.09l2.833.472-.277.827-1.476.493a.585.585,0,0,0-.316.253l-1.679,2.8-2.7,1.618-3.976.568a.585.585,0,0,0-.5.578v1.754a.585.585,0,0,0,.171.413l1,1v1L3.419,13.706l-.882-2.647A16.464,16.464,0,0,1,11.14,2.525ZM9.476,21.693l-2.643-.529L5.851,19.2V17.831l2.178-2.178.806,1.613a.585.585,0,0,0,.523.323H13.12l1.584,2.64a.585.585,0,0,0,.5.284H16.83l-.409,2.05-2.213,2.213a.585.585,0,0,0-.172.413v1.462l-2.1,1.579a.585.585,0,0,0-.234.468v2.112l-.727-.241L9.943,28V22.266A.585.585,0,0,0,9.476,21.693ZM7.718,30.68A16.365,16.365,0,0,1,1.888,12.809l.486,1.457a.584.584,0,0,0,.23.3L5.518,16.51l-.665.665a.585.585,0,0,0-.171.413v1.754a.584.584,0,0,0,.061.261l1.169,2.339a.585.585,0,0,0,.409.312l2.455.491v5.367a.585.585,0,0,0,.042.217l1.169,2.923a.585.585,0,0,0,.358.337l1.754.585a.575.575,0,0,0,.182.03.585.585,0,0,0,.585-.585V28.989l2.1-1.578a.585.585,0,0,0,.234-.468V25.431l2.167-2.167a.585.585,0,0,0,.16-.3l.585-2.923a.585.585,0,0,0-.573-.7H15.536L13.952,16.7a.585.585,0,0,0-.5-.284H9.72l-1-2.015a.585.585,0,0,0-.43-.316.573.573,0,0,0-.507.164l-.759.756v-.927a.585.585,0,0,0-.171-.413l-1-1v-1l3.591-.513a.587.587,0,0,0,.218-.078L12.583,9.32a.584.584,0,0,0,.2-.2l1.643-2.738,1.549-.517a.579.579,0,0,0,.369-.369l.585-1.754a.585.585,0,0,0-.458-.76l-3.384-.564-.595-.4a16.325,16.325,0,0,1,11.244.418l-1.068.533h-2.2a.585.585,0,0,0-.526.323L18.771,5.635a.585.585,0,0,0,.339.816l1.754.585a.574.574,0,0,0,.326.013L23.364,6.5l1.593.53a.43.43,0,0,0,.07.019l2.923.585a.581.581,0,0,0,.439-.087l1.331-.887a16.493,16.493,0,0,1,1.759,2.35L28.6,9.973l-3.114-.519L24.458,7.91a.585.585,0,0,0-.483-.26H20.467a.585.585,0,0,0-.413.171L18.3,9.575a.585.585,0,0,0-.165.5l.585,4.092a.585.585,0,0,0,.351.454l4.092,1.754a.578.578,0,0,0,.372.03l2.088-.522,1.276.852v2.026a.584.584,0,0,0,.058.261l2.28,4.554v2.2a.585.585,0,0,0,.171.413l1.223,1.224A16.366,16.366,0,0,1,7.718,30.68Z" transform="translate(0 -0.05)" fill="#0055a6" stroke="#0055a6" stroke-width="0.8"/>
    </g>
  </g>
</svg>
