<svg xmlns="http://www.w3.org/2000/svg" width="16.513" height="10.019" viewBox="0 0 16.513 10.019">
  <g id="eye" transform="translate(0 0)">
    <path id="Path_281" data-name="Path 281" d="M50.084,164.229a9.686,9.686,0,0,1-8.049-4.7l-.225-.342.226-.34a9.679,9.679,0,0,1,8.013-4.641,9.686,9.686,0,0,1,8.049,4.7l.225.342-.226.34A9.68,9.68,0,0,1,50.084,164.229Zm-7.1-5.034a8.368,8.368,0,0,0,14.167.048,8.368,8.368,0,0,0-14.167-.048Z" transform="translate(-41.81 -154.21)" fill="#fff"/>
    <ellipse id="Ellipse_31" data-name="Ellipse 31" cx="2.503" cy="3.013" rx="2.503" ry="3.013" transform="translate(5.736 1.975)" fill="#fff"/>
  </g>
</svg>
