<svg xmlns="http://www.w3.org/2000/svg" width="26.573" height="26.576" viewBox="0 0 26.573 26.576">
  <g id="home" transform="translate(-21.646 -6.712)">
    <path id="Icon" d="M25.859,11.559l0,0L15.016.716a2.446,2.446,0,0,0-3.46,0L.721,11.551l-.011.011a2.446,2.446,0,0,0,1.628,4.168q.037,0,.075,0h.432v7.978a2.867,2.867,0,0,0,2.864,2.863H9.951a.779.779,0,0,0,.779-.779V19.542a1.308,1.308,0,0,1,1.306-1.306h2.5a1.308,1.308,0,0,1,1.306,1.306V25.8a.779.779,0,0,0,.779.779h4.241a2.867,2.867,0,0,0,2.864-2.863V15.734h.4a2.447,2.447,0,0,0,1.731-4.176Zm0,0" transform="translate(21.646 6.713)" fill="#fff"/>
  </g>
</svg>
