<svg xmlns="http://www.w3.org/2000/svg" width="32.846" height="32.846" viewBox="0 0 32.846 32.846">
  <g id="letter" transform="translate(0)">
    <path id="Path_362" data-name="Path 362" d="M2.806,32.686c.37.229-1.414.144,26.191.144a3.853,3.853,0,0,0,3.849-3.847V26.1a.962.962,0,0,0-.962-.962H29.638V4.021A4.027,4.027,0,0,0,25.615,0H.962A.962.962,0,0,0,0,.962V28.983a3.848,3.848,0,0,0,2.806,3.7Zm28.115-3.7A1.926,1.926,0,0,1,29,30.907H7.182A3.823,3.823,0,0,0,7.7,28.983V27.059H30.921Zm-29-27.059h23.69a2.1,2.1,0,0,1,2.1,2.1V25.136H6.736a.962.962,0,0,0-.962.962v2.836a1.932,1.932,0,0,1-3.285,1.41,1.911,1.911,0,0,1-.564-1.36Z" transform="translate(0 0)" fill="#0055a6"/>
    <path id="Path_363" data-name="Path 363" d="M94.616,92.881h15.7a.962.962,0,1,0,0-1.924h-15.7a.962.962,0,1,0,0,1.924Z" transform="translate(-87.646 -85.122)" fill="#0055a6"/>
    <path id="Path_364" data-name="Path 364" d="M94.616,162.848h15.7a.962.962,0,1,0,0-1.924h-15.7a.962.962,0,1,0,0,1.924Z" transform="translate(-87.646 -150.601)" fill="#0055a6"/>
    <path id="Path_365" data-name="Path 365" d="M94.616,232.816h15.7a.962.962,0,1,0,0-1.924h-15.7a.962.962,0,1,0,0,1.924Z" transform="translate(-87.646 -216.08)" fill="#0055a6"/>
    <path id="Path_366" data-name="Path 366" d="M94.616,302.783h15.7a.962.962,0,1,0,0-1.924h-15.7a.962.962,0,1,0,0,1.924Z" transform="translate(-87.646 -281.558)" fill="#0055a6"/>
  </g>
</svg>
