<svg xmlns="http://www.w3.org/2000/svg" width="16.559" height="14.842" viewBox="0 0 16.559 14.842">
  <path id="like" d="M14.325,1.355A4.184,4.184,0,0,0,11.213,0,3.914,3.914,0,0,0,8.768.844,5,5,0,0,0,7.78,1.876,5,5,0,0,0,6.791.844,3.914,3.914,0,0,0,4.347,0,4.184,4.184,0,0,0,1.235,1.355,4.863,4.863,0,0,0,0,4.676,5.791,5.791,0,0,0,1.544,8.467a32.906,32.906,0,0,0,3.863,3.626c.535.456,1.142.973,1.772,1.524a.913.913,0,0,0,1.2,0c.63-.551,1.237-1.068,1.772-1.525a32.888,32.888,0,0,0,3.863-3.625,5.79,5.79,0,0,0,1.543-3.791,4.863,4.863,0,0,0-1.234-3.321Zm0,0" transform="translate(0.5 0.5)" fill="none" stroke="#0055a6" stroke-width="1"/>
</svg>
