<svg xmlns="http://www.w3.org/2000/svg" width="28.365" height="28.365" viewBox="0 0 28.365 28.365">
  <g id="Icon" transform="translate(0)">
    <path id="Path_285" data-name="Path 285" d="M170.065,160.9a11.666,11.666,0,0,0-1.05-16.32A13.34,13.34,0,0,1,156.2,161.556c-.17,0,.856.006-3.185-.019a11.62,11.62,0,0,0,8.226,3.4l10.834-.055a.832.832,0,0,0,.58-1.423Z" transform="translate(-144.539 -136.57)" fill="#0055a6"/>
    <path id="Path_286" data-name="Path 286" d="M11.662,23.324a11.66,11.66,0,1,0-8.823-4.035L.248,21.846a.832.832,0,0,0,.58,1.423ZM6.7,7.535h9.972a.831.831,0,0,1,0,1.662H6.7a.831.831,0,0,1,0-1.662Zm0,3.324h9.972a.831.831,0,0,1,0,1.662H6.7a.831.831,0,0,1,0-1.662Zm-.831,4.155a.831.831,0,0,1,.831-.831h9.972a.831.831,0,0,1,0,1.662H6.7A.831.831,0,0,1,5.873,15.014Z" fill="#0055a6"/>
  </g>
</svg>
