<svg xmlns="http://www.w3.org/2000/svg" width="26.648" height="26.648" viewBox="0 0 26.648 26.648">
  <g id="my-orders" transform="translate(-1.677 -47.679)">
    <path id="icon" d="M7.071,3a1.481,1.481,0,0,0-1.278.734L3.2,8.176a1.481,1.481,0,0,0-.2.746V26.687a2.983,2.983,0,0,0,2.961,2.961H26.687a2.983,2.983,0,0,0,2.961-2.961V8.922a1.481,1.481,0,0,0-.2-.746L26.855,3.734A1.481,1.481,0,0,0,25.577,3Zm.85,2.961H24.727l1.726,2.961H6.2Zm-1.96,5.922H26.687v14.8H5.961Zm5.922,2.961V17.8h8.883V14.844Z" transform="translate(-1.323 44.679)" fill="#fff"/>
  </g>
</svg>
