<svg xmlns="http://www.w3.org/2000/svg" xmlns:xlink="http://www.w3.org/1999/xlink" width="50" height="50" viewBox="0 0 50 50">
  <defs>
    <clipPath id="clip-path">
      <rect id="Rectangle_810" data-name="Rectangle 810" width="50" height="50" transform="translate(287 306)" fill="#fff" stroke="#707070" stroke-width="1"/>
    </clipPath>
  </defs>
  <g id="ordered" transform="translate(-287 -306)" clip-path="url(#clip-path)">
    <g id="Icon" transform="translate(294 307)">
      <ellipse id="Ellipse_137" data-name="Ellipse 137" cx="2.303" cy="2.303" rx="2.303" ry="2.303" transform="translate(8.085 8.547)" fill="#fff" stroke="#19589e" stroke-linecap="round" stroke-linejoin="round" stroke-miterlimit="10" stroke-width="1"/>
      <ellipse id="Ellipse_138" data-name="Ellipse 138" cx="2.303" cy="2.303" rx="2.303" ry="2.303" transform="translate(23.025 8.547)" fill="#fff" stroke="#19589e" stroke-linecap="round" stroke-linejoin="round" stroke-miterlimit="10" stroke-width="1"/>
      <path id="Path_665" data-name="Path 665" d="M971.732,374.65h.333A6.932,6.932,0,0,1,979,381.582v4.423a6.932,6.932,0,0,1-6.932,6.932h-.333a6.932,6.932,0,0,1-6.932-6.932v-4.423A6.934,6.934,0,0,1,971.732,374.65Z" transform="translate(-954.06 -373.562)" fill="#fff" stroke="#19589e" stroke-linecap="round" stroke-linejoin="round" stroke-miterlimit="10" stroke-width="1"/>
      <path id="Path_666" data-name="Path 666" d="M978.558,387.658s-6.214,5.771-15.4,0C964.383,383.257,977.5,383.729,978.558,387.658Z" transform="translate(-953.021 -379.826)" fill="#a9bdd3" stroke="#19589e" stroke-linecap="round" stroke-linejoin="round" stroke-miterlimit="10" stroke-width="1"/>
      <path id="Path_667" data-name="Path 667" d="M978.558,379.513h-15.4s0-7.833,7.7-7.833S978.558,379.513,978.558,379.513Z" transform="translate(-953.021 -371.68)" fill="#a9bdd3" stroke="#19589e" stroke-linecap="round" stroke-linejoin="round" stroke-miterlimit="10" stroke-width="1"/>
      <path id="Path_668" data-name="Path 668" d="M942.264,434.65c3.072-5.932,10.623-4.672,11.373-4.53.747-.143,8.3-1.4,11.373,4.53,3.233,6.243,8.085,15.555,5.8,18.173s-13.435,4.738-15.054-1.4c-.857-.022-1.549-.037-2.12-.051-.568.015-1.263.029-2.12.051-1.619,6.133-12.765,4.013-15.054,1.4S939.031,440.893,942.264,434.65Z" transform="translate(-935.871 -408.589)" fill="#a9bdd3" stroke="#19589e" stroke-linecap="round" stroke-linejoin="round" stroke-miterlimit="10" stroke-width="1"/>
      <path id="Path_669" data-name="Path 669" d="M990.216,483.132s-.6-6.562,3.047-8.261c6.807-3.178,6.8,4.541,6.8,4.541S998.84,484.513,990.216,483.132Z" transform="translate(-984.42 -436.599)" fill="#a9bdd3" stroke="#19589e" stroke-linecap="round" stroke-linejoin="round" stroke-miterlimit="10" stroke-width="1"/>
      <path id="Path_670" data-name="Path 670" d="M990.216,483.132s-.6-6.562,3.047-8.261c6.807-3.178,6.8,4.541,6.8,4.541S998.84,484.513,990.216,483.132Z" transform="translate(-984.42 -436.599)" fill="#fff" stroke="#19589e" stroke-linecap="round" stroke-linejoin="round" stroke-miterlimit="10" stroke-width="1"/>
      <path id="Path_671" data-name="Path 671" d="M961.857,483.132s.6-6.562-3.047-8.261c-6.807-3.178-6.8,4.541-6.8,4.541S953.237,484.513,961.857,483.132Z" transform="translate(-932.274 -436.599)" fill="#fff" stroke="#19589e" stroke-linecap="round" stroke-linejoin="round" stroke-miterlimit="10" stroke-width="1"/>
      <g id="Group_693" data-name="Group 693" transform="translate(9.294 26.398)">
        <path id="Path_672" data-name="Path 672" d="M961.25,460.186h16.943V443.77H961.25Z" transform="translate(-961.25 -443.77)" fill="#a9bdd3" stroke="#19589e" stroke-linecap="round" stroke-linejoin="round" stroke-miterlimit="10" stroke-width="1"/>
        <rect id="Rectangle_562" data-name="Rectangle 562" width="4.306" height="4.892" transform="translate(6.317)" fill="#fff" stroke="#19589e" stroke-linecap="round" stroke-linejoin="round" stroke-miterlimit="10" stroke-width="1"/>
      </g>
    </g>
  </g>
</svg>
