<svg xmlns="http://www.w3.org/2000/svg" width="30" height="31" viewBox="0 0 30 31">
  <g id="order-prod" transform="translate(-5962 1449)">
    <rect id="BG" width="30" height="31" transform="translate(5962 -1449)" fill="none"/>
    <path id="icon" d="M6.958,3a1.44,1.44,0,0,0-1.243.714L3.2,8.032a1.444,1.444,0,0,0-.2.725V26.031A2.882,2.882,0,0,0,5.879,28.91h10.5a10.063,10.063,0,0,1-.424-2.879H5.879V11.637H26.031v4.318a10.063,10.063,0,0,1,2.879.424V8.758a1.444,1.444,0,0,0-.2-.725L26.194,3.714A1.44,1.44,0,0,0,24.951,3Zm.827,2.879h16.34L25.8,8.758H6.107Zm3.852,8.637v2.879h8.637V14.516Zm13.025,4.318a.365.365,0,0,0-.363.323l-.169,1.456A5.721,5.721,0,0,0,22.258,21.7l-1.347-.585a.367.367,0,0,0-.461.155L19.1,23.6a.366.366,0,0,0,.1.475l1.161.863a5.376,5.376,0,0,0,0,2.187l-1.161.863a.364.364,0,0,0-.1.475L20.45,30.8a.364.364,0,0,0,.461.152l1.347-.582a5.7,5.7,0,0,0,1.872,1.082L24.3,32.9a.365.365,0,0,0,.363.323h2.7a.365.365,0,0,0,.363-.323l.166-1.456a5.733,5.733,0,0,0,1.875-1.082l1.347.585a.367.367,0,0,0,.461-.155l1.347-2.333a.365.365,0,0,0-.1-.475l-1.161-.863a5.507,5.507,0,0,0,0-2.187l1.161-.863a.364.364,0,0,0,.1-.475L31.57,21.266a.367.367,0,0,0-.461-.155l-1.347.585a5.733,5.733,0,0,0-1.875-1.082l-.166-1.456a.365.365,0,0,0-.363-.323Zm1.347,4.318a2.879,2.879,0,1,1-2.879,2.879A2.879,2.879,0,0,1,26.009,23.152Z" transform="translate(5959.017 -1451.614)" fill="#fff"/>
  </g>
</svg>
