<svg id="payments" xmlns="http://www.w3.org/2000/svg" width="44.697" height="44.697" viewBox="0 0 44.697 44.697">
  <g id="Group_387" data-name="Group 387">
    <g id="Group_386" data-name="Group 386">
      <path id="Path_349" data-name="Path 349" d="M22.349,0A22.349,22.349,0,1,0,44.7,22.349,22.349,22.349,0,0,0,22.349,0Zm6.419,31.159a7.188,7.188,0,0,1-3.725,2.391,1.036,1.036,0,0,0-.9,1.186c.028.662,0,1.315-.009,1.977a.819.819,0,0,1-.883.92c-.377.009-.754.018-1.131.018-.331,0-.662,0-.993-.009a.854.854,0,0,1-.92-.975c-.009-.478-.009-.966-.009-1.444-.009-1.067-.046-1.1-1.067-1.269A13.556,13.556,0,0,1,15.34,32.87c-.938-.46-1.039-.69-.773-1.683.2-.736.4-1.472.635-2.2.166-.533.322-.773.607-.773a1.612,1.612,0,0,1,.662.23,12.27,12.27,0,0,0,4.212,1.26,6.748,6.748,0,0,0,.745.046,4.97,4.97,0,0,0,2.014-.414,2.143,2.143,0,0,0,.515-3.762,6.716,6.716,0,0,0-1.573-.92,36.818,36.818,0,0,1-4.3-1.931c-2.207-1.324-3.605-3.136-3.44-5.822.184-3.035,1.9-4.93,4.69-5.941,1.15-.414,1.159-.4,1.159-1.6,0-.4-.009-.809.009-1.223.028-.9.175-1.058,1.076-1.085h1.048c1.711,0,1.711.074,1.72,1.922.009,1.361.009,1.361,1.361,1.573a11.976,11.976,0,0,1,2.98.892.866.866,0,0,1,.561,1.159c-.239.828-.469,1.665-.727,2.483-.166.5-.322.727-.616.727a1.477,1.477,0,0,1-.625-.193,9.4,9.4,0,0,0-4.166-.956c-.184,0-.377.009-.561.018a3.711,3.711,0,0,0-1.26.258,1.786,1.786,0,0,0-.441,3.182,8.326,8.326,0,0,0,2.051,1.15,36.981,36.981,0,0,1,3.743,1.692A6.729,6.729,0,0,1,28.768,31.159Z" fill="#fff"/>
    </g>
  </g>
</svg>
