<svg xmlns="http://www.w3.org/2000/svg" width="30" height="30" viewBox="0 0 30 30">
  <g id="pin-1" transform="translate(0 0.375)">
    <circle id="BG" cx="15" cy="15" r="15" transform="translate(0 -0.375)" fill="#00b7e6"/>
    <path id="Union_20" data-name="Union 20" d="M9.988,12.465V12.3H8.373l.079,4.837A1.4,1.4,0,0,1,7,18.564,1.519,1.519,0,0,1,5.5,17.1L5.423,12.3H3.176a3.076,3.076,0,1,1,0-6.152h6.912v.076L17.328.159V6.994l1.037.017a2.636,2.636,0,0,1,2.6,2.551,2.439,2.439,0,0,1-2.52,2.469l-1.119-.018v6.605Z" transform="matrix(0.875, -0.485, 0.485, 0.875, 0.835, 11.65)" fill="#fff"/>
  </g>
</svg>
