<svg xmlns="http://www.w3.org/2000/svg" width="30" height="30" viewBox="0 0 30 30">
  <g id="plus" transform="translate(-0.235 0.289)">
    <g id="plus-2" data-name="plus" transform="translate(0.235 -0.289)" fill="#fff">
      <path d="M 15.00030040740967 28.49970054626465 C 11.39420986175537 28.49970054626465 8.00398063659668 27.09543037414551 5.45412015914917 24.54557991027832 C 2.904270172119141 21.99571990966797 1.500000238418579 18.60548973083496 1.500000238418579 14.99940013885498 C 1.500000238418579 11.39372062683105 2.904260158538818 8.003769874572754 5.454100131988525 5.45403003692627 C 8.004000663757324 2.904240369796753 11.3942403793335 1.500000238418579 15.00030040740967 1.500000238418579 C 18.60596084594727 1.500000238418579 21.99591064453125 2.904230356216431 24.54569053649902 5.454010486602783 C 27.0954704284668 8.003789901733398 28.49970054626465 11.3937406539917 28.49970054626465 14.99940013885498 C 28.49970054626465 18.60546112060547 27.09546089172363 21.99570083618164 24.54566955566406 24.54560089111328 C 21.99592971801758 27.09543991088867 18.60597991943359 28.49970054626465 15.00030040740967 28.49970054626465 Z M 11.73449993133545 18.70619964599609 L 11.73449993133545 22.94099998474121 C 11.73449993133545 24.74127006530762 13.19913005828857 26.20590019226074 14.99940013885498 26.20590019226074 C 16.7996711730957 26.20590019226074 18.2642993927002 24.74127006530762 18.2642993927002 22.94099998474121 L 18.2642993927002 18.70619964599609 L 22.49909973144531 18.70619964599609 C 24.29936981201172 18.70619964599609 25.76399993896484 17.24156951904297 25.76399993896484 15.44130039215088 C 25.76399993896484 13.64103031158447 24.29936981201172 12.17640018463135 22.49909973144531 12.17640018463135 L 18.2642993927002 12.17640018463135 L 18.2642993927002 7.940700054168701 C 18.2642993927002 6.140920162200928 16.7996711730957 4.676700115203857 14.99940013885498 4.676700115203857 C 13.19913005828857 4.676700115203857 11.73449993133545 6.140920162200928 11.73449993133545 7.940700054168701 L 11.73449993133545 12.17640018463135 L 7.49970006942749 12.17640018463135 C 5.699430465698242 12.17640018463135 4.234800338745117 13.64103031158447 4.234800338745117 15.44130039215088 C 4.234800338745117 17.24156951904297 5.699430465698242 18.70619964599609 7.49970006942749 18.70619964599609 L 11.73449993133545 18.70619964599609 Z" stroke="none"/>
      <path d="M 18.02865028381348 26.61640167236328 C 20.07473373413086 26.08659362792969 21.95102500915527 25.01897621154785 23.4849796295166 23.48496055603027 C 25.10268402099609 21.8671932220459 26.20167350769043 19.86874771118164 26.69828224182129 17.69176483154297 C 25.8935661315918 19.18736267089844 24.31311416625977 20.20619964599609 22.49909973144531 20.20619964599609 L 19.7642993927002 20.20619964599609 L 19.7642993927002 22.94099998474121 C 19.7642993927002 24.41889572143555 19.08805274963379 25.74173545837402 18.02865028381348 26.61640167236328 M 11.96948623657227 26.61585426330566 C 10.91048049926758 25.74118423461914 10.23449993133545 24.41857528686523 10.23449993133545 22.94099998474121 L 10.23449993133545 20.20619964599609 L 7.49970006942749 20.20619964599609 C 5.686968803405762 20.20619964599609 4.107329368591309 19.18854331970215 3.302087545394897 17.69467544555664 C 3.799005270004272 19.87057495117188 4.897739887237549 21.86787223815918 6.514780044555664 23.48492050170898 C 8.048409461975098 25.01854133605957 9.923823356628418 26.08589363098145 11.96948623657227 26.61585426330566 M 26.92912673950195 13.68619823455811 C 26.63615417480469 10.977783203125 25.43900299072266 8.468643188476562 23.48503112792969 6.514670372009277 C 21.21856117248535 4.248200416564941 18.20528984069824 3.000000238418579 15.00030040740967 3.000000238418579 C 11.79489994049072 3.000000238418579 8.781330108642578 4.248220443725586 6.514740467071533 6.514710426330566 C 4.561424732208252 8.46795654296875 3.364428281784058 10.97576332092285 3.070911645889282 13.68308639526367 C 3.771971464157104 11.92327976226807 5.492930889129639 10.67640018463135 7.49970006942749 10.67640018463135 L 10.23449993133545 10.67640018463135 L 10.23449993133545 7.940700054168701 C 10.23449993133545 5.313820362091064 12.37203025817871 3.176700353622437 14.99940013885498 3.176700353622437 C 17.62677001953125 3.176700353622437 19.7642993927002 5.313820362091064 19.7642993927002 7.940700054168701 L 19.7642993927002 10.67640018463135 L 22.49909973144531 10.67640018463135 C 24.50699234008789 10.67640018463135 26.22881698608398 11.92483329772949 26.92912673950195 13.68619823455811 M 15.00030040740967 29.99970054626465 C 10.99353981018066 29.99970054626465 7.226630210876465 28.43939971923828 4.393460273742676 25.60624122619629 C 1.560300230979919 22.77306938171387 2.731323149873788e-07 19.00616073608398 2.731323149873788e-07 14.99940013885498 C 2.731323149873788e-07 10.9930305480957 1.560300230979919 7.226400375366211 4.393460273742676 4.393350124359131 C 7.226670265197754 1.56026029586792 10.99357986450195 2.731323149873788e-07 15.00030040740967 2.731323149873788e-07 C 19.00662994384766 2.731323149873788e-07 22.77326011657715 1.56026029586792 25.60634994506836 4.393350124359131 C 28.43943977355957 7.2264404296875 29.99970054626465 10.99307060241699 29.99970054626465 14.99940013885498 C 29.99970054626465 19.0061206817627 28.43943977355957 22.77302932739258 25.60634994506836 25.60624122619629 C 22.77330017089844 28.43939971923828 19.00666999816895 29.99970054626465 15.00030040740967 29.99970054626465 Z M 7.49970006942749 13.67640018463135 C 6.526530265808105 13.67640018463135 5.734800338745117 14.46813011169434 5.734800338745117 15.44130039215088 C 5.734800338745117 16.41447067260742 6.526530265808105 17.20619964599609 7.49970006942749 17.20619964599609 L 13.23449993133545 17.20619964599609 L 13.23449993133545 22.94099998474121 C 13.23449993133545 23.91417121887207 14.02622985839844 24.70590019226074 14.99940013885498 24.70590019226074 C 15.97257041931152 24.70590019226074 16.7642993927002 23.91417121887207 16.7642993927002 22.94099998474121 L 16.7642993927002 17.20619964599609 L 22.49909973144531 17.20619964599609 C 23.47227096557617 17.20619964599609 24.26399993896484 16.41447067260742 24.26399993896484 15.44130039215088 C 24.26399993896484 14.46813011169434 23.47227096557617 13.67640018463135 22.49909973144531 13.67640018463135 L 16.7642993927002 13.67640018463135 L 16.7642993927002 7.940700054168701 C 16.7642993927002 6.968030452728271 15.97257041931152 6.176700115203857 14.99940013885498 6.176700115203857 C 14.02622985839844 6.176700115203857 13.23449993133545 6.968030452728271 13.23449993133545 7.940700054168701 L 13.23449993133545 13.67640018463135 L 7.49970006942749 13.67640018463135 Z" stroke="none" fill="#fff"/>
    </g>
  </g>
</svg>
