<svg xmlns="http://www.w3.org/2000/svg" xmlns:xlink="http://www.w3.org/1999/xlink" width="65" height="65" viewBox="0 0 65 65">
  <defs>
    <clipPath id="clip-path">
      <rect id="Rectangle_810" data-name="Rectangle 810" width="65" height="65" transform="translate(14.961 11)" fill="#fff" stroke="#707070" stroke-width="1"/>
    </clipPath>
  </defs>
  <g id="points-earning" transform="translate(-14.961 -11)" clip-path="url(#clip-path)">
    <g id="points-earning-2" data-name="points-earning" transform="translate(18.961 13)">
      <g id="Group_01" data-name="Group 01" transform="translate(0 38.727)">
        <path id="Path_782" data-name="Path 782" d="M66.663,52.677c-.424-.743-1.546-1.847-4.306-.89-.149.052-.3.107-.46.165a4.133,4.133,0,0,0-1.692-1.9,3.721,3.721,0,0,0-3.189-.1c-.327.121-.686.272-1.066.444-.926-.9-2.9-2.458-4.735-1.5-.292.153-.661.378-1.068.641a3.629,3.629,0,0,0-3.89-.871,19.606,19.606,0,0,0-4.7,3.418.958.958,0,0,0,1.334,1.376,17.489,17.489,0,0,1,4.083-3.017,1.594,1.594,0,0,1,1.511.221c-1.82,1.281-3.705,2.72-3.828,2.814a.958.958,0,0,0,1.164,1.523c.047-.035,4.635-3.54,6.287-4.409.507-.266,1.314.182,1.982.715-3.2,1.677-6.869,4.014-7.074,4.144a.958.958,0,1,0,1.033,1.615c.065-.042,6.555-4.179,9.636-5.323a1.887,1.887,0,0,1,1.6-.021,2.177,2.177,0,0,1,.826.927c-4.617,1.936-10.792,5.2-11.1,5.362a.958.958,0,1,0,.9,1.693c.087-.046,8.7-4.6,13.079-6.12.5-.173,1.7-.519,2.013.028A2.589,2.589,0,0,1,64.531,56c-1.1.931-13.944,8.274-16.5,9.5-2.321,1.117-9.477,3.117-12.431,3.117-2.179,0-6.624-2.486-9.28-3.972-.848-.474-1.58-.883-2.128-1.158a7.587,7.587,0,0,0-4.884-.411V52.973c2.179-1.429,10.13-2.558,11.906-1.865.89.348,2.679,1.324,4.573,2.357A63.265,63.265,0,0,0,42.43,56.8a8.51,8.51,0,0,1,4.416,4.375,1.193,1.193,0,0,1-.007.966c-.7,1-2.468.461-4.277-.268l-.179-.072c-.718-.287-2.362-.843-4.1-1.431-1.679-.567-3.415-1.154-4.354-1.511a11.561,11.561,0,0,0-4.973-.42.958.958,0,0,0,.272,1.9,9.527,9.527,0,0,1,4.019.314c.973.37,2.726.963,4.422,1.536,1.64.554,3.335,1.127,4,1.394l.175.07c1.589.641,4.895,1.973,6.563-.411a2.891,2.891,0,0,0,.266-2.639A10.291,10.291,0,0,0,43.09,55a63.983,63.983,0,0,1-6.383-3.222c-2.033-1.109-3.79-2.067-4.793-2.46-2.125-.833-9.093.021-12.6,1.527V49.755a.959.959,0,0,0-.959-.959H11.011a.959.959,0,0,0-.959.959V66.364a.959.959,0,0,0,.959.959h7.341a.959.959,0,0,0,.959-.959V65.049a6.021,6.021,0,0,1,4.027.153c.509.254,1.223.653,2.05,1.116,3.181,1.779,7.537,4.215,10.215,4.215,3.3,0,10.678-2.063,13.262-3.307,2.357-1.135,15.6-8.666,16.9-9.766A4.335,4.335,0,0,0,66.663,52.677Zm-49.27,12.73H11.969V50.715h5.424V65.406Z" transform="translate(-10.052 -48.426)" fill="#1656a1" stroke="#1656a1" stroke-width="0.5"/>
      </g>
      <g id="Group_02" data-name="Group 02" transform="translate(8.568)">
        <path id="Path_784" data-name="Path 784" d="M38.6,14.37a.959.959,0,0,1-.959-.959V10.658a.959.959,0,1,1,1.917,0v2.753A.96.96,0,0,1,38.6,14.37Z" transform="translate(-18.62 -9.7)" fill="#fea621"/>
        <path id="Path_785" data-name="Path 785" d="M38.6,49.664a.959.959,0,0,1-.959-.959V45.952a.959.959,0,1,1,1.917,0V48.7A.96.96,0,0,1,38.6,49.664Z" transform="translate(-18.62 -9.7)" fill="#fea621"/>
        <path id="Path_786" data-name="Path 786" d="M57.626,30.64H54.873a.959.959,0,1,1,0-1.917h2.753a.959.959,0,0,1,0,1.917Z" transform="translate(-18.62 -9.7)" fill="#fea621"/>
        <path id="Path_787" data-name="Path 787" d="M22.331,30.64H19.579a.959.959,0,1,1,0-1.917h2.752a.959.959,0,1,1,0,1.917Z" transform="translate(-18.62 -9.7)" fill="#fea621"/>
        <path id="Path_788" data-name="Path 788" d="M50.107,19.135a.958.958,0,0,1-.678-1.636l1.946-1.947a.958.958,0,1,1,1.355,1.355l-1.946,1.947A.95.95,0,0,1,50.107,19.135Z" transform="translate(-18.62 -9.7)" fill="#fea621"/>
        <path id="Path_789" data-name="Path 789" d="M25.151,44.092a.958.958,0,0,1-.678-1.636l1.947-1.947a.958.958,0,0,1,1.355,1.355l-1.947,1.947A.955.955,0,0,1,25.151,44.092Z" transform="translate(-18.62 -9.7)" fill="#fea621"/>
        <path id="Path_790" data-name="Path 790" d="M52.054,44.092a.958.958,0,0,1-.678-.281L49.43,41.864a.958.958,0,0,1,1.355-1.355l1.946,1.947a.958.958,0,0,1-.677,1.636Z" transform="translate(-18.62 -9.7)" fill="#fea621"/>
        <path id="Path_791" data-name="Path 791" d="M27.1,19.135a.958.958,0,0,1-.678-.281l-1.947-1.947a.958.958,0,1,1,1.355-1.355L27.775,17.5a.958.958,0,0,1-.677,1.636Z" transform="translate(-18.62 -9.7)" fill="#fea621"/>
        <path id="Path_783" data-name="Path 783" d="M31.126,42.346a1.159,1.159,0,0,1-1.142-1.355l1.325-7.725L25.7,27.8a1.159,1.159,0,0,1,.643-1.977l7.756-1.127,3.469-7.028a1.159,1.159,0,0,1,1.04-.646h0a1.16,1.16,0,0,1,1.04.646l3.469,7.028,7.756,1.127a1.16,1.16,0,0,1,.643,1.978L45.9,33.266l1.325,7.724a1.159,1.159,0,0,1-1.682,1.222L38.6,38.565l-6.937,3.647A1.158,1.158,0,0,1,31.126,42.346ZM29,27.775l4.366,4.257a1.16,1.16,0,0,1,.333,1.026l-1.03,6.01,5.4-2.837a1.159,1.159,0,0,1,1.079,0l5.4,2.837-1.031-6.01a1.16,1.16,0,0,1,.333-1.026l4.367-4.257L42.175,26.9a1.161,1.161,0,0,1-.873-.634L38.6,20.8l-2.7,5.469a1.161,1.161,0,0,1-.873.634Z" transform="translate(-18.62 -9.699)" fill="#fea621"/>
      </g>
    </g>
  </g>
</svg>
