<svg xmlns="http://www.w3.org/2000/svg" xmlns:xlink="http://www.w3.org/1999/xlink" width="65" height="65" viewBox="0 0 65 65">
  <defs>
    <clipPath id="clip-path">
      <rect id="Rectangle_811" data-name="Rectangle 811" width="65" height="65" transform="translate(15 11)" fill="#fff" stroke="#707070" stroke-width="1"/>
    </clipPath>
  </defs>
  <g id="points-trans" transform="translate(-15 -11)" clip-path="url(#clip-path)">
    <g id="points-trans-2" data-name="points-trans" transform="translate(19 17)">
      <g id="Group_01" data-name="Group 01">
        <path id="Path_792" data-name="Path 792" d="M49.173,34.732A11.539,11.539,0,1,0,60.711,46.27,11.552,11.552,0,0,0,49.173,34.732Zm0,21.734a10.167,10.167,0,0,1-7.418-3.211,7.867,7.867,0,0,1,14.834,0A10.167,10.167,0,0,1,49.173,56.466ZM45.6,43.255a3.412,3.412,0,1,1,3.412,3.411A3.415,3.415,0,0,1,45.6,43.255Zm6.247,3.808a4.753,4.753,0,1,0-5.572.072,9.27,9.27,0,0,0-5.487,4.924,10.2,10.2,0,1,1,16.765.008A9.256,9.256,0,0,0,51.847,47.063Z" transform="translate(-2.711 -5.614)" fill="#1656a1" stroke="#0055a6" stroke-width="0.6"/>
        <path id="Path_793" data-name="Path 793" d="M14.25,34.732A11.539,11.539,0,1,0,25.788,46.27,11.552,11.552,0,0,0,14.25,34.732Zm0,21.734a10.167,10.167,0,0,1-7.418-3.211,7.867,7.867,0,0,1,14.834,0A10.167,10.167,0,0,1,14.25,56.466Zm-3.572-13.21a3.412,3.412,0,1,1,3.412,3.411A3.415,3.415,0,0,1,10.678,43.255ZM22.63,52.068a9.256,9.256,0,0,0-5.705-5.005,4.753,4.753,0,1,0-5.572.072,9.27,9.27,0,0,0-5.487,4.924,10.2,10.2,0,1,1,16.765.009Z" transform="translate(-2.711 -5.614)" fill="#1656a1" stroke="#0055a6" stroke-width="0.6"/>
        <path id="Path_794" data-name="Path 794" d="M14.355,22.575a.671.671,0,0,0,.912-.265,18.084,18.084,0,0,1,1.388-2.146.672.672,0,0,0-1.074-.807,19.385,19.385,0,0,0-1.491,2.306A.672.672,0,0,0,14.355,22.575Z" transform="translate(-2.711 -5.614)" fill="#1656a1" stroke="#0055a6" stroke-width="0.6"/>
        <path id="Path_795" data-name="Path 795" d="M17.858,18.431a.667.667,0,0,0,.474-.2,18.123,18.123,0,0,1,1.934-1.672.672.672,0,0,0-.8-1.076,19.388,19.388,0,0,0-2.078,1.8.672.672,0,0,0,.474,1.147Z" transform="translate(-2.711 -5.614)" fill="#1656a1" stroke="#0055a6" stroke-width="0.6"/>
        <path id="Path_796" data-name="Path 796" d="M47.8,24.654a17.9,17.9,0,0,1,.722,2.453.671.671,0,1,0,1.312-.286,19.175,19.175,0,0,0-.776-2.638.672.672,0,1,0-1.258.471Z" transform="translate(-2.711 -5.614)" fill="#1656a1" stroke="#0055a6" stroke-width="0.6"/>
        <path id="Path_797" data-name="Path 797" d="M12.675,27.593a.68.68,0,0,0,.144.016.672.672,0,0,0,.655-.528A17.882,17.882,0,0,1,14.2,24.63a.672.672,0,0,0-1.257-.473,19.27,19.27,0,0,0-.779,2.635A.672.672,0,0,0,12.675,27.593Z" transform="translate(-2.711 -5.614)" fill="#1656a1" stroke="#0055a6" stroke-width="0.6"/>
        <path id="Path_798" data-name="Path 798" d="M39.59,15.192a.671.671,0,1,0,.645-1.178,19.309,19.309,0,0,0-2.5-1.143.684.684,0,0,0-.208-.039c.017-.194.03-.39.03-.588a6.63,6.63,0,0,0-13.261,0c0,.2.012.4.031.6-.018.005-.036.008-.053.014a19.341,19.341,0,0,0-2.5,1.14.672.672,0,1,0,.644,1.179,17.955,17.955,0,0,1,2.171-1,6.627,6.627,0,0,0,12.692-.047A17.855,17.855,0,0,1,39.59,15.192Zm-8.662,2.339a5.287,5.287,0,1,1,5.287-5.287A5.293,5.293,0,0,1,30.929,17.531Z" transform="translate(-2.711 -5.614)" fill="#1656a1" stroke="#0055a6" stroke-width="0.6"/>
        <path id="Path_799" data-name="Path 799" d="M41.739,16.576a18.12,18.12,0,0,1,1.931,1.675.671.671,0,1,0,.95-.95,19.452,19.452,0,0,0-2.076-1.8.671.671,0,1,0-.805,1.074Z" transform="translate(-2.711 -5.614)" fill="#1656a1" stroke="#0055a6" stroke-width="0.6"/>
        <path id="Path_800" data-name="Path 800" d="M46.732,22.33a.671.671,0,0,0,1.177-.645,19.266,19.266,0,0,0-1.489-2.31.672.672,0,0,0-1.074.806A18,18,0,0,1,46.732,22.33Z" transform="translate(-2.711 -5.614)" fill="#1656a1" stroke="#0055a6" stroke-width="0.6"/>
        <path id="Path_801" data-name="Path 801" d="M48.881,29.64c.014.19.023.383.031.578L48,29.531a.672.672,0,0,0-.81,1.072l2.466,1.863L51.725,30.4a.671.671,0,1,0-.95-.95l-.532.531c-.007-.147-.013-.294-.023-.439a.671.671,0,1,0-1.339.1Z" transform="translate(-2.711 -5.614)" fill="#1656a1" stroke="#0055a6" stroke-width="0.6"/>
        <path id="Path_802" data-name="Path 802" d="M12.389,32.381A1.783,1.783,0,1,0,10.606,30.6,1.785,1.785,0,0,0,12.389,32.381Z" transform="translate(-2.711 -5.614)" fill="#1656a1" stroke="#0055a6" stroke-width="0.6"/>
      </g>
      <g id="Group_02" data-name="Group 02">
        <path id="Path_803" data-name="Path 803" d="M28.682,16.173a.4.4,0,0,1-.39-.463l.452-2.636L26.83,11.208a.4.4,0,0,1,.22-.674l2.646-.385,1.183-2.4a.394.394,0,0,1,.355-.22h0a.4.4,0,0,1,.355.22l1.183,2.4,2.646.385a.4.4,0,0,1,.22.674l-1.914,1.866.452,2.635a.4.4,0,0,1-.574.417l-2.367-1.244-2.367,1.244A.4.4,0,0,1,28.682,16.173ZM27.955,11.2l1.49,1.452a.4.4,0,0,1,.114.35l-.352,2.051,1.842-.968a.4.4,0,0,1,.368,0l1.842.968L32.907,13a.4.4,0,0,1,.114-.35l1.49-1.452-2.059-.3a.4.4,0,0,1-.3-.217L31.233,8.82l-.921,1.866a.4.4,0,0,1-.3.216Z" transform="translate(-2.711 -5.613)" fill="#fea621"/>
      </g>
    </g>
  </g>
</svg>
