<svg xmlns="http://www.w3.org/2000/svg" width="32.779" height="49.635" viewBox="0 0 32.779 49.635">
  <g id="premium" transform="translate(-1.012 -1.352)">
    <path id="Path_352" data-name="Path 352" d="M96.495,18.926a9.156,9.156,0,0,0,6.691-2.772,9.156,9.156,0,0,0,2.772-6.691,9.158,9.158,0,0,0-2.772-6.691,9.461,9.461,0,0,0-13.382,0,9.157,9.157,0,0,0-2.772,6.691A9.156,9.156,0,0,0,89.8,16.154,9.158,9.158,0,0,0,96.495,18.926Zm0,0" transform="translate(-79 11.696)" fill="#fff"/>
    <path id="Path_353" data-name="Path 353" d="M32.7,258.55a23.374,23.374,0,0,0-.318-2.483,19.561,19.561,0,0,0-.611-2.5,12.33,12.33,0,0,0-1.026-2.328,8.785,8.785,0,0,0-1.547-2.016,6.822,6.822,0,0,0-2.223-1.4,7.681,7.681,0,0,0-2.837-.513,2.88,2.88,0,0,0-1.538.652c-.461.3-1,.648-1.6,1.033a9.181,9.181,0,0,1-2.073.913,8.05,8.05,0,0,1-5.071,0A9.158,9.158,0,0,1,11.781,249c-.6-.381-1.136-.729-1.6-1.034a2.876,2.876,0,0,0-1.537-.652,7.672,7.672,0,0,0-2.837.514,6.816,6.816,0,0,0-2.223,1.4,8.785,8.785,0,0,0-1.547,2.016,12.354,12.354,0,0,0-1.026,2.328,19.606,19.606,0,0,0-.61,2.5,23.292,23.292,0,0,0-.318,2.483C.026,259.3,0,260.083,0,260.871a6.524,6.524,0,0,0,1.938,4.936,6.975,6.975,0,0,0,4.993,1.821H25.848a6.974,6.974,0,0,0,4.993-1.821,6.521,6.521,0,0,0,1.938-4.936c0-.792-.027-1.573-.079-2.321Zm0,0" transform="translate(1.012 -216.641)" fill="#fff"/>
    <path id="Path_354" data-name="Path 354" d="M-19.748,222.685l2.08,4.16,4.16-4.16v8.32h-12.48v-8.32l4.16,4.16Z" transform="translate(37.14 -221.333)" fill="#fff"/>
  </g>
</svg>
