<svg xmlns="http://www.w3.org/2000/svg" width="40.187" height="40.186" viewBox="0 0 40.187 40.186">
  <g id="sale" transform="translate(-5955.906 1456.094)">
    <rect id="BG" width="33" height="32" transform="translate(5959 -1452)" fill="none"/>
    <path id="Icon" d="M16.86,2a1.629,1.629,0,0,0-1.409.8l-.62,1.036a2,2,0,0,1-1.208.884l-.018,0a1.99,1.99,0,0,1-1.5-.158l-1.058-.585A1.64,1.64,0,0,0,8.607,5.384l-.02,1.223a1.987,1.987,0,0,1-.6,1.364l-.011.011a1.977,1.977,0,0,1-1.364.6l-1.221.02a1.641,1.641,0,0,0-1.409,2.438l.587,1.06A1.983,1.983,0,0,1,4.721,13.6a.246.246,0,0,1-.009.027,1.988,1.988,0,0,1-.875,1.2l-1.04.623a1.641,1.641,0,0,0,0,2.815l1.04.623a1.983,1.983,0,0,1,.875,1.2.245.245,0,0,0,.009.027,1.983,1.983,0,0,1-.156,1.493l-.587,1.062a1.642,1.642,0,0,0,1.409,2.438l1.221.02a1.987,1.987,0,0,1,1.364.6l.011.011a1.977,1.977,0,0,1,.6,1.364l.02,1.221a1.642,1.642,0,0,0,2.438,1.409l1.06-.589a1.982,1.982,0,0,1,1.493-.156l.027.009a1.991,1.991,0,0,1,1.2.877l.623,1.038a1.641,1.641,0,0,0,2.815,0l.623-1.038a1.982,1.982,0,0,1,1.2-.877l.029-.009a1.978,1.978,0,0,1,1.491.156l1.06.589A1.642,1.642,0,0,0,25.1,28.329l.02-1.221a1.987,1.987,0,0,1,.6-1.364l.011-.011a1.977,1.977,0,0,1,1.364-.6l1.223-.02a1.642,1.642,0,0,0,1.409-2.438l-.589-1.06a1.983,1.983,0,0,1-.156-1.493A.246.246,0,0,1,29,20.09a1.991,1.991,0,0,1,.877-1.2l1.038-.623a1.642,1.642,0,0,0,0-2.817l-1.038-.623a1.982,1.982,0,0,1-.877-1.2.282.282,0,0,0-.009-.029,1.978,1.978,0,0,1,.156-1.491l.589-1.06A1.642,1.642,0,0,0,28.332,8.61l-1.223-.02a1.987,1.987,0,0,1-1.364-.6l-.011-.011a1.977,1.977,0,0,1-.6-1.364l-.02-1.223a1.641,1.641,0,0,0-2.438-1.409l-1.06.587a1.982,1.982,0,0,1-1.493.156l-.027-.009a1.988,1.988,0,0,1-1.2-.875L18.266,2.8A1.625,1.625,0,0,0,16.86,2ZM8.851,14.46c1.321,0,2.234.715,2.259,1.757H9.786a.825.825,0,0,0-.915-.676c-.505,0-.835.239-.835.614,0,.309.251.487.844.6l.725.141c1.114.216,1.614.719,1.614,1.614,0,1.177-.9,1.888-2.375,1.888-1.426,0-2.323-.672-2.348-1.757H7.864c.033.41.443.672,1.036.672.536,0,.9-.259.9-.63,0-.312-.244-.48-.888-.609l-.741-.147c-1.031-.2-1.563-.759-1.563-1.645C6.61,15.181,7.491,14.46,8.851,14.46Zm4.831.112h1.777l1.92,5.715H15.8L15.44,19.03H13.572l-.366,1.257h-1.44Zm4.319,0h1.453v4.514h2.429v1.2H18Zm4.572,0H26.49v1.167H24.028V16.88h2.317v1.071H24.028v1.167H26.49v1.167H22.572Zm-8.1,1.288-.625,2.125h1.315l-.614-2.125Z" transform="matrix(0.883, -0.469, 0.469, 0.883, 5953.202, -1442.971)" fill="#fff"/>
  </g>
</svg>
