<svg xmlns="http://www.w3.org/2000/svg" width="30.833" height="27.141" viewBox="0 0 30.833 27.141">
  <g id="shopping-cart" transform="translate(-5952.194 1447.32)">
    <path id="icon" d="M2.714,2V4.714H5.947L7.3,7.428h6.517L6.806,22.354H27.138V19.64H11.078l1.277-2.714h11.5L30.833,4.714H8.979L7.622,2ZM0,10.142v2.714H8.277l1.275-2.714Zm0,5.428v2.714H5.727L7,15.569Zm10.853,8.144a2.714,2.714,0,1,0,2.714,2.714A2.714,2.714,0,0,0,10.853,23.713Zm13.569,0a2.714,2.714,0,1,0,2.714,2.714A2.714,2.714,0,0,0,24.422,23.713Z" transform="translate(5952.194 -1449.32)" fill="#fff"/>
  </g>
</svg>
