<svg xmlns="http://www.w3.org/2000/svg" width="30.005" height="24.379" viewBox="0 0 30.005 24.379">
  <g id="shops" transform="translate(-19.713 -8)">
    <g id="store" transform="translate(19.713 8)">
      <g id="Group_335" data-name="Group 335" transform="translate(0 0)">
        <g id="Group_334" data-name="Group 334">
          <path id="Path_274" data-name="Path 274" d="M29.837,54.96,25.148,48.4A.977.977,0,0,0,24.38,48H5.626a.977.977,0,0,0-.769.394L.169,54.96,0,55.467a3.758,3.758,0,0,0,3.751,3.788A3.718,3.718,0,0,0,6.564,57.98a3.74,3.74,0,0,0,5.626,0,3.74,3.74,0,0,0,5.626,0,3.74,3.74,0,0,0,5.626,0,3.718,3.718,0,0,0,2.813,1.275,3.758,3.758,0,0,0,3.751-3.788Z" transform="translate(0 -48.003)" fill="#fff"/>
        </g>
      </g>
      <g id="Group_337" data-name="Group 337" transform="translate(1.875 12.37)">
        <g id="Group_336" data-name="Group 336" transform="translate(0 0)">
          <path id="Path_275" data-name="Path 275" d="M56.382,259.833a5.611,5.611,0,0,1-2.813-.758,5.746,5.746,0,0,1-5.626,0,5.746,5.746,0,0,1-5.626,0,5.746,5.746,0,0,1-5.626,0,5.7,5.7,0,0,1-4.688.392v9.742a1.876,1.876,0,0,0,1.875,1.875h15v-9.377h5.626v9.377h1.875a1.876,1.876,0,0,0,1.875-1.875v-9.72A5.592,5.592,0,0,1,56.382,259.833Zm-13.127,7.5h-7.5v-5.626h7.5Z" transform="translate(-32.003 -259.075)" fill="#fff"/>
        </g>
      </g>
    </g>
  </g>
</svg>
