<svg xmlns="http://www.w3.org/2000/svg" xmlns:xlink="http://www.w3.org/1999/xlink" width="65" height="65" viewBox="0 0 65 65">
  <defs>
    <clipPath id="clip-path">
      <rect id="Rectangle_816" data-name="Rectangle 816" width="65" height="65" transform="translate(10.026 10)" fill="#fff" stroke="#707070" stroke-width="1"/>
    </clipPath>
  </defs>
  <g id="shopping" transform="translate(-10.026 -10)" clip-path="url(#clip-path)">
    <g id="Icon" transform="translate(14.026 15)">
      <g id="Group_01" data-name="Group 01">
        <path id="Path_810" data-name="Path 810" d="M64.805,25.877v.644a1.743,1.743,0,0,0-.055.179,5.28,5.28,0,0,1-3.939,4.232c-.212.067-.434.113-.668.173V60.812c0,.125,0,.251-.007.376a.957.957,0,0,1-.912.844c-.137.011-.276.009-.414.009H12.8c-.128,0-.257,0-.385-.008a.962.962,0,0,1-.937-.88c-.006-.107,0-.215,0-.322V31.112c-.05-.018-.076-.03-.1-.038-.047-.013-.095-.023-.143-.035a5.439,5.439,0,0,1-4.212-3.656c-.095-.28-.141-.573-.21-.861v-.752a7.206,7.206,0,0,1,.593-.686q4.941-4.5,9.9-8.979a.6.6,0,0,0,.217-.493c-.008-1.379,0-6.707,0-8.085,0-.8.363-1.13,1.232-1.13h35.5c.866,0,1.237.338,1.238,1.13,0,1.388,0,6.725,0,8.112a.7.7,0,0,0,.217.528q4.3,4.469,8.588,8.949A5.425,5.425,0,0,1,64.805,25.877Zm-6.72,34.271V31.088a5.858,5.858,0,0,1-3.612-2.107,6.065,6.065,0,0,1-9.329,0,6.067,6.067,0,0,1-9.327,0,6.067,6.067,0,0,1-9.328,0,5.82,5.82,0,0,1-4.673,2.187,5.825,5.825,0,0,1-4.657-2.19,5.924,5.924,0,0,1-3.6,2.107V60.141h3.948V39.482c0-.755.377-1.095,1.211-1.1h2.042q5.119,0,10.238,0a1.213,1.213,0,0,1,.889.289,1.062,1.062,0,0,1,.3.845q0,10.139,0,20.276v.354Zm-21.6-42.915q-8.609,0-17.219.006a.721.721,0,0,0-.44.14q-4.876,4.4-9.729,8.828a.463.463,0,0,0-.135.369,3.485,3.485,0,0,0,3.258,2.708,3.6,3.6,0,0,0,3.648-2.1,6.662,6.662,0,0,0,.273-1.309,1,1,0,0,1,1.018-.806.984.984,0,0,1,1.021.8c.019.124.023.25.034.374a3.494,3.494,0,0,0,3.5,3.056,3.406,3.406,0,0,0,3.73-3.237,1.038,1.038,0,0,1,2.075.02,3.4,3.4,0,0,0,2.894,3.148A3.742,3.742,0,0,0,34.4,27.438a3.372,3.372,0,0,0,.37-1.451A1.038,1.038,0,0,1,36.83,26c.008.107.016.214.027.321A3.513,3.513,0,0,0,40.376,29.3a3.556,3.556,0,0,0,3.667-2.8,3.6,3.6,0,0,0,.046-.454,1.039,1.039,0,0,1,2.073-.007A3.457,3.457,0,0,0,49.6,29.3a3.58,3.58,0,0,0,3.757-2.765c.044-.228.032-.465.074-.694a1.045,1.045,0,0,1,2.033.07c.017.151.024.3.04.455a3.672,3.672,0,0,0,7.153.188.5.5,0,0,0-.116-.382q-4.166-4.362-8.345-8.714a.683.683,0,0,0-.552-.229Q45.065,17.237,36.485,17.232ZM30.091,60.145V40.281H19.608V60.145Zm23.3-51.85H19.6v7.044H53.394Z" transform="translate(-6.805 -6.395)" fill="#1656a1"/>
        <path id="Path_811" data-name="Path 811" d="M52.821,54.365H37.782a1.489,1.489,0,0,1-1.554-1.41V43.088a1.489,1.489,0,0,1,1.554-1.41h15.04a1.489,1.489,0,0,1,1.554,1.41v9.867A1.49,1.49,0,0,1,52.821,54.365ZM38.188,52.585H52.414V43.457H38.188Z" transform="translate(-6.805 -9.658)" fill="#1b579d"/>
      </g>
      <g id="Group_02" data-name="Group 02" transform="translate(18.914 2.727)">
        <path id="Path_812" data-name="Path 812" d="M27.842,14.91a5.275,5.275,0,0,1-1.179-.117,6.441,6.441,0,0,1-.944-.292V13.24h.133a3.362,3.362,0,0,0,.969.52,3.165,3.165,0,0,0,1.028.182,2.972,2.972,0,0,0,.332-.025,1.237,1.237,0,0,0,.332-.078.738.738,0,0,0,.259-.169.391.391,0,0,0,.106-.286.383.383,0,0,0-.172-.324,1.15,1.15,0,0,0-.412-.182c-.2-.048-.411-.093-.638-.135a5.625,5.625,0,0,1-.634-.156A2,2,0,0,1,26.049,12a1.42,1.42,0,0,1-.294-.919,1.394,1.394,0,0,1,.694-1.205,3.069,3.069,0,0,1,1.735-.461,5.627,5.627,0,0,1,1.038.1,4.938,4.938,0,0,1,.924.26v1.211h-.129a2.979,2.979,0,0,0-.794-.427,2.745,2.745,0,0,0-.963-.175,2.212,2.212,0,0,0-.345.025,1.388,1.388,0,0,0-.322.1.65.65,0,0,0-.237.169.366.366,0,0,0-.1.251.383.383,0,0,0,.159.323,1.711,1.711,0,0,0,.614.215l.567.117a5.836,5.836,0,0,1,.583.156,2.015,2.015,0,0,1,.9.536,1.3,1.3,0,0,1,.3.888,1.484,1.484,0,0,1-.685,1.272A3.183,3.183,0,0,1,27.842,14.91Z" transform="translate(-25.719 -9.401)" fill="#fea621"/>
        <path id="Path_813" data-name="Path 813" d="M36.058,14.823H34.59v-2.35h-2v2.35H31.126v-5.3h1.467v1.941h2V9.521h1.467Z" transform="translate(-25.719 -9.411)" fill="#fea621"/>
        <path id="Path_814" data-name="Path 814" d="M42.586,12.163a2.692,2.692,0,0,1-.757,2.023,2.848,2.848,0,0,1-2.075.737,2.819,2.819,0,0,1-2.075-.746,2.707,2.707,0,0,1-.753-2.014,2.709,2.709,0,0,1,.753-2.021,3.278,3.278,0,0,1,4.151,0A2.7,2.7,0,0,1,42.586,12.163Zm-1.514,0a2.624,2.624,0,0,0-.108-.806,1.586,1.586,0,0,0-.288-.546,1.1,1.1,0,0,0-.426-.312,1.376,1.376,0,0,0-.983-.007,1.164,1.164,0,0,0-.424.312,1.577,1.577,0,0,0-.292.548,3.082,3.082,0,0,0-.006,1.625,1.584,1.584,0,0,0,.29.539,1.082,1.082,0,0,0,.428.315,1.332,1.332,0,0,0,.495.094,1.285,1.285,0,0,0,.5-.1,1.069,1.069,0,0,0,.42-.315,1.692,1.692,0,0,0,.29-.539A2.594,2.594,0,0,0,41.072,12.159Z" transform="translate(-25.719 -9.4)" fill="#fea621"/>
        <path id="Path_815" data-name="Path 815" d="M47.951,11.195a1.942,1.942,0,0,1-.129.705,1.466,1.466,0,0,1-.373.559,2.487,2.487,0,0,1-.328.256,1.988,1.988,0,0,1-.395.2,2.656,2.656,0,0,1-.469.128,3.176,3.176,0,0,1-.567.046h-.769v1.734H43.454v-5.3h2.268A3.964,3.964,0,0,1,46.6,9.6a2.224,2.224,0,0,1,.665.265,1.383,1.383,0,0,1,.51.533A1.643,1.643,0,0,1,47.951,11.195Zm-1.507.032a.636.636,0,0,0-.118-.386.607.607,0,0,0-.282-.223,1.322,1.322,0,0,0-.4-.094c-.127-.008-.3-.013-.516-.013H44.92V12.1h.1c.139,0,.269,0,.393,0a2.506,2.506,0,0,0,.322-.025A1.178,1.178,0,0,0,45.986,12a.659.659,0,0,0,.2-.116.7.7,0,0,0,.2-.274A1.121,1.121,0,0,0,46.443,11.227Z" transform="translate(-25.719 -9.411)" fill="#fea621"/>
      </g>
    </g>
  </g>
</svg>
