<svg xmlns="http://www.w3.org/2000/svg" width="30" height="30" viewBox="0 0 30 30">
  <g id="update" transform="translate(0.215)">
    <path id="BG" d="M15,0A15,15,0,1,1,0,15,15,15,0,0,1,15,0Z" transform="translate(-0.215)" fill="#388a00"/>
    <g id="calendar" transform="translate(4.785 5)">
      <path id="Icon" d="M16,19.669H3a3,3,0,0,1-3-3V5.27A3.013,3.013,0,0,1,2.167,2.387V1.267a1.267,1.267,0,1,1,2.534,0v1h9.6v-1a1.267,1.267,0,1,1,2.534,0v1.12A3.014,3.014,0,0,1,19,5.27v11.4A3,3,0,0,1,16,19.669ZM1.782,6.808v8.733a2,2,0,0,0,2,2H15.221a2,2,0,0,0,2-2V6.808Z" fill="#fff"/>
      <circle id="Ellipse_208" data-name="Ellipse 208" cx="1" cy="1" r="1" transform="translate(1.976 7.594)" fill="#fff"/>
      <circle id="Ellipse_217" data-name="Ellipse 217" cx="1" cy="1" r="1" transform="translate(1.976 10.594)" fill="#fff"/>
      <circle id="Ellipse_222" data-name="Ellipse 222" cx="1" cy="1" r="1" transform="translate(1.976 13.594)" fill="#fff"/>
      <circle id="Ellipse_209" data-name="Ellipse 209" cx="1" cy="1" r="1" transform="translate(4.976 7.594)" fill="#fff"/>
      <circle id="Ellipse_216" data-name="Ellipse 216" cx="1" cy="1" r="1" transform="translate(4.976 10.594)" fill="#fff"/>
      <circle id="Ellipse_221" data-name="Ellipse 221" cx="1" cy="1" r="1" transform="translate(4.976 13.594)" fill="#fff"/>
      <circle id="Ellipse_210" data-name="Ellipse 210" cx="1" cy="1" r="1" transform="translate(7.976 7.594)" fill="#fff"/>
      <circle id="Ellipse_215" data-name="Ellipse 215" cx="1" cy="1" r="1" transform="translate(7.976 10.594)" fill="#fff"/>
      <circle id="Ellipse_220" data-name="Ellipse 220" cx="1" cy="1" r="1" transform="translate(7.976 13.594)" fill="#fff"/>
      <circle id="Ellipse_211" data-name="Ellipse 211" cx="1" cy="1" r="1" transform="translate(10.976 7.594)" fill="#fff"/>
      <circle id="Ellipse_214" data-name="Ellipse 214" cx="1" cy="1" r="1" transform="translate(10.976 10.594)" fill="#fff"/>
      <circle id="Ellipse_212" data-name="Ellipse 212" cx="1" cy="1" r="1" transform="translate(13.976 7.594)" fill="#fff"/>
      <circle id="Ellipse_213" data-name="Ellipse 213" cx="1" cy="1" r="1" transform="translate(13.976 10.594)" fill="#fff"/>
    </g>
  </g>
</svg>
