<svg id="user" xmlns="http://www.w3.org/2000/svg" width="15.346" height="18.394" viewBox="0 0 15.346 18.394">
  <path id="Path_265" data-name="Path 265" d="M91.462,8.861a4.287,4.287,0,0,0,3.133-1.3,4.287,4.287,0,0,0,1.3-3.132,4.287,4.287,0,0,0-1.3-3.132,4.429,4.429,0,0,0-6.265,0,4.287,4.287,0,0,0-1.3,3.132,4.287,4.287,0,0,0,1.3,3.133A4.288,4.288,0,0,0,91.462,8.861Zm0,0" transform="translate(-83.905 0)" fill="#a9bddc"/>
  <path id="Path_266" data-name="Path 266" d="M15.309,252.575a10.943,10.943,0,0,0-.149-1.162,9.157,9.157,0,0,0-.286-1.169,5.773,5.773,0,0,0-.48-1.09,4.112,4.112,0,0,0-.724-.944,3.194,3.194,0,0,0-1.041-.654,3.6,3.6,0,0,0-1.328-.24,1.348,1.348,0,0,0-.72.305c-.216.141-.468.3-.75.484a4.3,4.3,0,0,1-.971.428,3.769,3.769,0,0,1-2.374,0,4.288,4.288,0,0,1-.97-.427c-.279-.178-.532-.341-.751-.484a1.346,1.346,0,0,0-.72-.305,3.592,3.592,0,0,0-1.328.241,3.191,3.191,0,0,0-1.041.654,4.114,4.114,0,0,0-.724.944,5.784,5.784,0,0,0-.48,1.09,9.179,9.179,0,0,0-.286,1.168,10.9,10.9,0,0,0-.149,1.163c-.024.352-.037.717-.037,1.086a3.054,3.054,0,0,0,.907,2.311,3.266,3.266,0,0,0,2.338.853H12.1a3.265,3.265,0,0,0,2.337-.853,3.053,3.053,0,0,0,.907-2.311c0-.371-.013-.736-.037-1.086Zm0,0" transform="translate(0 -238.431)" fill="#a9bddc"/>
</svg>
