<?xml version="1.0" standalone="no"?>
<!DOCTYPE svg PUBLIC "-//W3C//DTD SVG 1.1//EN" "http://www.w3.org/Graphics/SVG/1.1/DTD/svg11.dtd">
<svg xmlns="http://www.w3.org/2000/svg">
<metadata>Copyright (C) 2022 by original authors @ fontello.com</metadata>
<defs>
<font id="waitbuzz" horiz-adv-x="1000" >
<font-face font-family="waitbuzz" font-weight="400" font-stretch="normal" units-per-em="1000" ascent="850" descent="-150" />
<missing-glyph horiz-adv-x="1000" />
<glyph glyph-name="camera" unicode="&#xe800;" d="M536 475q66 0 113-47t47-114-47-113-113-47-114 47-47 113 47 114 114 47z m393 232q59 0 101-42t41-101v-500q0-59-41-101t-101-42h-786q-59 0-101 42t-42 101v500q0 59 42 101t101 42h125l28 76q11 27 39 47t58 20h286q29 0 57-20t39-47l29-76h125z m-393-643q103 0 176 74t74 176-74 177-176 73-177-73-73-177 73-176 177-74z" horiz-adv-x="1071.4" />

<glyph glyph-name="clock" unicode="&#xe801;" d="M464 685q-138 0-236-98t-98-237 98-237 236-97 237 97 98 237-98 237-237 98z m1 112q184 0 315-131t131-316-131-315-315-132-316 132-131 315 131 316 316 131z m151-518l-80-80-109 111q-19 17-19 41l0 223 113 0 0-199z" horiz-adv-x="928" />

<glyph glyph-name="search" unicode="&#xe802;" d="M805 151a443 443 0 1 1-136-126l148-146a93 93 0 0 1 135 128c-2 1-3 2-4 3z m-362-30a286 286 0 1 0 286 286 286 286 0 0 0-286-286z m0 0" horiz-adv-x="977" />

<glyph glyph-name="shops" unicode="&#xe803;" d="M1224 565l-192 269a40 40 0 0 1-32 16h-769a40 40 0 0 1-32-16l-192-269-7-21a154 154 0 0 1 154-155 153 153 0 0 1 115 52 153 153 0 0 1 231 0 153 153 0 0 1 231 0 153 153 0 0 1 231 0 153 153 0 0 1 115-52 154 154 0 0 1 154 155z m-147-253a230 230 0 0 0-115 31 236 236 0 0 0-231 0 236 236 0 0 0-231 0 236 236 0 0 0-231 0 234 234 0 0 0-192-16v-400a77 77 0 0 1 77-77h615v385h231v-385h77a77 77 0 0 1 77 77v399a229 229 0 0 0-77-14z m-538-308h-308v231h308z" horiz-adv-x="1231" />

<glyph glyph-name="user" unicode="&#xe804;" d="M411 368a233 233 0 0 1 170 71 233 233 0 0 1 71 170 233 233 0 0 1-71 171 241 241 0 0 1-340 0 233 233 0 0 1-71-171 233 233 0 0 1 71-170 233 233 0 0 1 170-71z m0 0m421-287a595 595 0 0 1-8 63 498 498 0 0 1-15 64 314 314 0 0 1-26 59 224 224 0 0 1-40 51 174 174 0 0 1-56 36 196 196 0 0 1-73 13 73 73 0 0 1-39-17c-11-7-25-16-40-26a234 234 0 0 0-53-23 205 205 0 0 0-129 0 233 233 0 0 0-53 23c-15 10-29 19-41 26a73 73 0 0 1-39 17 195 195 0 0 1-72-13 174 174 0 0 1-57-36 224 224 0 0 1-39-51 315 315 0 0 1-26-59 499 499 0 0 1-16-64 593 593 0 0 1-8-63c-1-19-2-39-2-59a166 166 0 0 1 49-126 178 178 0 0 1 127-46h482a178 178 0 0 1 127 46 166 166 0 0 1 49 126c0 20 0 40-2 59z m0 0" horiz-adv-x="834" />

<glyph glyph-name="heart-empty" unicode="&#xe805;" d="M929 517q0 46-12 80t-31 55-46 33-52 18-55 4-62-14-62-36-48-40-34-34q-10-13-27-13t-27 13q-14 15-34 34t-48 40-62 36-62 14-55-4-52-18-46-33-31-55-12-80q0-93 105-198l324-312 324 312q105 105 105 198z m71 0q0-123-128-251l-347-335q-10-10-25-10t-25 10l-348 336q-5 5-15 15t-31 37-38 54-30 67-13 77q0 123 71 192t196 70q34 0 70-12t67-33 54-38 42-38q20 20 42 38t54 38 67 33 70 12q125 0 196-70t71-192z" horiz-adv-x="1000" />

<glyph glyph-name="fields" unicode="&#xe806;" d="M646 246v208a42 42 0 0 1-42 42h-208a42 42 0 0 1-42-42v-208a42 42 0 0 1 42-42h208a42 42 0 0 1 42 42z m0 354v208a42 42 0 0 1-42 42h-208a42 42 0 0 1-42-42v-208a42 42 0 0 1 42-42h208a42 42 0 0 1 42 42z m-396 250h-208a42 42 0 0 1-42-42v-208a42 42 0 0 1 42-42h208a42 42 0 0 1 42 42v208a42 42 0 0 1-42 42z m708 0h-208a42 42 0 0 1-42-42v-208a42 42 0 0 1 42-42h208a42 42 0 0 1 42 42v208a42 42 0 0 1-42 42z m-208-646h208a42 42 0 0 1 42 42v208a42 42 0 0 1-42 42h-208a42 42 0 0 1-42-42v-208a42 42 0 0 1 42-42z m-500 292h-208a42 42 0 0 1-42-42v-208a42 42 0 0 1 42-42h208a42 42 0 0 1 42 42v208a42 42 0 0 1-42 42z m396-354h-604a42 42 0 0 1-42-42v-208a42 42 0 0 1 42-42h916a42 42 0 0 1 42 42v208a42 42 0 0 1-42 42h-312z" horiz-adv-x="1000" />

<glyph glyph-name="home" unicode="&#xe807;" d="M973 415l0 0-408 408a92 92 0 0 1-130 0l-408-408 0 0a92 92 0 0 1 61-157q1 0 3 0h16v-300a108 108 0 0 1 108-108h159a29 29 0 0 1 30 29v236a49 49 0 0 0 49 49h94a49 49 0 0 0 49-49v-236a29 29 0 0 1 29-29h160a108 108 0 0 1 108 108v300h15a92 92 0 0 1 65 157z m0 0" horiz-adv-x="1000" />

<glyph glyph-name="comment" unicode="&#xe808;" d="M481 850h34a44 44 0 0 1 5-1 467 467 0 0 0 82-10 487 487 0 0 0 281-171 489 489 0 0 0 110-376 469 469 0 0 0-39-143 29 29 0 0 1-3-21c2-6 3-12 4-18q21-112 42-223c2-11 5-22 7-34v-3c-1 0-1 1-2 1l-68 11q-108 19-215 38a23 23 0 0 1-15-2 483 483 0 0 0-161-43 492 492 0 0 0-174 16 488 488 0 0 0-256 166 488 488 0 0 0-110 368 473 473 0 0 0 48 166 496 496 0 0 0 217 222 486 486 0 0 0 190 55z m447-926a17 17 0 0 1 0 2q-20 108-41 215a19 19 0 0 0 2 13 431 431 0 0 1 45 152 437 437 0 0 1-18 176 438 438 0 0 1-497 300 424 424 0 0 1-266-162 425 425 0 0 1-85-353 426 426 0 0 1 161-261 427 427 0 0 1 187-85 438 438 0 0 1 164 0 438 438 0 0 1 118 40 13 13 0 0 0 7 2q98-17 195-34z" horiz-adv-x="1004" />

<glyph glyph-name="plus" unicode="&#xe809;" d="M500-100c-120 0-233 47-318 132-85 85-132 198-132 318 0 120 47 233 132 318 85 85 198 132 318 132 120 0 233-47 318-132 85-85 132-198 132-318 0-120-47-233-132-318-85-85-198-132-318-132z m-109 327l0-142c0-60 49-109 109-109 60 0 109 49 109 109l0 142 141 0c60 0 109 48 109 108 0 60-49 109-109 109l-141 0 0 141c0 60-49 109-109 109-60 0-109-49-109-109l0-141-141 0c-60 0-109-49-109-109 0-60 49-108 109-108l141 0z m210-264c68 17 131 53 182 104 54 54 90 121 107 193-27-50-80-83-140-83l-91 0 0-92c0-49-23-93-58-122m-202 0c-35 29-58 73-58 122l0 92-91 0c-60 0-113 33-140 83 17-72 53-139 107-193 51-51 114-87 182-104m499 431c-10 90-50 174-115 239-76 75-176 117-283 117-107 0-207-42-283-117-65-65-105-149-115-239 24 59 81 100 148 100l91 0 0 91c0 88 71 159 159 159 88 0 159-71 159-159l0-91 91 0c67 0 124-41 148-100m-398-544c-133 0-259 52-354 146-94 95-146 221-146 354 0 134 52 259 146 354 95 94 221 146 354 146 134 0 259-52 354-146 94-95 146-220 146-354 0-133-52-259-146-354-95-94-220-146-354-146z m-250 544c-32 0-59-26-59-59 0-32 27-58 59-58l191 0 0-192c0-32 27-58 59-58 32 0 59 26 59 58l0 192 191 0c32 0 59 26 59 58 0 33-27 59-59 59l-191 0 0 191c0 33-27 59-59 59-32 0-59-26-59-59l0-191-191 0z" horiz-adv-x="1000" />

<glyph glyph-name="share" unicode="&#xe80a;" d="M1000 350l-456 500v-299h-53a491 491 0 0 1-491-491v-210l88 96a628 628 0 0 0 456 204v-300z m-941-349v59a433 433 0 0 0 432 432h112v207l317-349-317-348v207h-53a686 686 0 0 1-491-208z m0 0" horiz-adv-x="1000" />

<glyph glyph-name="message" unicode="&#xe80b;" d="M900-8a411 411 0 0 1-37 576 470 470 0 0 0-452-599c-6 0 30 0-112 1a410 410 0 0 1 290-120l382 2a29 29 0 0 1 20 50z m-489 36a411 411 0 1 1-311 142l-91-90a29 29 0 0 1 20-50z m-175 556h352a29 29 0 0 0 0-58h-352a29 29 0 0 0 0 58z m0-117h352a29 29 0 0 0 0-58h-352a29 29 0 0 0 0 58z m-29-146a29 29 0 0 0 29 29h352a29 29 0 0 0 0-59h-352a29 29 0 0 0-29 30z" horiz-adv-x="1000" />

<glyph glyph-name="premium" unicode="&#xe80c;" d="M332 260a185 185 0 0 1 135 56 185 185 0 0 1 56 135 185 185 0 0 1-56 135 191 191 0 0 1-270 0 185 185 0 0 1-56-135 185 185 0 0 1 56-135 185 185 0 0 1 135-56z m0 0m327-227a471 471 0 0 1-7 50 394 394 0 0 1-12 50 248 248 0 0 1-21 47 177 177 0 0 1-31 41 137 137 0 0 1-44 28 155 155 0 0 1-58 10 58 58 0 0 1-31-13c-9-6-20-13-32-21a185 185 0 0 0-42-18 162 162 0 0 0-102 0 185 185 0 0 0-42 18c-12 8-22 15-32 21a58 58 0 0 1-31 13 155 155 0 0 1-57-10 137 137 0 0 1-45-28 177 177 0 0 1-31-41 249 249 0 0 1-21-47 395 395 0 0 1-12-50 469 469 0 0 1-6-50c-1-15-2-31-2-47a131 131 0 0 1 39-99 141 141 0 0 1 101-37h381a141 141 0 0 1 100 37 131 131 0 0 1 39 99c0 16 0 32-1 47z m0 0m-329 817l42-84 84 84v-168h-252v168l84-84z" horiz-adv-x="660" />

<glyph glyph-name="clock-1" unicode="&#xe80d;" d="M854 704a500 500 0 0 1-707-708 500 500 0 0 1 707 708z m-354-756a402 402 0 0 0-402 402c0 0 0 1 0 1s0 0 0 0 0 1 0 1a402 402 0 0 0 397 400c0 0 0 0 1 0l1 0 3 0a402 402 0 1 0 0-804z m305 378a30 30 0 0 0 0 59h36a343 343 0 0 1-315 307v-31a30 30 0 1 0-60 0v30a343 343 0 0 1-307-310h32a30 30 0 1 0 0-59h-32a343 343 0 0 1 311-313v37a30 30 0 0 0 60 0v-37a343 343 0 0 1 312 317z m-185 102l-99-99a30 30 0 0 0-42 0l-172 172a30 30 0 0 0 42 42l151-151 78 78a30 30 0 1 0 42-42z" horiz-adv-x="1000" />

<glyph glyph-name="payments" unicode="&#xe80e;" d="M500 850a500 500 0 1 1 500-500 500 500 0 0 1-500 500z m144-697a161 161 0 0 0-84-54 23 23 0 0 1-20-26c1-15 0-30 0-44a18 18 0 0 0-20-21c-8 0-17 0-25 0-7 0-15 0-22 0a19 19 0 0 0-21 22c0 10 0 21 0 32 0 24-1 25-24 28a303 303 0 0 0-85 25c-21 10-23 15-17 37 4 17 9 33 14 50 4 11 7 17 14 17a36 36 0 0 0 15-5 275 275 0 0 1 94-29 151 151 0 0 1 16-1 111 111 0 0 1 46 10 48 48 0 0 1 11 84 150 150 0 0 1-35 20 824 824 0 0 0-96 44c-50 29-81 70-77 130 4 68 42 110 105 133 25 9 26 9 26 36 0 9-1 18 0 27 0 20 4 24 24 24h23c39 0 39-1 39-43 0-30 0-30 30-35a268 268 0 0 0 67-20 19 19 0 0 0 12-26c-5-18-10-37-16-55-4-12-7-17-14-17a33 33 0 0 0-14 5 210 210 0 0 1-93 21c-4 0-8 0-12 0a83 83 0 0 1-29-6 40 40 0 0 1-9-71 186 186 0 0 1 45-26 827 827 0 0 0 84-38 151 151 0 0 0 48-228z" horiz-adv-x="1000" />

<glyph glyph-name="contact" unicode="&#xe80f;" d="M957 86l-195 130a57 57 0 0 1-77-12l-57-73a24 24 0 0 0-31-7l-11 6a656 656 0 0 0-171 134 658 658 0 0 0-134 171l-6 11a24 24 0 0 0 6 31l74 57a57 57 0 0 1 12 77l-130 196a57 57 0 0 1-77 17l-82-49a116 116 0 0 1-53-69c-29-107-7-292 266-566 217-217 379-275 490-275a286 286 0 0 1 76 10 115 115 0 0 1 68 52l50 82a57 57 0 0 1-18 77z m-10-60l-49-82a83 83 0 0 0-49-38c-100-28-273-5-535 257s-285 436-258 535a83 83 0 0 0 39 49l81 49a25 25 0 0 0 34-7l71-107 59-89a25 25 0 0 0-5-33l-74-57a56 56 0 0 1-14-73l5-10a684 684 0 0 1 140-179 685 685 0 0 1 178-139l11-6a56 56 0 0 1 72 15l57 73a25 25 0 0 0 34 6l195-131a25 25 0 0 0 8-33z m-383 645a274 274 0 0 0 274-274 16 16 0 0 1 32 0 307 307 0 0 1-306 306 16 16 0 1 1 0-32z m0-97a178 178 0 0 0 177-177 16 16 0 0 1 32 0 210 210 0 0 1-209 209 16 16 0 0 1 0-32z m0-97a81 81 0 0 0 80-80 16 16 0 1 1 32 0 113 113 0 0 1-112 113 16 16 0 0 1 0-33z" horiz-adv-x="1001" />

<glyph glyph-name="earth" unicode="&#xe810;" d="M502 839a489 489 0 0 1-450-297l-6-2 3-7a489 489 0 1 1 453 306z m383-735l-25 25v58a16 16 0 0 1-1 7l-64 127v62a16 16 0 0 1-7 13l-49 33a16 16 0 0 1-13 2l-60-15-101 43-14 97 39 38h82l28-41a16 16 0 0 1 11-7l97-17a16 16 0 0 1 8 1l90 30a455 455 0 0 0-21-456z m-67 574l-26-17-74 14-48 16a16 16 0 0 1-9 1l-61-15-27 8 20 40h55a16 16 0 0 1 8 1l56 29a458 458 0 0 0 106-77z m-495 92l39-26a16 16 0 0 1 7-3l79-13-8-23-41-14a16 16 0 0 1-9-7l-47-78-75-45-111-16a16 16 0 0 1-14-16v-49a16 16 0 0 1 5-11l28-28v-28l-68 45-25 74a459 459 0 0 0 240 238z m-46-534l-74 14-27 55v38l60 61 23-45a16 16 0 0 1 14-9h105l44-74a16 16 0 0 1 14-7h46l-12-58-61-61a16 16 0 0 1-5-12v-41l-59-44a16 16 0 0 1-6-13v-59l-20 7-29 72v160a16 16 0 0 1-13 16z m-49-251a456 456 0 0 0-163 498l14-40a16 16 0 0 1 6-9l81-54-18-18a16 16 0 0 1-5-12v-49a16 16 0 0 1 2-7l32-65a16 16 0 0 1 12-9l68-14v-149a16 16 0 0 1 1-6l33-82a16 16 0 0 1 10-9l49-17a16 16 0 0 1 5 0 16 16 0 0 1 16 16v73l59 44a16 16 0 0 1 6 13v42l61 61a16 16 0 0 1 4 8l16 82a16 16 0 0 1-16 19h-55l-44 74a16 16 0 0 1-14 8h-104l-28 56a16 16 0 0 1-12 9 16 16 0 0 1-14-5l-22-21v26a16 16 0 0 1-4 11l-28 28v28l100 14a16 16 0 0 1 6 3l81 49a16 16 0 0 1 6 5l46 76 43 15a16 16 0 0 1 10 10l16 49a16 16 0 0 1-12 21l-95 16-16 11a455 455 0 0 0 313-12l-30-14h-61a16 16 0 0 1-15-9l-32-66a16 16 0 0 1 9-23l49-16a16 16 0 0 1 9 0l61 15 44-15a12 12 0 0 1 2 0l82-16a16 16 0 0 1 12 2l37 25a460 460 0 0 0 49-66l-80-27-87 15-29 43a16 16 0 0 1-13 7h-98a16 16 0 0 1-11-5l-49-49a16 16 0 0 1-5-14l16-114a16 16 0 0 1 10-12l114-49a16 16 0 0 1 11-1l58 15 35-24v-57a16 16 0 0 1 2-7l64-127v-61a16 16 0 0 1 4-12l34-34a456 456 0 0 0-638-91z" horiz-adv-x="1002" />

<glyph glyph-name="letter" unicode="&#xe811;" d="M85-145c12-7-43-5 798-5a117 117 0 0 1 117 118v87a29 29 0 0 1-29 30h-69v643a123 123 0 0 1-122 122h-751a29 29 0 0 1-29-29v-853a117 117 0 0 1 85-113z m856 112a59 59 0 0 0-58-58h-664a116 116 0 0 1 15 59v58h707z m-882 824h721a64 64 0 0 0 64-64v-642h-639a29 29 0 0 1-29-30v-86a59 59 0 0 0-100-43 58 58 0 0 0-17 42z m153-177h478a29 29 0 1 1 0 58h-478a29 29 0 1 1 0-58z m0-137h478a29 29 0 1 1 0 59h-478a29 29 0 1 1 0-59z m0-136h478a29 29 0 1 1 0 58h-478a29 29 0 1 1 0-58z m0-137h478a29 29 0 1 1 0 58h-478a29 29 0 1 1 0-58z" horiz-adv-x="1000" />

<glyph glyph-name="sale" unicode="&#xe812;" d="M327 676a41 41 0 0 1-22-34l-2-30a50 50 0 0 0-16-33l0 0a50 50 0 0 0-35-14l-30 0a41 41 0 0 1-37-59l14-27a49 49 0 0 0 2-37l0-1a49 49 0 0 0-23-29l-26-15a41 41 0 0 1-3-70l25-16a49 49 0 0 0 21-31 6 6 0 0 0 0-1 50 50 0 0 0-5-37l-15-25a41 41 0 0 1 32-62l31-2a49 49 0 0 0 33-16 6 6 0 0 1 0 0 49 49 0 0 0 14-35l0-30a41 41 0 0 1 59-37l27 13a49 49 0 0 0 37 3l1 0a49 49 0 0 0 29-23l14-26a41 41 0 0 1 70-3l17 25a49 49 0 0 0 31 21l0 0a50 50 0 0 0 37-5l26-15a41 41 0 0 1 62 32l1 30a49 49 0 0 0 16 34l1 0a49 49 0 0 0 35 14l30 0a41 41 0 0 1 37 59l-14 27a49 49 0 0 0-3 37l0 0a49 49 0 0 0 23 29l27 15a41 41 0 0 1 3 70l-26 17a49 49 0 0 0-21 31 6 6 0 0 0 0 1 50 50 0 0 0 6 36l15 26a41 41 0 0 1-33 62l-30 1a49 49 0 0 0-33 17 7 7 0 0 1-1 0 49 49 0 0 0-13 35l0 30a41 41 0 0 1-59 37l-27-14a49 49 0 0 0-37-3l-1 1a49 49 0 0 0-29 22l-14 27a41 41 0 0 1-70 3l-17-26a49 49 0 0 0-31-20l-1-1a50 50 0 0 0-36 6l-26 15a40 40 0 0 1-40 1z m-31-367c29 15 57 10 70-12l-29-16a21 21 0 0 1-28 5c-11-6-15-15-11-24 3-6 11-7 25-3l18 5c27 9 44 3 54-16 14-26 3-52-30-69-31-17-59-13-72 11l30 16c6-9 18-10 31-3 11 6 16 16 12 24-4 7-11 8-26 3l-18-5c-25-8-44-2-54 18-13 24-2 50 28 66z m107 54l40 21 108-103-34-19-23 24-41-22 7-32-32-17z m95 50l32 17 53-99 53 29 14-27-85-45z m101 54l86 45 14-25-55-29 14-25 51 27 12-23-51-28 14-25 54 29 14-26-87-46z m-163-123l11-54 29 15-38 40z" horiz-adv-x="1000" />

<glyph glyph-name="shopping-cart" unicode="&#xe813;" d="M100 850v-100h119l50-100h240l-258-550h749v100h-592l47 100h424l257 450h-805l-50 100z m-100-300v-100h305l47 100z m0-200v-100h211l47 100z m400-300a100 100 0 1 1 100-100 100 100 0 0 1-100 100z m500 0a100 100 0 1 1 100-100 100 100 0 0 1-100 100z" horiz-adv-x="1136" />

<glyph glyph-name="my-orders" unicode="&#xe814;" d="M153 850a56 56 0 0 1-48-27l-97-167a56 56 0 0 1-8-28v-667a112 112 0 0 1 111-111h778a112 112 0 0 1 111 111v667a56 56 0 0 1-7 28l-98 167a56 56 0 0 1-48 27z m32-111h630l65-111h-760z m-74-222h778v-556h-778z m222-111v-111h334v111z" horiz-adv-x="1000" />

<glyph glyph-name="order-prod" unicode="&#xe815;" d="M128 838a47 47 0 0 1-40-23l-81-140a47 47 0 0 1-6-23v-557a93 93 0 0 1 92-93h339a325 325 0 0 0-13 93h-326v464h651v-139a325 325 0 0 0 92-14v246a47 47 0 0 1-6 23l-81 140a47 47 0 0 1-40 23z m27-93h527l54-93h-635z m124-279v-93h279v93z m420-139a12 12 0 0 1-11-11l-6-47a185 185 0 0 1-60-35l-44 19a12 12 0 0 1-14-5l-44-75a12 12 0 0 1 3-15l38-28a173 173 0 0 1 0-71l-38-27a12 12 0 0 1-3-16l44-75a12 12 0 0 1 14-5l44 19a184 184 0 0 1 60-35l6-47a12 12 0 0 1 11-10h88a12 12 0 0 1 11 10l6 47a185 185 0 0 1 60 35l44-19a12 12 0 0 1 14 5l44 75a12 12 0 0 1-3 16l-38 28a178 178 0 0 1 0 70l38 28a12 12 0 0 1 3 15l-44 75a12 12 0 0 1-15 5l-43-18a185 185 0 0 1-61 34l-5 47a12 12 0 0 1-12 11z m44-139a93 93 0 1 0-93-93 93 93 0 0 0 93 93z" horiz-adv-x="968" />
</font>
</defs>
</svg>
